<svg xmlns="http://www.w3.org/2000/svg" width="1310" height="720" viewBox="0 0 1310 720">

  <defs>
    <marker id="arrow" viewBox="0 0 10 10" refX="9" refY="5" markerWidth="7" markerHeight="7" orient="auto-start-reverse">
      <path d="M 0 0 L 10 5 L 0 10 z" fill="#64748b"/>
    </marker>
    <marker id="arrow-active" viewBox="0 0 10 10" refX="9" refY="5" markerWidth="8" markerHeight="8" orient="auto-start-reverse">
      <path d="M 0 0 L 10 5 L 0 10 z" fill="#ef4444"/>
    </marker>
  </defs>

  <style>
    .page-title { font: 700 28px "Segoe UI", Arial, sans-serif; fill: #0f172a; }
    .subtitle { font: 400 13px "Segoe UI", Arial, sans-serif; fill: #475569; }
    .card-title { font: 700 15px "Segoe UI", Arial, sans-serif; }
    .field { font: 12px Consolas, "Liberation Mono", monospace; fill: #1f2937; }
    .meta { font: 12px "Segoe UI", Arial, sans-serif; fill: #64748b; }
    .section { font: 700 14px "Segoe UI", Arial, sans-serif; fill: #334155; }
    .card { transition: opacity .12s ease; }
    .card-outline { transition: stroke .12s ease, stroke-width .12s ease; }
    .card.active-card .card-outline { stroke: #ef4444; stroke-width: 4; }
    .relation { cursor: pointer; }
    .overview-app { cursor: pointer; }
    .overview-app:hover .overview-outline { stroke-width: 4; }
    .edge-hit { stroke: transparent; stroke-width: 18; fill: none; pointer-events: stroke; }
    .edge { stroke: #64748b; stroke-width: 1.8; fill: none; marker-end: url(#arrow); opacity: .62; }
    .external-edge { stroke: #475569; opacity: .58; }
    .relation.active .edge { stroke: #ef4444; stroke-width: 4; marker-end: url(#arrow-active); opacity: 1; }
    .relation.active .edge-label-bg { stroke: #ef4444; stroke-width: 1.5; opacity: 1; }
    .relation.active .edge-label { fill: #b91c1c; font-weight: 700; }
    .edge-label-bg { fill: #ffffff; stroke: #e2e8f0; stroke-width: 1; opacity: .9; }
    .edge-label { font: 10px "Segoe UI", Arial, sans-serif; fill: #475569; }
  </style>
  <rect width="100%" height="100%" fill="#f8fafc"/>
  <text x="60" y="54" class="page-title">Auth ER Slice</text>
  <text x="60" y="80" class="subtitle">3 local tables, 3 linked external tables, 2 local relationships, 3 external relationships</text>
  <text x="990" y="112" class="section">Linked external tables</text>
  <g class="relation" data-src="auth_group" data-dst="auth_group_permissions" data-label="group_id">
    <title>auth_group to auth_group_permissions via group_id</title>
    <path class="edge-hit" d="M 230 353 L 210 353 L 210 351 L 100 351 L 100 517 L 204 517 L 204 519 L 230 519"/>
    <path class="edge" d="M 230 353 L 210 353 L 210 351 L 100 351 L 100 517 L 204 517 L 204 519 L 230 519"/>
    <rect class="edge-label-bg" x="70.0" y="426.0" width="60" height="16" rx="4"/>
    <text class="edge-label" x="100.0" y="438.0" text-anchor="middle">group_id</text>
  </g>
  <g class="relation" data-src="auth_permission" data-dst="auth_group_permissions" data-label="permission_id">
    <title>auth_permission to auth_group_permissions via permission_id</title>
    <path class="edge-hit" d="M 230 197 L 210 197 L 210 199 L 190 199 L 190 483 L 210 483 L 210 481 L 230 481"/>
    <path class="edge" d="M 230 197 L 210 197 L 210 199 L 190 199 L 190 483 L 210 483 L 210 481 L 230 481"/>
    <rect class="edge-label-bg" x="145.0" y="333.0" width="90" height="16" rx="4"/>
    <text class="edge-label" x="190.0" y="345.0" text-anchor="middle">permission_id</text>
  </g>
  <g class="relation" data-src="auth_group" data-dst="accounts_user_groups" data-label="group_id">
    <title>auth_group to accounts_user_groups via group_id</title>
    <path class="edge-hit" d="M 550 353 L 570 353 L 570 349 L 590 349 L 590 184 L 970 184 L 970 188 L 990 188"/>
    <path class="edge external-edge" d="M 550 353 L 570 353 L 570 349 L 590 349 L 590 184 L 970 184 L 970 188 L 990 188"/>
    <rect class="edge-label-bg" x="657.5" y="176.0" width="60" height="16" rx="4"/>
    <text class="edge-label" x="687.5" y="188.0" text-anchor="middle">group_id</text>
  </g>
  <g class="relation" data-src="auth_permission" data-dst="accounts_user_user_permissions" data-label="permission_id">
    <title>auth_permission to accounts_user_user_permissions via permission_id</title>
    <path class="edge-hit" d="M 550 175 L 770 175 L 770 344 L 990 344"/>
    <path class="edge external-edge" d="M 550 175 L 770 175 L 770 344 L 990 344"/>
    <rect class="edge-label-bg" x="725.0" y="251.5" width="90" height="16" rx="4"/>
    <text class="edge-label" x="770.0" y="263.5" text-anchor="middle">permission_id</text>
  </g>
  <g class="relation" data-src="django_content_type" data-dst="auth_permission" data-label="content_type_id">
    <title>django_content_type to auth_permission via content_type_id</title>
    <path class="edge-hit" d="M 990 500 L 970 500 L 970 504 L 950 504 L 950 223 L 576 223 L 576 219 L 550 219"/>
    <path class="edge external-edge" d="M 990 500 L 970 500 L 970 504 L 950 504 L 950 223 L 576 223 L 576 219 L 550 219"/>
    <rect class="edge-label-bg" x="859.5" y="215.0" width="102" height="16" rx="4"/>
    <text class="edge-label" x="910.5" y="227.0" text-anchor="middle">content_type_id</text>
  </g>
  <g id="auth_permission" class="card" data-table="auth_permission">
    <title>auth_permission</title>
    <rect class="card-outline" x="230" y="132" width="320" height="130" rx="8" fill="#ffffff" stroke="#0891b2" stroke-width="1.5"/>
    <rect x="230" y="132" width="320" height="34" rx="8" fill="#cffafe" stroke="#0891b2" stroke-width="1"/>
    <rect x="230" y="158" width="320" height="8" fill="#cffafe"/>
    <text x="244" y="154" class="card-title" fill="#0891b2">auth_permission</text>
    <text x="244" y="190" class="field">PK    id : int</text>
    <text x="244" y="208" class="field">      name : varchar</text>
    <text x="244" y="226" class="field">FK    content_type_id : int</text>
    <text x="244" y="244" class="field">      codename : varchar</text>
  </g>
  <g id="auth_group" class="card" data-table="auth_group">
    <title>auth_group</title>
    <rect class="card-outline" x="230" y="306" width="320" height="94" rx="8" fill="#ffffff" stroke="#0891b2" stroke-width="1.5"/>
    <rect x="230" y="306" width="320" height="34" rx="8" fill="#cffafe" stroke="#0891b2" stroke-width="1"/>
    <rect x="230" y="332" width="320" height="8" fill="#cffafe"/>
    <text x="244" y="328" class="card-title" fill="#0891b2">auth_group</text>
    <text x="244" y="364" class="field">PK    id : int</text>
    <text x="244" y="382" class="field">UK    name : varchar</text>
  </g>
  <g id="auth_group_permissions" class="card" data-table="auth_group_permissions">
    <title>auth_group_permissions</title>
    <rect class="card-outline" x="230" y="444" width="320" height="112" rx="8" fill="#ffffff" stroke="#0891b2" stroke-width="1.5"/>
    <rect x="230" y="444" width="320" height="34" rx="8" fill="#cffafe" stroke="#0891b2" stroke-width="1"/>
    <rect x="230" y="470" width="320" height="8" fill="#cffafe"/>
    <text x="244" y="466" class="card-title" fill="#0891b2">auth_group_permissions</text>
    <text x="244" y="502" class="field">PK    id : int</text>
    <text x="244" y="520" class="field">FK    group_id : int</text>
    <text x="244" y="538" class="field">FK    permission_id : int</text>
  </g>
  <g id="accounts_user_groups" class="card" data-table="accounts_user_groups">
    <title>accounts_user_groups</title>
    <rect class="card-outline" x="990" y="132" width="260" height="112" rx="8" fill="#ffffff" stroke="#94a3b8" stroke-width="1.5"/>
    <rect x="990" y="132" width="260" height="34" rx="8" fill="#e2e8f0" stroke="#94a3b8" stroke-width="1"/>
    <rect x="990" y="158" width="260" height="8" fill="#e2e8f0"/>
    <text x="1004" y="154" class="card-title" fill="#94a3b8">accounts_user_groups</text>
    <text x="1236" y="154" class="meta" text-anchor="end">accounts</text>
    <text x="1004" y="190" class="field">PK    id : bigint</text>
    <text x="1004" y="208" class="field">FK    user_id : bigint</text>
    <text x="1004" y="226" class="field">FK    group_id : int</text>
  </g>
  <g id="accounts_user_user_permissions" class="card" data-table="accounts_user_user_permissions">
    <title>accounts_user_user_permissions</title>
    <rect class="card-outline" x="990" y="288" width="260" height="112" rx="8" fill="#ffffff" stroke="#94a3b8" stroke-width="1.5"/>
    <rect x="990" y="288" width="260" height="34" rx="8" fill="#e2e8f0" stroke="#94a3b8" stroke-width="1"/>
    <rect x="990" y="314" width="260" height="8" fill="#e2e8f0"/>
    <text x="1004" y="310" class="card-title" fill="#94a3b8">accounts_user_user_permissions</text>
    <text x="1236" y="310" class="meta" text-anchor="end">accounts</text>
    <text x="1004" y="346" class="field">PK    id : bigint</text>
    <text x="1004" y="364" class="field">FK    user_id : bigint</text>
    <text x="1004" y="382" class="field">FK    permission_id : int</text>
  </g>
  <g id="django_content_type" class="card" data-table="django_content_type">
    <title>django_content_type</title>
    <rect class="card-outline" x="990" y="444" width="260" height="112" rx="8" fill="#ffffff" stroke="#94a3b8" stroke-width="1.5"/>
    <rect x="990" y="444" width="260" height="34" rx="8" fill="#e2e8f0" stroke="#94a3b8" stroke-width="1"/>
    <rect x="990" y="470" width="260" height="8" fill="#e2e8f0"/>
    <text x="1004" y="466" class="card-title" fill="#94a3b8">django_content_type</text>
    <text x="1236" y="466" class="meta" text-anchor="end">django</text>
    <text x="1004" y="502" class="field">PK    id : int</text>
    <text x="1004" y="520" class="field">      app_label : varchar</text>
    <text x="1004" y="538" class="field">      model : varchar</text>
  </g>

  <script><![CDATA[
    (function () {
      const svg = document.currentScript.ownerSVGElement;
      if (!svg || svg.dataset.erInteractive === "1") return;
      svg.dataset.erInteractive = "1";
      const relations = Array.from(svg.querySelectorAll(".relation"));
      const cards = Array.from(svg.querySelectorAll(".card"));

      function clear() {
        relations.forEach((relation) => relation.classList.remove("active"));
        cards.forEach((card) => card.classList.remove("active-card"));
      }

      function highlight(relation) {
        const src = relation.dataset.src;
        const dst = relation.dataset.dst;
        relations.forEach((item) => {
          item.classList.toggle("active", item === relation);
        });
        cards.forEach((card) => {
          const connected = card.dataset.table === src || card.dataset.table === dst;
          card.classList.toggle("active-card", connected);
        });
      }

      relations.forEach((relation) => {
        relation.addEventListener("click", (event) => {
          event.stopPropagation();
          highlight(relation);
        });
      });
      svg.addEventListener("click", clear);
    })();
  ]]></script>

</svg>
