<svg xmlns="http://www.w3.org/2000/svg" width="1409" height="2454" viewBox="0 0 1409 2454">

  <defs>
    <marker id="arrow" viewBox="0 0 10 10" refX="9" refY="5" markerWidth="7" markerHeight="7" orient="auto-start-reverse">
      <path d="M 0 0 L 10 5 L 0 10 z" fill="#64748b"/>
    </marker>
    <marker id="arrow-active" viewBox="0 0 10 10" refX="9" refY="5" markerWidth="8" markerHeight="8" orient="auto-start-reverse">
      <path d="M 0 0 L 10 5 L 0 10 z" fill="#ef4444"/>
    </marker>
  </defs>

  <style>
    .page-title { font: 700 28px "Segoe UI", Arial, sans-serif; fill: #0f172a; }
    .subtitle { font: 400 13px "Segoe UI", Arial, sans-serif; fill: #475569; }
    .card-title { font: 700 15px "Segoe UI", Arial, sans-serif; }
    .field { font: 12px Consolas, "Liberation Mono", monospace; fill: #1f2937; }
    .meta { font: 12px "Segoe UI", Arial, sans-serif; fill: #64748b; }
    .section { font: 700 14px "Segoe UI", Arial, sans-serif; fill: #334155; }
    .card { transition: opacity .12s ease; }
    .card-outline { transition: stroke .12s ease, stroke-width .12s ease; }
    .card.active-card .card-outline { stroke: #ef4444; stroke-width: 4; }
    .relation { cursor: pointer; }
    .overview-app { cursor: pointer; }
    .overview-app:hover .overview-outline { stroke-width: 4; }
    .edge-hit { stroke: transparent; stroke-width: 18; fill: none; pointer-events: stroke; }
    .edge { stroke: #64748b; stroke-width: 1.8; fill: none; marker-end: url(#arrow); opacity: .62; }
    .external-edge { stroke: #475569; opacity: .58; }
    .relation.active .edge { stroke: #ef4444; stroke-width: 4; marker-end: url(#arrow-active); opacity: 1; }
    .relation.active .edge-label-bg { stroke: #ef4444; stroke-width: 1.5; opacity: 1; }
    .relation.active .edge-label { fill: #b91c1c; font-weight: 700; }
    .edge-label-bg { fill: #ffffff; stroke: #e2e8f0; stroke-width: 1; opacity: .9; }
    .edge-label { font: 10px "Segoe UI", Arial, sans-serif; fill: #475569; }
  </style>
  <rect width="100%" height="100%" fill="#f8fafc"/>
  <text x="60" y="54" class="page-title">Dispatch Plans ER Slice</text>
  <text x="60" y="80" class="subtitle">4 local tables, 9 linked external tables, 3 local relationships, 16 external relationships</text>
  <text x="1041" y="112" class="section">Linked external tables</text>
  <g class="relation" data-src="dispatch_plans_dispatchplan" data-dst="dispatch_plans_transporterapinvoiceline" data-label="dispatch_plan_id">
    <title>dispatch_plans_dispatchplan to dispatch_plans_transporterapinvoiceline via dispatch_plan_id</title>
    <path class="edge-hit" d="M 230 584 L 210 584 L 210 580 L 190 580 L 190 1689 L 210 1689 L 210 1693 L 230 1693"/>
    <path class="edge" d="M 230 584 L 210 584 L 210 580 L 190 580 L 190 1689 L 210 1689 L 210 1693 L 230 1693"/>
    <rect class="edge-label-bg" x="136.0" y="1126.5" width="108" height="16" rx="4"/>
    <text class="edge-label" x="190.0" y="1138.5" text-anchor="middle">dispatch_plan_id</text>
  </g>
  <g class="relation" data-src="dispatch_plans_transporterapinvoiceposting" data-dst="dispatch_plans_transporterapinvoiceattachment" data-label="transporter_ap_invoice_id">
    <title>dispatch_plans_transporterapinvoiceposting to dispatch_plans_transporterapinvoiceattachment via transporter_ap_invoice_id</title>
    <path class="edge-hit" d="M 230 1395 L 100 1395 L 100 2042 L 230 2042"/>
    <path class="edge" d="M 230 1395 L 100 1395 L 100 2042 L 230 2042"/>
    <rect class="edge-label-bg" x="19.0" y="1710.5" width="162" height="16" rx="4"/>
    <text class="edge-label" x="100.0" y="1722.5" text-anchor="middle">transporter_ap_invoice_id</text>
  </g>
  <g class="relation" data-src="dispatch_plans_transporterapinvoiceposting" data-dst="dispatch_plans_transporterapinvoiceline" data-label="transporter_ap_invoice_id">
    <title>dispatch_plans_transporterapinvoiceposting to dispatch_plans_transporterapinvoiceline via transporter_ap_invoice_id</title>
    <path class="edge-hit" d="M 230 1237 L 210 1237 L 210 1241 L 145 1241 L 145 1795 L 204 1795 L 204 1791 L 230 1791"/>
    <path class="edge" d="M 230 1237 L 210 1237 L 210 1241 L 145 1241 L 145 1795 L 204 1795 L 204 1791 L 230 1791"/>
    <rect class="edge-label-bg" x="64.0" y="1510.0" width="162" height="16" rx="4"/>
    <text class="edge-label" x="145.0" y="1522.0" text-anchor="middle">transporter_ap_invoice_id</text>
  </g>
  <g class="relation" data-src="accounts_user" data-dst="dispatch_plans_dispatchplan" data-label="created_by_id">
    <title>accounts_user to dispatch_plans_dispatchplan via created_by_id</title>
    <path class="edge-hit" d="M 1041 163 L 1021 163 L 1021 133 L 641 133 L 641 192 L 621 192 L 621 222 L 601 222"/>
    <path class="edge external-edge" d="M 1041 163 L 1021 163 L 1021 133 L 641 133 L 641 192 L 621 192 L 621 222 L 601 222"/>
    <rect class="edge-label-bg" x="746.5" y="125.0" width="90" height="16" rx="4"/>
    <text class="edge-label" x="791.5" y="137.0" text-anchor="middle">created_by_id</text>
  </g>
  <g class="relation" data-src="accounts_user" data-dst="dispatch_plans_dispatchplan" data-label="updated_by_id">
    <title>accounts_user to dispatch_plans_dispatchplan via updated_by_id</title>
    <path class="edge-hit" d="M 1041 195 L 1015 195 L 1015 169 L 665 169 L 665 287 L 627 287 L 627 313 L 601 313"/>
    <path class="edge external-edge" d="M 1041 195 L 1015 195 L 1015 169 L 665 169 L 665 287 L 627 287 L 627 313 L 601 313"/>
    <rect class="edge-label-bg" x="717.0" y="161.0" width="90" height="16" rx="4"/>
    <text class="edge-label" x="762.0" y="173.0" text-anchor="middle">updated_by_id</text>
  </g>
  <g class="relation" data-src="accounts_user" data-dst="dispatch_plans_transporterapinvoiceattachment" data-label="uploaded_by_id">
    <title>accounts_user to dispatch_plans_transporterapinvoiceattachment via uploaded_by_id</title>
    <path class="edge-hit" d="M 1041 321 L 991 321 L 991 299 L 881 299 L 881 2020 L 593 2020 L 593 2042 L 573 2042"/>
    <path class="edge external-edge" d="M 1041 321 L 991 321 L 991 299 L 881 299 L 881 2020 L 593 2020 L 593 2042 L 573 2042"/>
    <rect class="edge-label-bg" x="833.0" y="1225.5" width="96" height="16" rx="4"/>
    <text class="edge-label" x="881.0" y="1237.5" text-anchor="middle">uploaded_by_id</text>
  </g>
  <g class="relation" data-src="accounts_user" data-dst="dispatch_plans_transporterapinvoiceposting" data-label="created_by_id">
    <title>accounts_user to dispatch_plans_transporterapinvoiceposting via created_by_id</title>
    <path class="edge-hit" d="M 1041 226 L 1009 226 L 1009 208 L 761 208 L 761 1156 L 600 1156 L 600 1174 L 580 1174"/>
    <path class="edge external-edge" d="M 1041 226 L 1009 226 L 1009 208 L 761 208 L 761 1156 L 600 1156 L 600 1174 L 580 1174"/>
    <rect class="edge-label-bg" x="716.0" y="624.5" width="90" height="16" rx="4"/>
    <text class="edge-label" x="761.0" y="636.5" text-anchor="middle">created_by_id</text>
  </g>
  <g class="relation" data-src="accounts_user" data-dst="dispatch_plans_transporterapinvoiceposting" data-label="posted_by_id">
    <title>accounts_user to dispatch_plans_transporterapinvoiceposting via posted_by_id</title>
    <path class="edge-hit" d="M 1041 258 L 1003 258 L 1003 244 L 785 244 L 785 1255 L 606 1255 L 606 1269 L 580 1269"/>
    <path class="edge external-edge" d="M 1041 258 L 1003 258 L 1003 244 L 785 244 L 785 1255 L 606 1255 L 606 1269 L 580 1269"/>
    <rect class="edge-label-bg" x="743.0" y="716.0" width="84" height="16" rx="4"/>
    <text class="edge-label" x="785.0" y="728.0" text-anchor="middle">posted_by_id</text>
  </g>
  <g class="relation" data-src="accounts_user" data-dst="dispatch_plans_transporterapinvoiceposting" data-label="updated_by_id">
    <title>accounts_user to dispatch_plans_transporterapinvoiceposting via updated_by_id</title>
    <path class="edge-hit" d="M 1041 289 L 997 289 L 997 279 L 809 279 L 809 1353 L 612 1353 L 612 1363 L 580 1363"/>
    <path class="edge external-edge" d="M 1041 289 L 997 289 L 997 279 L 809 279 L 809 1353 L 612 1353 L 612 1363 L 580 1363"/>
    <rect class="edge-label-bg" x="764.0" y="806.5" width="90" height="16" rx="4"/>
    <text class="edge-label" x="809.0" y="818.5" text-anchor="middle">updated_by_id</text>
  </g>
  <g class="relation" data-src="company_company" data-dst="dispatch_plans_dispatchplan" data-label="company_id">
    <title>company_company to dispatch_plans_dispatchplan via company_id</title>
    <path class="edge-hit" d="M 1041 439 L 1021 439 L 1021 433 L 689 433 L 689 397 L 633 397 L 633 403 L 601 403"/>
    <path class="edge external-edge" d="M 1041 439 L 1021 439 L 1021 433 L 689 433 L 689 397 L 633 397 L 633 403 L 601 403"/>
    <rect class="edge-label-bg" x="767.0" y="425.0" width="72" height="16" rx="4"/>
    <text class="edge-label" x="803.0" y="437.0" text-anchor="middle">company_id</text>
  </g>
  <g class="relation" data-src="company_company" data-dst="dispatch_plans_transporterapinvoiceposting" data-label="company_id">
    <title>company_company to dispatch_plans_transporterapinvoiceposting via company_id</title>
    <path class="edge-hit" d="M 1041 483 L 1015 483 L 1015 481 L 833 481 L 833 1456 L 618 1456 L 618 1458 L 580 1458"/>
    <path class="edge external-edge" d="M 1041 483 L 1015 483 L 1015 481 L 833 481 L 833 1456 L 618 1456 L 618 1458 L 580 1458"/>
    <rect class="edge-label-bg" x="797.0" y="983.0" width="72" height="16" rx="4"/>
    <text class="edge-label" x="833.0" y="995.0" text-anchor="middle">company_id</text>
  </g>
  <g class="relation" data-src="dispatch_plans_dispatchplan" data-dst="gate_core_dispatchgateout" data-label="dispatch_plan_id">
    <title>dispatch_plans_dispatchplan to gate_core_dispatchgateout via dispatch_plan_id</title>
    <path class="edge-hit" d="M 601 674 L 651 674 L 651 676 L 857 676 L 857 1210 L 1021 1210 L 1021 1208 L 1041 1208"/>
    <path class="edge external-edge" d="M 601 674 L 651 674 L 651 676 L 857 676 L 857 1210 L 1021 1210 L 1021 1208 L 1041 1208"/>
    <rect class="edge-label-bg" x="803.0" y="899.0" width="108" height="16" rx="4"/>
    <text class="edge-label" x="857.0" y="911.0" text-anchor="middle">dispatch_plan_id</text>
  </g>
  <g class="relation" data-src="dispatch_plans_dispatchplan" data-dst="grpo_servicegrpoposting" data-label="dispatch_plan_id">
    <title>dispatch_plans_dispatchplan to grpo_servicegrpoposting via dispatch_plan_id</title>
    <path class="edge-hit" d="M 601 765 L 657 765 L 657 771 L 905 771 L 905 1705 L 1021 1705 L 1021 1699 L 1041 1699"/>
    <path class="edge external-edge" d="M 601 765 L 657 765 L 657 771 L 905 771 L 905 1705 L 1021 1705 L 1021 1699 L 1041 1699"/>
    <rect class="edge-label-bg" x="851.0" y="1146.0" width="108" height="16" rx="4"/>
    <text class="edge-label" x="905.0" y="1158.0" text-anchor="middle">dispatch_plan_id</text>
  </g>
  <g class="relation" data-src="driver_management_driver" data-dst="dispatch_plans_dispatchplan" data-label="driver_id">
    <title>driver_management_driver to dispatch_plans_dispatchplan via driver_id</title>
    <path class="edge-hit" d="M 1041 680 L 1021 680 L 1021 690 L 713 690 L 713 504 L 639 504 L 639 494 L 601 494"/>
    <path class="edge external-edge" d="M 1041 680 L 1021 680 L 1021 690 L 713 690 L 713 504 L 639 504 L 639 494 L 601 494"/>
    <rect class="edge-label-bg" x="695.0" y="682.0" width="66" height="16" rx="4"/>
    <text class="edge-label" x="728.0" y="694.0" text-anchor="middle">driver_id</text>
  </g>
  <g class="relation" data-src="driver_management_vehicleentry" data-dst="dispatch_plans_dispatchplan" data-label="linked_vehicle_entry_id">
    <title>driver_management_vehicleentry to dispatch_plans_dispatchplan via linked_vehicle_entry_id</title>
    <path class="edge-hit" d="M 1041 944 L 1021 944 L 1021 958 L 737 958 L 737 598 L 645 598 L 645 584 L 601 584"/>
    <path class="edge external-edge" d="M 1041 944 L 1021 944 L 1021 958 L 737 958 L 737 598 L 645 598 L 645 584 L 601 584"/>
    <rect class="edge-label-bg" x="662.0" y="854.0" width="150" height="16" rx="4"/>
    <text class="edge-label" x="737.0" y="866.0" text-anchor="middle">linked_vehicle_entry_id</text>
  </g>
  <g class="relation" data-src="grpo_servicegrpolineposting" data-dst="dispatch_plans_transporterapinvoiceline" data-label="service_grpo_line_id">
    <title>grpo_servicegrpolineposting to dispatch_plans_transporterapinvoiceline via service_grpo_line_id</title>
    <path class="edge-hit" d="M 1041 1472 L 1021 1472 L 1021 1490 L 977 1490 L 977 1711 L 600 1711 L 600 1693 L 580 1693"/>
    <path class="edge external-edge" d="M 1041 1472 L 1021 1472 L 1021 1490 L 977 1490 L 977 1711 L 600 1711 L 600 1693 L 580 1693"/>
    <rect class="edge-label-bg" x="855.0" y="1703.0" width="132" height="16" rx="4"/>
    <text class="edge-label" x="921.0" y="1715.0" text-anchor="middle">service_grpo_line_id</text>
  </g>
  <g class="relation" data-src="grpo_servicegrpoposting" data-dst="dispatch_plans_transporterapinvoiceline" data-label="service_grpo_posting_id">
    <title>grpo_servicegrpoposting to dispatch_plans_transporterapinvoiceline via service_grpo_posting_id</title>
    <path class="edge-hit" d="M 1041 1773 L 1015 1773 L 1015 1795 L 1001 1795 L 1001 1813 L 606 1813 L 606 1791 L 580 1791"/>
    <path class="edge external-edge" d="M 1041 1773 L 1015 1773 L 1015 1795 L 1001 1795 L 1001 1813 L 606 1813 L 606 1791 L 580 1791"/>
    <rect class="edge-label-bg" x="744.5" y="1805.0" width="150" height="16" rx="4"/>
    <text class="edge-label" x="819.5" y="1817.0" text-anchor="middle">service_grpo_posting_id</text>
  </g>
  <g class="relation" data-src="vehicle_management_transporter" data-dst="dispatch_plans_dispatchplan" data-label="transporter_id">
    <title>vehicle_management_transporter to dispatch_plans_dispatchplan via transporter_id</title>
    <path class="edge-hit" d="M 1041 2000 L 1021 2000 L 1021 2026 L 929 2026 L 929 881 L 663 881 L 663 855 L 601 855"/>
    <path class="edge external-edge" d="M 1041 2000 L 1021 2000 L 1021 2026 L 929 2026 L 929 881 L 663 881 L 663 855 L 601 855"/>
    <rect class="edge-label-bg" x="881.0" y="1337.5" width="96" height="16" rx="4"/>
    <text class="edge-label" x="929.0" y="1349.5" text-anchor="middle">transporter_id</text>
  </g>
  <g class="relation" data-src="vehicle_management_vehicle" data-dst="dispatch_plans_dispatchplan" data-label="vehicle_id">
    <title>vehicle_management_vehicle to dispatch_plans_dispatchplan via vehicle_id</title>
    <path class="edge-hit" d="M 1041 2264 L 1021 2264 L 1021 2294 L 953 2294 L 953 976 L 669 976 L 669 946 L 601 946"/>
    <path class="edge external-edge" d="M 1041 2264 L 1021 2264 L 1021 2294 L 953 2294 L 953 976 L 669 976 L 669 946 L 601 946"/>
    <rect class="edge-label-bg" x="917.0" y="1495.0" width="72" height="16" rx="4"/>
    <text class="edge-label" x="953.0" y="1507.0" text-anchor="middle">vehicle_id</text>
  </g>
  <g id="dispatch_plans_dispatchplan" class="card" data-table="dispatch_plans_dispatchplan">
    <title>dispatch_plans_dispatchplan</title>
    <rect class="card-outline" x="230" y="132" width="371" height="904" rx="8" fill="#ffffff" stroke="#4f46e5" stroke-width="1.5"/>
    <rect x="230" y="132" width="371" height="34" rx="8" fill="#e0e7ff" stroke="#4f46e5" stroke-width="1"/>
    <rect x="230" y="158" width="371" height="8" fill="#e0e7ff"/>
    <text x="244" y="154" class="card-title" fill="#4f46e5">dispatch_plans_dispatchplan</text>
    <text x="244" y="190" class="field">PK    id : bigint</text>
    <text x="244" y="208" class="field">      created_at : datetime</text>
    <text x="244" y="226" class="field">      updated_at : datetime</text>
    <text x="244" y="244" class="field">      is_active : boolean</text>
    <text x="244" y="262" class="field">      sap_invoice_doc_entry : int</text>
    <text x="244" y="280" class="field">      sap_invoice_doc_num : varchar</text>
    <text x="244" y="298" class="field">      booking_status : varchar</text>
    <text x="244" y="316" class="field">      dispatch_date : date (nullable)</text>
    <text x="244" y="334" class="field">      priority : varchar</text>
    <text x="244" y="352" class="field">      transporter_name : varchar</text>
    <text x="244" y="370" class="field">      transporter_gstin : varchar</text>
    <text x="244" y="388" class="field">      contact_person : varchar</text>
    <text x="244" y="406" class="field">      mobile_no : varchar</text>
    <text x="244" y="424" class="field">      vehicle_no : varchar</text>
    <text x="244" y="442" class="field">      bilty_no : varchar</text>
    <text x="244" y="460" class="field">      bilty_date : date (nullable)</text>
    <text x="244" y="478" class="field">      freight : decimal (nullable)</text>
    <text x="244" y="496" class="field">      total_freight : decimal (nullable)</text>
    <text x="244" y="514" class="field">      kanta_weight : decimal (nullable)</text>
    <text x="244" y="532" class="field">      remarks : text</text>
    <text x="244" y="550" class="field">FK    company_id : bigint</text>
    <text x="244" y="568" class="field">FK    created_by_id : bigint (nullable)</text>
    <text x="244" y="586" class="field">FK    updated_by_id : bigint (nullable)</text>
    <text x="244" y="604" class="field">FK    linked_vehicle_entry_id : bigint (nullable)</text>
    <text x="244" y="622" class="field">FK    transporter_id : bigint (nullable)</text>
    <text x="244" y="640" class="field">FK    vehicle_id : bigint (nullable)</text>
    <text x="244" y="658" class="field">FK    driver_id : bigint (nullable)</text>
    <text x="244" y="676" class="field">      driver_id_proof_number : varchar</text>
    <text x="244" y="694" class="field">      driver_id_proof_type : varchar</text>
    <text x="244" y="712" class="field">      driver_license_no : varchar</text>
    <text x="244" y="730" class="field">      driver_mobile_no : varchar</text>
    <text x="244" y="748" class="field">      driver_name : varchar</text>
    <text x="244" y="766" class="field">      bilty_attachment : varchar (nullable)</text>
    <text x="244" y="784" class="field">      bilty_attachment_name : varchar</text>
    <text x="244" y="802" class="field">      eway_bill : varchar</text>
    <text x="244" y="820" class="field">      invoice_amount : decimal (nullable)</text>
    <text x="244" y="838" class="field">      invoice_number : varchar</text>
    <text x="244" y="856" class="field">      invoice_weight : decimal (nullable)</text>
    <text x="244" y="874" class="field">      place_of_supply : varchar</text>
    <text x="244" y="892" class="field">      budget_delivery_point : varchar</text>
    <text x="244" y="910" class="field">      effective_month : date (nullable)</text>
    <text x="244" y="928" class="field">      product_variety : varchar</text>
    <text x="244" y="946" class="field">      sac_code : varchar</text>
    <text x="244" y="964" class="field">      sac_entry : int (nullable)</text>
    <text x="244" y="982" class="field">      service_location_code : int (nullable)</text>
    <text x="244" y="1000" class="field">      service_location_name : varchar</text>
    <text x="244" y="1018" class="field">      total_litres : decimal (nullable)</text>
  </g>
  <g id="dispatch_plans_transporterapinvoiceposting" class="card" data-table="dispatch_plans_transporterapinvoiceposting">
    <title>dispatch_plans_transporterapinvoiceposting</title>
    <rect class="card-outline" x="230" y="1080" width="350" height="472" rx="8" fill="#ffffff" stroke="#4f46e5" stroke-width="1.5"/>
    <rect x="230" y="1080" width="350" height="34" rx="8" fill="#e0e7ff" stroke="#4f46e5" stroke-width="1"/>
    <rect x="230" y="1106" width="350" height="8" fill="#e0e7ff"/>
    <text x="244" y="1102" class="card-title" fill="#4f46e5">dispatch_plans_transporterapinvoiceposting</text>
    <text x="244" y="1138" class="field">PK    id : bigint</text>
    <text x="244" y="1156" class="field">      created_at : datetime</text>
    <text x="244" y="1174" class="field">      updated_at : datetime</text>
    <text x="244" y="1192" class="field">      is_active : boolean</text>
    <text x="244" y="1210" class="field">      vendor_code : varchar</text>
    <text x="244" y="1228" class="field">      vendor_name : varchar</text>
    <text x="244" y="1246" class="field">      invoice_number : varchar</text>
    <text x="244" y="1264" class="field">      invoice_date : date (nullable)</text>
    <text x="244" y="1282" class="field">      invoice_amount : decimal</text>
    <text x="244" y="1300" class="field">      selected_grpo_total : decimal (nullable)</text>
    <text x="244" y="1318" class="field">      amount_difference : decimal (nullable)</text>
    <text x="244" y="1336" class="field">      branch_id : int</text>
    <text x="244" y="1354" class="field">      sap_doc_entry : int (nullable)</text>
    <text x="244" y="1372" class="field">      sap_doc_num : int (nullable)</text>
    <text x="244" y="1390" class="field">      sap_doc_total : decimal (nullable)</text>
    <text x="244" y="1408" class="field">      status : varchar</text>
    <text x="244" y="1426" class="field">      error_message : text (nullable)</text>
    <text x="244" y="1444" class="field">      posted_at : datetime (nullable)</text>
    <text x="244" y="1462" class="field">      comments : text</text>
    <text x="244" y="1480" class="field">FK    company_id : bigint</text>
    <text x="244" y="1498" class="field">FK    created_by_id : bigint (nullable)</text>
    <text x="244" y="1516" class="field">FK    posted_by_id : bigint (nullable)</text>
    <text x="244" y="1534" class="field">FK    updated_by_id : bigint (nullable)</text>
  </g>
  <g id="dispatch_plans_transporterapinvoiceline" class="card" data-table="dispatch_plans_transporterapinvoiceline">
    <title>dispatch_plans_transporterapinvoiceline</title>
    <rect class="card-outline" x="230" y="1596" width="350" height="292" rx="8" fill="#ffffff" stroke="#4f46e5" stroke-width="1.5"/>
    <rect x="230" y="1596" width="350" height="34" rx="8" fill="#e0e7ff" stroke="#4f46e5" stroke-width="1"/>
    <rect x="230" y="1622" width="350" height="8" fill="#e0e7ff"/>
    <text x="244" y="1618" class="card-title" fill="#4f46e5">dispatch_plans_transporterapinvoiceline</text>
    <text x="244" y="1654" class="field">PK    id : bigint</text>
    <text x="244" y="1672" class="field">      base_entry : int</text>
    <text x="244" y="1690" class="field">      base_line : int</text>
    <text x="244" y="1708" class="field">      base_doc_num : int (nullable)</text>
    <text x="244" y="1726" class="field">      bilty_no : varchar</text>
    <text x="244" y="1744" class="field">      service_description : varchar</text>
    <text x="244" y="1762" class="field">      line_total : decimal</text>
    <text x="244" y="1780" class="field">      tax_code : varchar</text>
    <text x="244" y="1798" class="field">      gl_account : varchar</text>
    <text x="244" y="1816" class="field">FK    dispatch_plan_id : bigint</text>
    <text x="244" y="1834" class="field">FK    service_grpo_line_id : bigint (nullable)</text>
    <text x="244" y="1852" class="field">FK    service_grpo_posting_id : bigint</text>
    <text x="244" y="1870" class="field">FK    transporter_ap_invoice_id : bigint</text>
  </g>
  <g id="dispatch_plans_transporterapinvoiceattachment" class="card" data-table="dispatch_plans_transporterapinvoiceattachment">
    <title>dispatch_plans_transporterapinvoiceattachment</title>
    <rect class="card-outline" x="230" y="1932" width="343" height="220" rx="8" fill="#ffffff" stroke="#4f46e5" stroke-width="1.5"/>
    <rect x="230" y="1932" width="343" height="34" rx="8" fill="#e0e7ff" stroke="#4f46e5" stroke-width="1"/>
    <rect x="230" y="1958" width="343" height="8" fill="#e0e7ff"/>
    <text x="244" y="1954" class="card-title" fill="#4f46e5">dispatch_plans_transporterapinvoiceattachment</text>
    <text x="244" y="1990" class="field">PK    id : bigint</text>
    <text x="244" y="2008" class="field">      file : varchar</text>
    <text x="244" y="2026" class="field">      original_filename : varchar</text>
    <text x="244" y="2044" class="field">      sap_attachment_status : varchar</text>
    <text x="244" y="2062" class="field">      sap_absolute_entry : int (nullable)</text>
    <text x="244" y="2080" class="field">      sap_error_message : text (nullable)</text>
    <text x="244" y="2098" class="field">      uploaded_at : datetime</text>
    <text x="244" y="2116" class="field">FK    uploaded_by_id : bigint (nullable)</text>
    <text x="244" y="2134" class="field">FK    transporter_ap_invoice_id : bigint</text>
  </g>
  <g id="accounts_user" class="card" data-table="accounts_user">
    <title>accounts_user</title>
    <rect class="card-outline" x="1041" y="132" width="294" height="220" rx="8" fill="#ffffff" stroke="#94a3b8" stroke-width="1.5"/>
    <rect x="1041" y="132" width="294" height="34" rx="8" fill="#e2e8f0" stroke="#94a3b8" stroke-width="1"/>
    <rect x="1041" y="158" width="294" height="8" fill="#e2e8f0"/>
    <text x="1055" y="154" class="card-title" fill="#94a3b8">accounts_user</text>
    <text x="1321" y="154" class="meta" text-anchor="end">accounts</text>
    <text x="1055" y="190" class="field">PK    id : bigint</text>
    <text x="1055" y="208" class="field">      password : varchar</text>
    <text x="1055" y="226" class="field">      last_login : datetime (nullable)</text>
    <text x="1055" y="244" class="field">      is_superuser : boolean</text>
    <text x="1055" y="262" class="field">UK    email : varchar</text>
    <text x="1055" y="280" class="field">      full_name : varchar</text>
    <text x="1055" y="298" class="field">UK    employee_code : varchar</text>
    <text x="1055" y="316" class="field">      is_active : boolean</text>
    <text x="1055" y="334" class="field">... 2 more fields</text>
  </g>
  <g id="company_company" class="card" data-table="company_company">
    <title>company_company</title>
    <rect class="card-outline" x="1041" y="396" width="260" height="130" rx="8" fill="#ffffff" stroke="#94a3b8" stroke-width="1.5"/>
    <rect x="1041" y="396" width="260" height="34" rx="8" fill="#e2e8f0" stroke="#94a3b8" stroke-width="1"/>
    <rect x="1041" y="422" width="260" height="8" fill="#e2e8f0"/>
    <text x="1055" y="418" class="card-title" fill="#94a3b8">company_company</text>
    <text x="1287" y="418" class="meta" text-anchor="end">company</text>
    <text x="1055" y="454" class="field">PK    id : int</text>
    <text x="1055" y="472" class="field">      name : varchar</text>
    <text x="1055" y="490" class="field">UK    code : varchar</text>
    <text x="1055" y="508" class="field">      is_active : boolean</text>
  </g>
  <g id="driver_management_driver" class="card" data-table="driver_management_driver">
    <title>driver_management_driver</title>
    <rect class="card-outline" x="1041" y="570" width="260" height="220" rx="8" fill="#ffffff" stroke="#94a3b8" stroke-width="1.5"/>
    <rect x="1041" y="570" width="260" height="34" rx="8" fill="#e2e8f0" stroke="#94a3b8" stroke-width="1"/>
    <rect x="1041" y="596" width="260" height="8" fill="#e2e8f0"/>
    <text x="1055" y="592" class="card-title" fill="#94a3b8">driver_management_driver</text>
    <text x="1287" y="592" class="meta" text-anchor="end">driver_management</text>
    <text x="1055" y="628" class="field">PK    id : int</text>
    <text x="1055" y="646" class="field">      created_at : datetime</text>
    <text x="1055" y="664" class="field">      updated_at : datetime</text>
    <text x="1055" y="682" class="field">      is_active : boolean</text>
    <text x="1055" y="700" class="field">      name : varchar</text>
    <text x="1055" y="718" class="field">      mobile_no : varchar</text>
    <text x="1055" y="736" class="field">UK    license_no : varchar</text>
    <text x="1055" y="754" class="field">      id_proof_type : varchar</text>
    <text x="1055" y="772" class="field">... 4 more fields</text>
  </g>
  <g id="driver_management_vehicleentry" class="card" data-table="driver_management_vehicleentry">
    <title>driver_management_vehicleentry</title>
    <rect class="card-outline" x="1041" y="834" width="260" height="220" rx="8" fill="#ffffff" stroke="#94a3b8" stroke-width="1.5"/>
    <rect x="1041" y="834" width="260" height="34" rx="8" fill="#e2e8f0" stroke="#94a3b8" stroke-width="1"/>
    <rect x="1041" y="860" width="260" height="8" fill="#e2e8f0"/>
    <text x="1055" y="856" class="card-title" fill="#94a3b8">driver_management_vehicleentry</text>
    <text x="1287" y="856" class="meta" text-anchor="end">driver_management</text>
    <text x="1055" y="892" class="field">PK    id : int</text>
    <text x="1055" y="910" class="field">      created_at : datetime</text>
    <text x="1055" y="928" class="field">      updated_at : datetime</text>
    <text x="1055" y="946" class="field">      is_active : boolean</text>
    <text x="1055" y="964" class="field">UK    entry_no : varchar</text>
    <text x="1055" y="982" class="field">      status : varchar</text>
    <text x="1055" y="1000" class="field">      is_locked : boolean</text>
    <text x="1055" y="1018" class="field">      entry_time : datetime</text>
    <text x="1055" y="1036" class="field">... 7 more fields</text>
  </g>
  <g id="gate_core_dispatchgateout" class="card" data-table="gate_core_dispatchgateout">
    <title>gate_core_dispatchgateout</title>
    <rect class="card-outline" x="1041" y="1098" width="273" height="220" rx="8" fill="#ffffff" stroke="#94a3b8" stroke-width="1.5"/>
    <rect x="1041" y="1098" width="273" height="34" rx="8" fill="#e2e8f0" stroke="#94a3b8" stroke-width="1"/>
    <rect x="1041" y="1124" width="273" height="8" fill="#e2e8f0"/>
    <text x="1055" y="1120" class="card-title" fill="#94a3b8">gate_core_dispatchgateout</text>
    <text x="1300" y="1120" class="meta" text-anchor="end">gate_core</text>
    <text x="1055" y="1156" class="field">PK    id : bigint</text>
    <text x="1055" y="1174" class="field">      created_at : datetime</text>
    <text x="1055" y="1192" class="field">      updated_at : datetime</text>
    <text x="1055" y="1210" class="field">      is_active : boolean</text>
    <text x="1055" y="1228" class="field">UK    entry_no : varchar</text>
    <text x="1055" y="1246" class="field">      sap_invoice_doc_entry : int</text>
    <text x="1055" y="1264" class="field">      sap_invoice_doc_num : varchar</text>
    <text x="1055" y="1282" class="field">      customer_code : varchar</text>
    <text x="1055" y="1300" class="field">... 44 more fields</text>
  </g>
  <g id="grpo_servicegrpolineposting" class="card" data-table="grpo_servicegrpolineposting">
    <title>grpo_servicegrpolineposting</title>
    <rect class="card-outline" x="1041" y="1362" width="294" height="220" rx="8" fill="#ffffff" stroke="#94a3b8" stroke-width="1.5"/>
    <rect x="1041" y="1362" width="294" height="34" rx="8" fill="#e2e8f0" stroke="#94a3b8" stroke-width="1"/>
    <rect x="1041" y="1388" width="294" height="8" fill="#e2e8f0"/>
    <text x="1055" y="1384" class="card-title" fill="#94a3b8">grpo_servicegrpolineposting</text>
    <text x="1321" y="1384" class="meta" text-anchor="end">grpo</text>
    <text x="1055" y="1420" class="field">PK    id : bigint</text>
    <text x="1055" y="1438" class="field">      service_description : varchar</text>
    <text x="1055" y="1456" class="field">      amount : decimal</text>
    <text x="1055" y="1474" class="field">      tax_code : varchar</text>
    <text x="1055" y="1492" class="field">      gl_account : varchar</text>
    <text x="1055" y="1510" class="field">FK    service_grpo_posting_id : bigint</text>
    <text x="1055" y="1528" class="field">      location_code : int (nullable)</text>
    <text x="1055" y="1546" class="field">      location_name : varchar</text>
    <text x="1055" y="1564" class="field">... 6 more fields</text>
  </g>
  <g id="grpo_servicegrpoposting" class="card" data-table="grpo_servicegrpoposting">
    <title>grpo_servicegrpoposting</title>
    <rect class="card-outline" x="1041" y="1626" width="308" height="220" rx="8" fill="#ffffff" stroke="#94a3b8" stroke-width="1.5"/>
    <rect x="1041" y="1626" width="308" height="34" rx="8" fill="#e2e8f0" stroke="#94a3b8" stroke-width="1"/>
    <rect x="1041" y="1652" width="308" height="8" fill="#e2e8f0"/>
    <text x="1055" y="1648" class="card-title" fill="#94a3b8">grpo_servicegrpoposting</text>
    <text x="1335" y="1648" class="meta" text-anchor="end">grpo</text>
    <text x="1055" y="1684" class="field">PK    id : bigint</text>
    <text x="1055" y="1702" class="field">      vendor_code : varchar</text>
    <text x="1055" y="1720" class="field">      vendor_name : varchar</text>
    <text x="1055" y="1738" class="field">      sap_doc_entry : int (nullable)</text>
    <text x="1055" y="1756" class="field">      sap_doc_num : int (nullable)</text>
    <text x="1055" y="1774" class="field">      sap_doc_total : decimal (nullable)</text>
    <text x="1055" y="1792" class="field">      status : varchar</text>
    <text x="1055" y="1810" class="field">      error_message : text (nullable)</text>
    <text x="1055" y="1828" class="field">... 14 more fields</text>
  </g>
  <g id="vehicle_management_transporter" class="card" data-table="vehicle_management_transporter">
    <title>vehicle_management_transporter</title>
    <rect class="card-outline" x="1041" y="1890" width="280" height="220" rx="8" fill="#ffffff" stroke="#94a3b8" stroke-width="1.5"/>
    <rect x="1041" y="1890" width="280" height="34" rx="8" fill="#e2e8f0" stroke="#94a3b8" stroke-width="1"/>
    <rect x="1041" y="1916" width="280" height="8" fill="#e2e8f0"/>
    <text x="1055" y="1912" class="card-title" fill="#94a3b8">vehicle_management_transporter</text>
    <text x="1307" y="1912" class="meta" text-anchor="end">vehicle_management</text>
    <text x="1055" y="1948" class="field">PK    id : int</text>
    <text x="1055" y="1966" class="field">      created_at : datetime</text>
    <text x="1055" y="1984" class="field">      updated_at : datetime</text>
    <text x="1055" y="2002" class="field">      is_active : boolean</text>
    <text x="1055" y="2020" class="field">UK    name : varchar</text>
    <text x="1055" y="2038" class="field">      contact_person : varchar</text>
    <text x="1055" y="2056" class="field">      mobile_no : varchar</text>
    <text x="1055" y="2074" class="field">      created_by_id : int (nullable)</text>
    <text x="1055" y="2092" class="field">... 2 more fields</text>
  </g>
  <g id="vehicle_management_vehicle" class="card" data-table="vehicle_management_vehicle">
    <title>vehicle_management_vehicle</title>
    <rect class="card-outline" x="1041" y="2154" width="301" height="220" rx="8" fill="#ffffff" stroke="#94a3b8" stroke-width="1.5"/>
    <rect x="1041" y="2154" width="301" height="34" rx="8" fill="#e2e8f0" stroke="#94a3b8" stroke-width="1"/>
    <rect x="1041" y="2180" width="301" height="8" fill="#e2e8f0"/>
    <text x="1055" y="2176" class="card-title" fill="#94a3b8">vehicle_management_vehicle</text>
    <text x="1328" y="2176" class="meta" text-anchor="end">vehicle_management</text>
    <text x="1055" y="2212" class="field">PK    id : int</text>
    <text x="1055" y="2230" class="field">      created_at : datetime</text>
    <text x="1055" y="2248" class="field">      updated_at : datetime</text>
    <text x="1055" y="2266" class="field">      is_active : boolean</text>
    <text x="1055" y="2284" class="field">UK    vehicle_number : varchar</text>
    <text x="1055" y="2302" class="field">FK    vehicle_type_id : int (nullable)</text>
    <text x="1055" y="2320" class="field">      capacity_ton : decimal (nullable)</text>
    <text x="1055" y="2338" class="field">      created_by_id : int (nullable)</text>
    <text x="1055" y="2356" class="field">... 2 more fields</text>
  </g>

  <script><![CDATA[
    (function () {
      const svg = document.currentScript.ownerSVGElement;
      if (!svg || svg.dataset.erInteractive === "1") return;
      svg.dataset.erInteractive = "1";
      const relations = Array.from(svg.querySelectorAll(".relation"));
      const cards = Array.from(svg.querySelectorAll(".card"));

      function clear() {
        relations.forEach((relation) => relation.classList.remove("active"));
        cards.forEach((card) => card.classList.remove("active-card"));
      }

      function highlight(relation) {
        const src = relation.dataset.src;
        const dst = relation.dataset.dst;
        relations.forEach((item) => {
          item.classList.toggle("active", item === relation);
        });
        cards.forEach((card) => {
          const connected = card.dataset.table === src || card.dataset.table === dst;
          card.classList.toggle("active-card", connected);
        });
      }

      relations.forEach((relation) => {
        relation.addEventListener("click", (event) => {
          event.stopPropagation();
          highlight(relation);
        });
      });
      svg.addEventListener("click", clear);
    })();
  ]]></script>

</svg>
