<svg xmlns="http://www.w3.org/2000/svg" width="1354" height="2280" viewBox="0 0 1354 2280">

  <defs>
    <marker id="arrow" viewBox="0 0 10 10" refX="9" refY="5" markerWidth="7" markerHeight="7" orient="auto-start-reverse">
      <path d="M 0 0 L 10 5 L 0 10 z" fill="#64748b"/>
    </marker>
    <marker id="arrow-active" viewBox="0 0 10 10" refX="9" refY="5" markerWidth="8" markerHeight="8" orient="auto-start-reverse">
      <path d="M 0 0 L 10 5 L 0 10 z" fill="#ef4444"/>
    </marker>
  </defs>

  <style>
    .page-title { font: 700 28px "Segoe UI", Arial, sans-serif; fill: #0f172a; }
    .subtitle { font: 400 13px "Segoe UI", Arial, sans-serif; fill: #475569; }
    .card-title { font: 700 15px "Segoe UI", Arial, sans-serif; }
    .field { font: 12px Consolas, "Liberation Mono", monospace; fill: #1f2937; }
    .meta { font: 12px "Segoe UI", Arial, sans-serif; fill: #64748b; }
    .section { font: 700 14px "Segoe UI", Arial, sans-serif; fill: #334155; }
    .card { transition: opacity .12s ease; }
    .card-outline { transition: stroke .12s ease, stroke-width .12s ease; }
    .card.active-card .card-outline { stroke: #ef4444; stroke-width: 4; }
    .relation { cursor: pointer; }
    .overview-app { cursor: pointer; }
    .overview-app:hover .overview-outline { stroke-width: 4; }
    .edge-hit { stroke: transparent; stroke-width: 18; fill: none; pointer-events: stroke; }
    .edge { stroke: #64748b; stroke-width: 1.8; fill: none; marker-end: url(#arrow); opacity: .62; }
    .external-edge { stroke: #475569; opacity: .58; }
    .relation.active .edge { stroke: #ef4444; stroke-width: 4; marker-end: url(#arrow-active); opacity: 1; }
    .relation.active .edge-label-bg { stroke: #ef4444; stroke-width: 1.5; opacity: 1; }
    .relation.active .edge-label { fill: #b91c1c; font-weight: 700; }
    .edge-label-bg { fill: #ffffff; stroke: #e2e8f0; stroke-width: 1; opacity: .9; }
    .edge-label { font: 10px "Segoe UI", Arial, sans-serif; fill: #475569; }
  </style>
  <rect width="100%" height="100%" fill="#f8fafc"/>
  <text x="60" y="54" class="page-title">Outbound Dispatch ER Slice</text>
  <text x="60" y="80" class="subtitle">5 local tables, 2 linked external tables, 4 local relationships, 2 external relationships</text>
  <text x="1034" y="112" class="section">Linked external tables</text>
  <g class="relation" data-src="outbound_dispatch_shipmentorder" data-dst="outbound_dispatch_goodsissueposting" data-label="shipment_order_id">
    <title>outbound_dispatch_shipmentorder to outbound_dispatch_goodsissueposting via shipment_order_id</title>
    <path class="edge-hit" d="M 230 377 L 204 377 L 204 371 L 160 371 L 160 1259 L 210 1259 L 210 1265 L 230 1265"/>
    <path class="edge" d="M 230 377 L 204 377 L 204 371 L 160 371 L 160 1259 L 210 1259 L 210 1265 L 230 1265"/>
    <rect class="edge-label-bg" x="103.0" y="807.0" width="114" height="16" rx="4"/>
    <text class="edge-label" x="160.0" y="819.0" text-anchor="middle">shipment_order_id</text>
  </g>
  <g class="relation" data-src="outbound_dispatch_shipmentorder" data-dst="outbound_dispatch_outboundloadrecord" data-label="shipment_order_id">
    <title>outbound_dispatch_shipmentorder to outbound_dispatch_outboundloadrecord via shipment_order_id</title>
    <path class="edge-hit" d="M 230 500 L 198 500 L 198 498 L 130 498 L 130 1653 L 210 1653 L 210 1655 L 230 1655"/>
    <path class="edge" d="M 230 500 L 198 500 L 198 498 L 130 498 L 130 1653 L 210 1653 L 210 1655 L 230 1655"/>
    <rect class="edge-label-bg" x="73.0" y="1067.5" width="114" height="16" rx="4"/>
    <text class="edge-label" x="130.0" y="1079.5" text-anchor="middle">shipment_order_id</text>
  </g>
  <g class="relation" data-src="outbound_dispatch_shipmentorder" data-dst="outbound_dispatch_shipmentorderitem" data-label="shipment_order_id">
    <title>outbound_dispatch_shipmentorder to outbound_dispatch_shipmentorderitem via shipment_order_id</title>
    <path class="edge-hit" d="M 230 254 L 210 254 L 210 256 L 190 256 L 190 801 L 210 801 L 210 799 L 230 799"/>
    <path class="edge" d="M 230 254 L 210 254 L 210 256 L 190 256 L 190 801 L 210 801 L 210 799 L 230 799"/>
    <rect class="edge-label-bg" x="133.0" y="520.5" width="114" height="16" rx="4"/>
    <text class="edge-label" x="190.0" y="532.5" text-anchor="middle">shipment_order_id</text>
  </g>
  <g class="relation" data-src="outbound_dispatch_shipmentorderitem" data-dst="outbound_dispatch_picktask" data-label="shipment_item_id">
    <title>outbound_dispatch_shipmentorderitem to outbound_dispatch_picktask via shipment_item_id</title>
    <path class="edge-hit" d="M 230 933 L 204 933 L 204 939 L 100 939 L 100 2051 L 210 2051 L 210 2045 L 230 2045"/>
    <path class="edge" d="M 230 933 L 204 933 L 204 939 L 100 939 L 100 2051 L 210 2051 L 210 2045 L 230 2045"/>
    <rect class="edge-label-bg" x="46.0" y="1487.0" width="108" height="16" rx="4"/>
    <text class="edge-label" x="100.0" y="1499.0" text-anchor="middle">shipment_item_id</text>
  </g>
  <g class="relation" data-src="company_company" data-dst="outbound_dispatch_shipmentorder" data-label="company_id">
    <title>company_company to outbound_dispatch_shipmentorder via company_id</title>
    <path class="edge-hit" d="M 1034 197 L 1014 197 L 1014 195 L 634 195 L 634 293 L 579 293 L 579 295 L 559 295"/>
    <path class="edge external-edge" d="M 1034 197 L 1014 197 L 1014 195 L 634 195 L 634 293 L 579 293 L 579 295 L 559 295"/>
    <rect class="edge-label-bg" x="711.5" y="187.0" width="72" height="16" rx="4"/>
    <text class="edge-label" x="747.5" y="199.0" text-anchor="middle">company_id</text>
  </g>
  <g class="relation" data-src="driver_management_vehicleentry" data-dst="outbound_dispatch_shipmentorder" data-label="vehicle_entry_id">
    <title>driver_management_vehicleentry to outbound_dispatch_shipmentorder via vehicle_entry_id</title>
    <path class="edge-hit" d="M 1034 416 L 1014 416 L 1014 418 L 994 418 L 994 461 L 585 461 L 585 459 L 559 459"/>
    <path class="edge external-edge" d="M 1034 416 L 1014 416 L 1014 418 L 994 418 L 994 461 L 585 461 L 585 459 L 559 459"/>
    <rect class="edge-label-bg" x="764.0" y="453.0" width="108" height="16" rx="4"/>
    <text class="edge-label" x="818.0" y="465.0" text-anchor="middle">vehicle_entry_id</text>
  </g>
  <g id="outbound_dispatch_shipmentorder" class="card" data-table="outbound_dispatch_shipmentorder">
    <title>outbound_dispatch_shipmentorder</title>
    <rect class="card-outline" x="230" y="132" width="329" height="490" rx="8" fill="#ffffff" stroke="#be123c" stroke-width="1.5"/>
    <rect x="230" y="132" width="329" height="34" rx="8" fill="#ffe4e6" stroke="#be123c" stroke-width="1"/>
    <rect x="230" y="158" width="329" height="8" fill="#ffe4e6"/>
    <text x="244" y="154" class="card-title" fill="#be123c">outbound_dispatch_shipmentorder</text>
    <text x="244" y="190" class="field">PK    id : bigint</text>
    <text x="244" y="208" class="field">      created_at : datetime</text>
    <text x="244" y="226" class="field">      updated_at : datetime</text>
    <text x="244" y="244" class="field">      is_active : boolean</text>
    <text x="244" y="262" class="field">      sap_doc_entry : int</text>
    <text x="244" y="280" class="field">      sap_doc_num : int</text>
    <text x="244" y="298" class="field">      customer_code : varchar</text>
    <text x="244" y="316" class="field">      customer_name : varchar</text>
    <text x="244" y="334" class="field">      ship_to_address : text</text>
    <text x="244" y="352" class="field">      carrier_code : varchar</text>
    <text x="244" y="370" class="field">      carrier_name : varchar</text>
    <text x="244" y="388" class="field">      scheduled_date : date</text>
    <text x="244" y="406" class="field">      dock_bay : varchar</text>
    <text x="244" y="424" class="field">      dock_slot_start : datetime (nullable)</text>
    <text x="244" y="442" class="field">      dock_slot_end : datetime (nullable)</text>
    <text x="244" y="460" class="field">      status : varchar</text>
    <text x="244" y="478" class="field">      bill_of_lading_no : varchar</text>
    <text x="244" y="496" class="field">      seal_number : varchar</text>
    <text x="244" y="514" class="field">      total_weight : decimal (nullable)</text>
    <text x="244" y="532" class="field">      notes : text</text>
    <text x="244" y="550" class="field">FK    company_id : bigint</text>
    <text x="244" y="568" class="field">      created_by_id : bigint (nullable)</text>
    <text x="244" y="586" class="field">      updated_by_id : bigint (nullable)</text>
    <text x="244" y="604" class="field">FK    vehicle_entry_id : bigint (nullable)</text>
  </g>
  <g id="outbound_dispatch_shipmentorderitem" class="card" data-table="outbound_dispatch_shipmentorderitem">
    <title>outbound_dispatch_shipmentorderitem</title>
    <rect class="card-outline" x="230" y="666" width="320" height="400" rx="8" fill="#ffffff" stroke="#be123c" stroke-width="1.5"/>
    <rect x="230" y="666" width="320" height="34" rx="8" fill="#ffe4e6" stroke="#be123c" stroke-width="1"/>
    <rect x="230" y="692" width="320" height="8" fill="#ffe4e6"/>
    <text x="244" y="688" class="card-title" fill="#be123c">outbound_dispatch_shipmentorderitem</text>
    <text x="244" y="724" class="field">PK    id : bigint</text>
    <text x="244" y="742" class="field">      created_at : datetime</text>
    <text x="244" y="760" class="field">      updated_at : datetime</text>
    <text x="244" y="778" class="field">      is_active : boolean</text>
    <text x="244" y="796" class="field">      sap_line_num : int</text>
    <text x="244" y="814" class="field">      item_code : varchar</text>
    <text x="244" y="832" class="field">      item_name : varchar</text>
    <text x="244" y="850" class="field">      ordered_qty : decimal</text>
    <text x="244" y="868" class="field">      picked_qty : decimal</text>
    <text x="244" y="886" class="field">      packed_qty : decimal</text>
    <text x="244" y="904" class="field">      loaded_qty : decimal</text>
    <text x="244" y="922" class="field">      uom : varchar</text>
    <text x="244" y="940" class="field">      warehouse_code : varchar</text>
    <text x="244" y="958" class="field">      batch_number : varchar</text>
    <text x="244" y="976" class="field">      weight : decimal (nullable)</text>
    <text x="244" y="994" class="field">      pick_status : varchar</text>
    <text x="244" y="1012" class="field">      created_by_id : bigint (nullable)</text>
    <text x="244" y="1030" class="field">FK    shipment_order_id : bigint</text>
    <text x="244" y="1048" class="field">      updated_by_id : bigint (nullable)</text>
  </g>
  <g id="outbound_dispatch_goodsissueposting" class="card" data-table="outbound_dispatch_goodsissueposting">
    <title>outbound_dispatch_goodsissueposting</title>
    <rect class="card-outline" x="230" y="1110" width="320" height="310" rx="8" fill="#ffffff" stroke="#be123c" stroke-width="1.5"/>
    <rect x="230" y="1110" width="320" height="34" rx="8" fill="#ffe4e6" stroke="#be123c" stroke-width="1"/>
    <rect x="230" y="1136" width="320" height="8" fill="#ffe4e6"/>
    <text x="244" y="1132" class="card-title" fill="#be123c">outbound_dispatch_goodsissueposting</text>
    <text x="244" y="1168" class="field">PK    id : bigint</text>
    <text x="244" y="1186" class="field">      created_at : datetime</text>
    <text x="244" y="1204" class="field">      updated_at : datetime</text>
    <text x="244" y="1222" class="field">      is_active : boolean</text>
    <text x="244" y="1240" class="field">      sap_doc_entry : int (nullable)</text>
    <text x="244" y="1258" class="field">      sap_doc_num : int (nullable)</text>
    <text x="244" y="1276" class="field">      status : varchar</text>
    <text x="244" y="1294" class="field">      posted_at : datetime (nullable)</text>
    <text x="244" y="1312" class="field">      error_message : text</text>
    <text x="244" y="1330" class="field">      retry_count : int</text>
    <text x="244" y="1348" class="field">      created_by_id : bigint (nullable)</text>
    <text x="244" y="1366" class="field">      posted_by_id : bigint (nullable)</text>
    <text x="244" y="1384" class="field">      updated_by_id : bigint (nullable)</text>
    <text x="244" y="1402" class="field">FK/UK shipment_order_id : bigint</text>
  </g>
  <g id="outbound_dispatch_outboundloadrecord" class="card" data-table="outbound_dispatch_outboundloadrecord">
    <title>outbound_dispatch_outboundloadrecord</title>
    <rect class="card-outline" x="230" y="1464" width="364" height="382" rx="8" fill="#ffffff" stroke="#be123c" stroke-width="1.5"/>
    <rect x="230" y="1464" width="364" height="34" rx="8" fill="#ffe4e6" stroke="#be123c" stroke-width="1"/>
    <rect x="230" y="1490" width="364" height="8" fill="#ffe4e6"/>
    <text x="244" y="1486" class="card-title" fill="#be123c">outbound_dispatch_outboundloadrecord</text>
    <text x="244" y="1522" class="field">PK    id : bigint</text>
    <text x="244" y="1540" class="field">      created_at : datetime</text>
    <text x="244" y="1558" class="field">      updated_at : datetime</text>
    <text x="244" y="1576" class="field">      is_active : boolean</text>
    <text x="244" y="1594" class="field">      trailer_condition : varchar</text>
    <text x="244" y="1612" class="field">      trailer_temp_ok : boolean (nullable)</text>
    <text x="244" y="1630" class="field">      trailer_temp_reading : decimal (nullable)</text>
    <text x="244" y="1648" class="field">      inspected_at : datetime (nullable)</text>
    <text x="244" y="1666" class="field">      loading_started_at : datetime (nullable)</text>
    <text x="244" y="1684" class="field">      loading_completed_at : datetime (nullable)</text>
    <text x="244" y="1702" class="field">      supervisor_confirmed : boolean</text>
    <text x="244" y="1720" class="field">      confirmed_at : datetime (nullable)</text>
    <text x="244" y="1738" class="field">      created_by_id : bigint (nullable)</text>
    <text x="244" y="1756" class="field">      inspected_by_id : bigint (nullable)</text>
    <text x="244" y="1774" class="field">      loaded_by_id : bigint (nullable)</text>
    <text x="244" y="1792" class="field">      supervisor_id : bigint (nullable)</text>
    <text x="244" y="1810" class="field">      updated_by_id : bigint (nullable)</text>
    <text x="244" y="1828" class="field">FK/UK shipment_order_id : bigint</text>
  </g>
  <g id="outbound_dispatch_picktask" class="card" data-table="outbound_dispatch_picktask">
    <title>outbound_dispatch_picktask</title>
    <rect class="card-outline" x="230" y="1890" width="320" height="310" rx="8" fill="#ffffff" stroke="#be123c" stroke-width="1.5"/>
    <rect x="230" y="1890" width="320" height="34" rx="8" fill="#ffe4e6" stroke="#be123c" stroke-width="1"/>
    <rect x="230" y="1916" width="320" height="8" fill="#ffe4e6"/>
    <text x="244" y="1912" class="card-title" fill="#be123c">outbound_dispatch_picktask</text>
    <text x="244" y="1948" class="field">PK    id : bigint</text>
    <text x="244" y="1966" class="field">      created_at : datetime</text>
    <text x="244" y="1984" class="field">      updated_at : datetime</text>
    <text x="244" y="2002" class="field">      is_active : boolean</text>
    <text x="244" y="2020" class="field">      pick_location : varchar</text>
    <text x="244" y="2038" class="field">      pick_qty : decimal</text>
    <text x="244" y="2056" class="field">      actual_qty : decimal (nullable)</text>
    <text x="244" y="2074" class="field">      status : varchar</text>
    <text x="244" y="2092" class="field">      picked_at : datetime (nullable)</text>
    <text x="244" y="2110" class="field">      scanned_barcode : varchar</text>
    <text x="244" y="2128" class="field">      assigned_to_id : bigint (nullable)</text>
    <text x="244" y="2146" class="field">      created_by_id : bigint (nullable)</text>
    <text x="244" y="2164" class="field">      updated_by_id : bigint (nullable)</text>
    <text x="244" y="2182" class="field">FK    shipment_item_id : bigint</text>
  </g>
  <g id="company_company" class="card" data-table="company_company">
    <title>company_company</title>
    <rect class="card-outline" x="1034" y="132" width="260" height="130" rx="8" fill="#ffffff" stroke="#94a3b8" stroke-width="1.5"/>
    <rect x="1034" y="132" width="260" height="34" rx="8" fill="#e2e8f0" stroke="#94a3b8" stroke-width="1"/>
    <rect x="1034" y="158" width="260" height="8" fill="#e2e8f0"/>
    <text x="1048" y="154" class="card-title" fill="#94a3b8">company_company</text>
    <text x="1280" y="154" class="meta" text-anchor="end">company</text>
    <text x="1048" y="190" class="field">PK    id : int</text>
    <text x="1048" y="208" class="field">      name : varchar</text>
    <text x="1048" y="226" class="field">UK    code : varchar</text>
    <text x="1048" y="244" class="field">      is_active : boolean</text>
  </g>
  <g id="driver_management_vehicleentry" class="card" data-table="driver_management_vehicleentry">
    <title>driver_management_vehicleentry</title>
    <rect class="card-outline" x="1034" y="306" width="260" height="220" rx="8" fill="#ffffff" stroke="#94a3b8" stroke-width="1.5"/>
    <rect x="1034" y="306" width="260" height="34" rx="8" fill="#e2e8f0" stroke="#94a3b8" stroke-width="1"/>
    <rect x="1034" y="332" width="260" height="8" fill="#e2e8f0"/>
    <text x="1048" y="328" class="card-title" fill="#94a3b8">driver_management_vehicleentry</text>
    <text x="1280" y="328" class="meta" text-anchor="end">driver_management</text>
    <text x="1048" y="364" class="field">PK    id : int</text>
    <text x="1048" y="382" class="field">      created_at : datetime</text>
    <text x="1048" y="400" class="field">      updated_at : datetime</text>
    <text x="1048" y="418" class="field">      is_active : boolean</text>
    <text x="1048" y="436" class="field">UK    entry_no : varchar</text>
    <text x="1048" y="454" class="field">      status : varchar</text>
    <text x="1048" y="472" class="field">      is_locked : boolean</text>
    <text x="1048" y="490" class="field">      entry_time : datetime</text>
    <text x="1048" y="508" class="field">... 7 more fields</text>
  </g>

  <script><![CDATA[
    (function () {
      const svg = document.currentScript.ownerSVGElement;
      if (!svg || svg.dataset.erInteractive === "1") return;
      svg.dataset.erInteractive = "1";
      const relations = Array.from(svg.querySelectorAll(".relation"));
      const cards = Array.from(svg.querySelectorAll(".card"));

      function clear() {
        relations.forEach((relation) => relation.classList.remove("active"));
        cards.forEach((card) => card.classList.remove("active-card"));
      }

      function highlight(relation) {
        const src = relation.dataset.src;
        const dst = relation.dataset.dst;
        relations.forEach((item) => {
          item.classList.toggle("active", item === relation);
        });
        cards.forEach((card) => {
          const connected = card.dataset.table === src || card.dataset.table === dst;
          card.classList.toggle("active-card", connected);
        });
      }

      relations.forEach((relation) => {
        relation.addEventListener("click", (event) => {
          event.stopPropagation();
          highlight(relation);
        });
      });
      svg.addEventListener("click", clear);
    })();
  ]]></script>

</svg>
