<svg xmlns="http://www.w3.org/2000/svg" width="1100" height="1698" viewBox="0 0 1100 1698">

  <defs>
    <marker id="arrow" viewBox="0 0 10 10" refX="9" refY="5" markerWidth="7" markerHeight="7" orient="auto-start-reverse">
      <path d="M 0 0 L 10 5 L 0 10 z" fill="#64748b"/>
    </marker>
    <marker id="arrow-active" viewBox="0 0 10 10" refX="9" refY="5" markerWidth="8" markerHeight="8" orient="auto-start-reverse">
      <path d="M 0 0 L 10 5 L 0 10 z" fill="#ef4444"/>
    </marker>
  </defs>

  <style>
    .page-title { font: 700 28px "Segoe UI", Arial, sans-serif; fill: #0f172a; }
    .subtitle { font: 400 13px "Segoe UI", Arial, sans-serif; fill: #475569; }
    .card-title { font: 700 15px "Segoe UI", Arial, sans-serif; }
    .field { font: 12px Consolas, "Liberation Mono", monospace; fill: #1f2937; }
    .meta { font: 12px "Segoe UI", Arial, sans-serif; fill: #64748b; }
    .section { font: 700 14px "Segoe UI", Arial, sans-serif; fill: #334155; }
    .card { transition: opacity .12s ease; }
    .card-outline { transition: stroke .12s ease, stroke-width .12s ease; }
    .card.active-card .card-outline { stroke: #ef4444; stroke-width: 4; }
    .relation { cursor: pointer; }
    .overview-app { cursor: pointer; }
    .overview-app:hover .overview-outline { stroke-width: 4; }
    .edge-hit { stroke: transparent; stroke-width: 18; fill: none; pointer-events: stroke; }
    .edge { stroke: #64748b; stroke-width: 1.8; fill: none; marker-end: url(#arrow); opacity: .62; }
    .external-edge { stroke: #475569; opacity: .58; }
    .relation.active .edge { stroke: #ef4444; stroke-width: 4; marker-end: url(#arrow-active); opacity: 1; }
    .relation.active .edge-label-bg { stroke: #ef4444; stroke-width: 1.5; opacity: 1; }
    .relation.active .edge-label { fill: #b91c1c; font-weight: 700; }
    .edge-label-bg { fill: #ffffff; stroke: #e2e8f0; stroke-width: 1; opacity: .9; }
    .edge-label { font: 10px "Segoe UI", Arial, sans-serif; fill: #475569; }
  </style>
  <rect width="100%" height="100%" fill="#f8fafc"/>
  <text x="60" y="54" class="page-title">Person Gatein ER Slice</text>
  <text x="60" y="80" class="subtitle">6 local tables, 0 linked external tables, 6 local relationships, 0 external relationships</text>
  <g class="relation" data-src="person_gatein_contractor" data-dst="person_gatein_labour" data-label="contractor_id">
    <title>person_gatein_contractor to person_gatein_labour via contractor_id</title>
    <path class="edge-hit" d="M 234 1106 L 214 1106 L 214 1096 L 100 1096 L 100 887 L 208 887 L 208 897 L 234 897"/>
    <path class="edge" d="M 234 1106 L 214 1106 L 214 1096 L 100 1096 L 100 887 L 208 887 L 208 897 L 234 897"/>
    <rect class="edge-label-bg" x="55.0" y="983.5" width="90" height="16" rx="4"/>
    <text class="edge-label" x="100.0" y="995.5" text-anchor="middle">contractor_id</text>
  </g>
  <g class="relation" data-src="person_gatein_gate" data-dst="person_gatein_entrylog" data-label="gate_in_id">
    <title>person_gatein_gate to person_gatein_entrylog via gate_in_id</title>
    <path class="edge-hit" d="M 234 619 L 214 619 L 214 613 L 194 613 L 194 193 L 214 193 L 214 199 L 234 199"/>
    <path class="edge" d="M 234 619 L 214 619 L 214 613 L 194 613 L 194 193 L 214 193 L 214 199 L 234 199"/>
    <rect class="edge-label-bg" x="158.0" y="395.0" width="72" height="16" rx="4"/>
    <text class="edge-label" x="194.0" y="407.0" text-anchor="middle">gate_in_id</text>
  </g>
  <g class="relation" data-src="person_gatein_gate" data-dst="person_gatein_entrylog" data-label="gate_out_id">
    <title>person_gatein_gate to person_gatein_entrylog via gate_out_id</title>
    <path class="edge-hit" d="M 234 663 L 208 663 L 208 661 L 175 661 L 175 263 L 208 263 L 208 265 L 234 265"/>
    <path class="edge" d="M 234 663 L 208 663 L 208 661 L 175 661 L 175 263 L 208 263 L 208 265 L 234 265"/>
    <rect class="edge-label-bg" x="136.0" y="454.0" width="78" height="16" rx="4"/>
    <text class="edge-label" x="175.0" y="466.0" text-anchor="middle">gate_out_id</text>
  </g>
  <g class="relation" data-src="person_gatein_labour" data-dst="person_gatein_entrylog" data-label="labour_id">
    <title>person_gatein_labour to person_gatein_entrylog via labour_id</title>
    <path class="edge-hit" d="M 234 823 L 214 823 L 214 825 L 156 825 L 156 334 L 202 334 L 202 332 L 234 332"/>
    <path class="edge" d="M 234 823 L 214 823 L 214 825 L 156 825 L 156 334 L 202 334 L 202 332 L 234 332"/>
    <rect class="edge-label-bg" x="123.0" y="571.5" width="66" height="16" rx="4"/>
    <text class="edge-label" x="156.0" y="583.5" text-anchor="middle">labour_id</text>
  </g>
  <g class="relation" data-src="person_gatein_persontype" data-dst="person_gatein_entrylog" data-label="person_type_id">
    <title>person_gatein_persontype to person_gatein_entrylog via person_type_id</title>
    <path class="edge-hit" d="M 234 1298 L 214 1298 L 214 1304 L 138 1304 L 138 405 L 196 405 L 196 399 L 234 399"/>
    <path class="edge" d="M 234 1298 L 214 1298 L 214 1304 L 138 1304 L 138 405 L 196 405 L 196 399 L 234 399"/>
    <rect class="edge-label-bg" x="90.0" y="846.5" width="96" height="16" rx="4"/>
    <text class="edge-label" x="138.0" y="858.5" text-anchor="middle">person_type_id</text>
  </g>
  <g class="relation" data-src="person_gatein_visitor" data-dst="person_gatein_entrylog" data-label="visitor_id">
    <title>person_gatein_visitor to person_gatein_entrylog via visitor_id</title>
    <path class="edge-hit" d="M 234 1508 L 214 1508 L 214 1518 L 119 1518 L 119 475 L 190 475 L 190 465 L 234 465"/>
    <path class="edge" d="M 234 1508 L 214 1508 L 214 1518 L 119 1518 L 119 475 L 190 475 L 190 465 L 234 465"/>
    <rect class="edge-label-bg" x="83.0" y="988.5" width="72" height="16" rx="4"/>
    <text class="edge-label" x="119.0" y="1000.5" text-anchor="middle">visitor_id</text>
  </g>

  <g id="person_gatein_entrylog" class="card" data-table="person_gatein_entrylog">
    <title>person_gatein_entrylog</title>
    <rect class="card-outline" x="234" y="132" width="343" height="400" rx="8" fill="#ffffff" stroke="#7c3aed" stroke-width="1.5"/>
    <rect x="234" y="132" width="343" height="34" rx="8" fill="#ede9fe" stroke="#7c3aed" stroke-width="1"/>
    <rect x="234" y="158" width="343" height="8" fill="#ede9fe"/>
    <text x="248" y="154" class="card-title" fill="#7c3aed">person_gatein_entrylog</text>
    <text x="248" y="190" class="field">PK    id : int</text>
    <text x="248" y="208" class="field">      name_snapshot : varchar</text>
    <text x="248" y="226" class="field">      photo_snapshot : varchar (nullable)</text>
    <text x="248" y="244" class="field">      entry_time : datetime</text>
    <text x="248" y="262" class="field">      exit_time : datetime (nullable)</text>
    <text x="248" y="280" class="field">      purpose : varchar (nullable)</text>
    <text x="248" y="298" class="field">      vehicle_no : varchar (nullable)</text>
    <text x="248" y="316" class="field">      remarks : text (nullable)</text>
    <text x="248" y="334" class="field">      status : varchar</text>
    <text x="248" y="352" class="field">      created_at : datetime</text>
    <text x="248" y="370" class="field">      updated_at : datetime</text>
    <text x="248" y="388" class="field">      approved_by_id : int (nullable)</text>
    <text x="248" y="406" class="field">      created_by_id : int (nullable)</text>
    <text x="248" y="424" class="field">FK    gate_in_id : int</text>
    <text x="248" y="442" class="field">FK    gate_out_id : int (nullable)</text>
    <text x="248" y="460" class="field">FK    labour_id : int (nullable)</text>
    <text x="248" y="478" class="field">FK    person_type_id : int</text>
    <text x="248" y="496" class="field">FK    visitor_id : int (nullable)</text>
    <text x="248" y="514" class="field">      actual_entry_time : datetime (nullable)</text>
  </g>
  <g id="person_gatein_gate" class="card" data-table="person_gatein_gate">
    <title>person_gatein_gate</title>
    <rect class="card-outline" x="234" y="576" width="320" height="130" rx="8" fill="#ffffff" stroke="#7c3aed" stroke-width="1.5"/>
    <rect x="234" y="576" width="320" height="34" rx="8" fill="#ede9fe" stroke="#7c3aed" stroke-width="1"/>
    <rect x="234" y="602" width="320" height="8" fill="#ede9fe"/>
    <text x="248" y="598" class="card-title" fill="#7c3aed">person_gatein_gate</text>
    <text x="248" y="634" class="field">PK    id : int</text>
    <text x="248" y="652" class="field">      name : varchar</text>
    <text x="248" y="670" class="field">      location : varchar (nullable)</text>
    <text x="248" y="688" class="field">      is_active : boolean</text>
  </g>
  <g id="person_gatein_labour" class="card" data-table="person_gatein_labour">
    <title>person_gatein_labour</title>
    <rect class="card-outline" x="234" y="750" width="320" height="220" rx="8" fill="#ffffff" stroke="#7c3aed" stroke-width="1.5"/>
    <rect x="234" y="750" width="320" height="34" rx="8" fill="#ede9fe" stroke="#7c3aed" stroke-width="1"/>
    <rect x="234" y="776" width="320" height="8" fill="#ede9fe"/>
    <text x="248" y="772" class="card-title" fill="#7c3aed">person_gatein_labour</text>
    <text x="248" y="808" class="field">PK    id : int</text>
    <text x="248" y="826" class="field">      name : varchar</text>
    <text x="248" y="844" class="field">      mobile : varchar (nullable)</text>
    <text x="248" y="862" class="field">      id_proof_no : varchar (nullable)</text>
    <text x="248" y="880" class="field">      photo : varchar (nullable)</text>
    <text x="248" y="898" class="field">      skill_type : varchar (nullable)</text>
    <text x="248" y="916" class="field">      permit_valid_till : date (nullable)</text>
    <text x="248" y="934" class="field">      is_active : boolean</text>
    <text x="248" y="952" class="field">FK    contractor_id : int</text>
  </g>
  <g id="person_gatein_contractor" class="card" data-table="person_gatein_contractor">
    <title>person_gatein_contractor</title>
    <rect class="card-outline" x="234" y="1014" width="329" height="184" rx="8" fill="#ffffff" stroke="#7c3aed" stroke-width="1.5"/>
    <rect x="234" y="1014" width="329" height="34" rx="8" fill="#ede9fe" stroke="#7c3aed" stroke-width="1"/>
    <rect x="234" y="1040" width="329" height="8" fill="#ede9fe"/>
    <text x="248" y="1036" class="card-title" fill="#7c3aed">person_gatein_contractor</text>
    <text x="248" y="1072" class="field">PK    id : int</text>
    <text x="248" y="1090" class="field">      contractor_name : varchar</text>
    <text x="248" y="1108" class="field">      contact_person : varchar (nullable)</text>
    <text x="248" y="1126" class="field">      mobile : varchar (nullable)</text>
    <text x="248" y="1144" class="field">      address : text (nullable)</text>
    <text x="248" y="1162" class="field">      contract_valid_till : date (nullable)</text>
    <text x="248" y="1180" class="field">      is_active : boolean</text>
  </g>
  <g id="person_gatein_persontype" class="card" data-table="person_gatein_persontype">
    <title>person_gatein_persontype</title>
    <rect class="card-outline" x="234" y="1242" width="320" height="112" rx="8" fill="#ffffff" stroke="#7c3aed" stroke-width="1.5"/>
    <rect x="234" y="1242" width="320" height="34" rx="8" fill="#ede9fe" stroke="#7c3aed" stroke-width="1"/>
    <rect x="234" y="1268" width="320" height="8" fill="#ede9fe"/>
    <text x="248" y="1264" class="card-title" fill="#7c3aed">person_gatein_persontype</text>
    <text x="248" y="1300" class="field">PK    id : int</text>
    <text x="248" y="1318" class="field">UK    name : varchar</text>
    <text x="248" y="1336" class="field">      is_active : boolean</text>
  </g>
  <g id="person_gatein_visitor" class="card" data-table="person_gatein_visitor">
    <title>person_gatein_visitor</title>
    <rect class="card-outline" x="234" y="1398" width="320" height="220" rx="8" fill="#ffffff" stroke="#7c3aed" stroke-width="1.5"/>
    <rect x="234" y="1398" width="320" height="34" rx="8" fill="#ede9fe" stroke="#7c3aed" stroke-width="1"/>
    <rect x="234" y="1424" width="320" height="8" fill="#ede9fe"/>
    <text x="248" y="1420" class="card-title" fill="#7c3aed">person_gatein_visitor</text>
    <text x="248" y="1456" class="field">PK    id : int</text>
    <text x="248" y="1474" class="field">      name : varchar</text>
    <text x="248" y="1492" class="field">      mobile : varchar (nullable)</text>
    <text x="248" y="1510" class="field">      company_name : varchar (nullable)</text>
    <text x="248" y="1528" class="field">      id_proof_type : varchar (nullable)</text>
    <text x="248" y="1546" class="field">      id_proof_no : varchar (nullable)</text>
    <text x="248" y="1564" class="field">      photo : varchar (nullable)</text>
    <text x="248" y="1582" class="field">      blacklisted : boolean</text>
    <text x="248" y="1600" class="field">      created_at : datetime</text>
  </g>

  <script><![CDATA[
    (function () {
      const svg = document.currentScript.ownerSVGElement;
      if (!svg || svg.dataset.erInteractive === "1") return;
      svg.dataset.erInteractive = "1";
      const relations = Array.from(svg.querySelectorAll(".relation"));
      const cards = Array.from(svg.querySelectorAll(".card"));

      function clear() {
        relations.forEach((relation) => relation.classList.remove("active"));
        cards.forEach((card) => card.classList.remove("active-card"));
      }

      function highlight(relation) {
        const src = relation.dataset.src;
        const dst = relation.dataset.dst;
        relations.forEach((item) => {
          item.classList.toggle("active", item === relation);
        });
        cards.forEach((card) => {
          const connected = card.dataset.table === src || card.dataset.table === dst;
          card.classList.toggle("active-card", connected);
        });
      }

      relations.forEach((relation) => {
        relation.addEventListener("click", (event) => {
          event.stopPropagation();
          highlight(relation);
        });
      });
      svg.addEventListener("click", clear);
    })();
  ]]></script>

</svg>
