<svg xmlns="http://www.w3.org/2000/svg" width="1319" height="1494" viewBox="0 0 1319 1494">

  <defs>
    <marker id="arrow" viewBox="0 0 10 10" refX="9" refY="5" markerWidth="7" markerHeight="7" orient="auto-start-reverse">
      <path d="M 0 0 L 10 5 L 0 10 z" fill="#64748b"/>
    </marker>
    <marker id="arrow-active" viewBox="0 0 10 10" refX="9" refY="5" markerWidth="8" markerHeight="8" orient="auto-start-reverse">
      <path d="M 0 0 L 10 5 L 0 10 z" fill="#ef4444"/>
    </marker>
  </defs>

  <style>
    .page-title { font: 700 28px "Segoe UI", Arial, sans-serif; fill: #0f172a; }
    .subtitle { font: 400 13px "Segoe UI", Arial, sans-serif; fill: #475569; }
    .card-title { font: 700 15px "Segoe UI", Arial, sans-serif; }
    .field { font: 12px Consolas, "Liberation Mono", monospace; fill: #1f2937; }
    .meta { font: 12px "Segoe UI", Arial, sans-serif; fill: #64748b; }
    .section { font: 700 14px "Segoe UI", Arial, sans-serif; fill: #334155; }
    .card { transition: opacity .12s ease; }
    .card-outline { transition: stroke .12s ease, stroke-width .12s ease; }
    .card.active-card .card-outline { stroke: #ef4444; stroke-width: 4; }
    .relation { cursor: pointer; }
    .overview-app { cursor: pointer; }
    .overview-app:hover .overview-outline { stroke-width: 4; }
    .edge-hit { stroke: transparent; stroke-width: 18; fill: none; pointer-events: stroke; }
    .edge { stroke: #64748b; stroke-width: 1.8; fill: none; marker-end: url(#arrow); opacity: .62; }
    .external-edge { stroke: #475569; opacity: .58; }
    .relation.active .edge { stroke: #ef4444; stroke-width: 4; marker-end: url(#arrow-active); opacity: 1; }
    .relation.active .edge-label-bg { stroke: #ef4444; stroke-width: 1.5; opacity: 1; }
    .relation.active .edge-label { fill: #b91c1c; font-weight: 700; }
    .edge-label-bg { fill: #ffffff; stroke: #e2e8f0; stroke-width: 1; opacity: .9; }
    .edge-label { font: 10px "Segoe UI", Arial, sans-serif; fill: #475569; }
  </style>
  <rect width="100%" height="100%" fill="#f8fafc"/>
  <text x="60" y="54" class="page-title">Production Planning ER Slice</text>
  <text x="60" y="80" class="subtitle">4 local tables, 1 linked external tables, 3 local relationships, 1 external relationships</text>
  <text x="999" y="112" class="section">Linked external tables</text>
  <g class="relation" data-src="production_planning_productionplan" data-dst="production_planning_planmaterialrequirement" data-label="production_plan_id">
    <title>production_planning_productionplan to production_planning_planmaterialrequirement via production_plan_id</title>
    <path class="edge-hit" d="M 230 447 L 204 447 L 204 443 L 145 443 L 145 1318 L 210 1318 L 210 1322 L 230 1322"/>
    <path class="edge" d="M 230 447 L 204 447 L 204 443 L 145 443 L 145 1318 L 210 1318 L 210 1322 L 230 1322"/>
    <rect class="edge-label-bg" x="85.0" y="872.5" width="120" height="16" rx="4"/>
    <text class="edge-label" x="145.0" y="884.5" text-anchor="middle">production_plan_id</text>
  </g>
  <g class="relation" data-src="production_planning_productionplan" data-dst="production_planning_weeklyplan" data-label="production_plan_id">
    <title>production_planning_productionplan to production_planning_weeklyplan via production_plan_id</title>
    <path class="edge-hit" d="M 230 289 L 190 289 L 190 739 L 230 739"/>
    <path class="edge" d="M 230 289 L 190 289 L 190 739 L 230 739"/>
    <rect class="edge-label-bg" x="130.0" y="506.0" width="120" height="16" rx="4"/>
    <text class="edge-label" x="190.0" y="518.0" text-anchor="middle">production_plan_id</text>
  </g>
  <g class="relation" data-src="production_planning_weeklyplan" data-dst="production_planning_dailyproductionentry" data-label="weekly_plan_id">
    <title>production_planning_weeklyplan to production_planning_dailyproductionentry via weekly_plan_id</title>
    <path class="edge-hit" d="M 230 831 L 204 831 L 204 835 L 100 835 L 100 1080 L 210 1080 L 210 1076 L 230 1076"/>
    <path class="edge" d="M 230 831 L 204 831 L 204 835 L 100 835 L 100 1080 L 210 1080 L 210 1076 L 230 1076"/>
    <rect class="edge-label-bg" x="52.0" y="949.5" width="96" height="16" rx="4"/>
    <text class="edge-label" x="100.0" y="961.5" text-anchor="middle">weekly_plan_id</text>
  </g>
  <g class="relation" data-src="company_company" data-dst="production_planning_productionplan" data-label="company_id">
    <title>company_company to production_planning_productionplan via company_id</title>
    <path class="edge-hit" d="M 999 197 L 599 197 L 599 368 L 550 368"/>
    <path class="edge external-edge" d="M 999 197 L 599 197 L 599 368 L 550 368"/>
    <rect class="edge-label-bg" x="653.0" y="189.0" width="72" height="16" rx="4"/>
    <text class="edge-label" x="689.0" y="201.0" text-anchor="middle">company_id</text>
  </g>
  <g id="production_planning_productionplan" class="card" data-table="production_planning_productionplan">
    <title>production_planning_productionplan</title>
    <rect class="card-outline" x="230" y="132" width="320" height="472" rx="8" fill="#ffffff" stroke="#4f46e5" stroke-width="1.5"/>
    <rect x="230" y="132" width="320" height="34" rx="8" fill="#e0e7ff" stroke="#4f46e5" stroke-width="1"/>
    <rect x="230" y="158" width="320" height="8" fill="#e0e7ff"/>
    <text x="244" y="154" class="card-title" fill="#4f46e5">production_planning_productionplan</text>
    <text x="244" y="190" class="field">PK    id : bigint</text>
    <text x="244" y="208" class="field">      sap_doc_entry : int (nullable)</text>
    <text x="244" y="226" class="field">      sap_doc_num : int (nullable)</text>
    <text x="244" y="244" class="field">      item_code : varchar</text>
    <text x="244" y="262" class="field">      item_name : varchar</text>
    <text x="244" y="280" class="field">      planned_qty : decimal</text>
    <text x="244" y="298" class="field">      completed_qty : decimal</text>
    <text x="244" y="316" class="field">      target_start_date : date</text>
    <text x="244" y="334" class="field">      due_date : date</text>
    <text x="244" y="352" class="field">      sap_status : varchar (nullable)</text>
    <text x="244" y="370" class="field">      status : varchar</text>
    <text x="244" y="388" class="field">      branch_id : int (nullable)</text>
    <text x="244" y="406" class="field">      remarks : text</text>
    <text x="244" y="424" class="field">      closed_at : datetime (nullable)</text>
    <text x="244" y="442" class="field">      created_at : datetime</text>
    <text x="244" y="460" class="field">      updated_at : datetime</text>
    <text x="244" y="478" class="field">FK    company_id : bigint</text>
    <text x="244" y="496" class="field">      closed_by_id : bigint (nullable)</text>
    <text x="244" y="514" class="field">      sap_posting_status : varchar</text>
    <text x="244" y="532" class="field">      sap_error_message : text (nullable)</text>
    <text x="244" y="550" class="field">      uom : varchar</text>
    <text x="244" y="568" class="field">      warehouse_code : varchar</text>
    <text x="244" y="586" class="field">      created_by_id : bigint (nullable)</text>
  </g>
  <g id="production_planning_weeklyplan" class="card" data-table="production_planning_weeklyplan">
    <title>production_planning_weeklyplan</title>
    <rect class="card-outline" x="230" y="648" width="320" height="274" rx="8" fill="#ffffff" stroke="#4f46e5" stroke-width="1.5"/>
    <rect x="230" y="648" width="320" height="34" rx="8" fill="#e0e7ff" stroke="#4f46e5" stroke-width="1"/>
    <rect x="230" y="674" width="320" height="8" fill="#e0e7ff"/>
    <text x="244" y="670" class="card-title" fill="#4f46e5">production_planning_weeklyplan</text>
    <text x="244" y="706" class="field">PK    id : bigint</text>
    <text x="244" y="724" class="field">      week_number : int</text>
    <text x="244" y="742" class="field">      week_label : varchar</text>
    <text x="244" y="760" class="field">      start_date : date</text>
    <text x="244" y="778" class="field">      end_date : date</text>
    <text x="244" y="796" class="field">      target_qty : decimal</text>
    <text x="244" y="814" class="field">      produced_qty : decimal</text>
    <text x="244" y="832" class="field">      status : varchar</text>
    <text x="244" y="850" class="field">      created_at : datetime</text>
    <text x="244" y="868" class="field">      updated_at : datetime</text>
    <text x="244" y="886" class="field">FK    production_plan_id : bigint</text>
    <text x="244" y="904" class="field">      created_by_id : bigint (nullable)</text>
  </g>
  <g id="production_planning_dailyproductionentry" class="card" data-table="production_planning_dailyproductionentry">
    <title>production_planning_dailyproductionentry</title>
    <rect class="card-outline" x="230" y="966" width="320" height="220" rx="8" fill="#ffffff" stroke="#4f46e5" stroke-width="1.5"/>
    <rect x="230" y="966" width="320" height="34" rx="8" fill="#e0e7ff" stroke="#4f46e5" stroke-width="1"/>
    <rect x="230" y="992" width="320" height="8" fill="#e0e7ff"/>
    <text x="244" y="988" class="card-title" fill="#4f46e5">production_planning_dailyproductionentry</text>
    <text x="244" y="1024" class="field">PK    id : bigint</text>
    <text x="244" y="1042" class="field">      production_date : date</text>
    <text x="244" y="1060" class="field">      produced_qty : decimal</text>
    <text x="244" y="1078" class="field">      shift : varchar (nullable)</text>
    <text x="244" y="1096" class="field">      remarks : text</text>
    <text x="244" y="1114" class="field">      created_at : datetime</text>
    <text x="244" y="1132" class="field">      updated_at : datetime</text>
    <text x="244" y="1150" class="field">FK    weekly_plan_id : bigint</text>
    <text x="244" y="1168" class="field">      recorded_by_id : bigint (nullable)</text>
  </g>
  <g id="production_planning_planmaterialrequirement" class="card" data-table="production_planning_planmaterialrequirement">
    <title>production_planning_planmaterialrequirement</title>
    <rect class="card-outline" x="230" y="1230" width="329" height="184" rx="8" fill="#ffffff" stroke="#4f46e5" stroke-width="1.5"/>
    <rect x="230" y="1230" width="329" height="34" rx="8" fill="#e0e7ff" stroke="#4f46e5" stroke-width="1"/>
    <rect x="230" y="1256" width="329" height="8" fill="#e0e7ff"/>
    <text x="244" y="1252" class="card-title" fill="#4f46e5">production_planning_planmaterialrequirement</text>
    <text x="244" y="1288" class="field">PK    id : bigint</text>
    <text x="244" y="1306" class="field">      component_code : varchar</text>
    <text x="244" y="1324" class="field">      component_name : varchar</text>
    <text x="244" y="1342" class="field">      required_qty : decimal</text>
    <text x="244" y="1360" class="field">      uom : varchar</text>
    <text x="244" y="1378" class="field">FK    production_plan_id : bigint</text>
    <text x="244" y="1396" class="field">      warehouse_code : varchar</text>
  </g>
  <g id="company_company" class="card" data-table="company_company">
    <title>company_company</title>
    <rect class="card-outline" x="999" y="132" width="260" height="130" rx="8" fill="#ffffff" stroke="#94a3b8" stroke-width="1.5"/>
    <rect x="999" y="132" width="260" height="34" rx="8" fill="#e2e8f0" stroke="#94a3b8" stroke-width="1"/>
    <rect x="999" y="158" width="260" height="8" fill="#e2e8f0"/>
    <text x="1013" y="154" class="card-title" fill="#94a3b8">company_company</text>
    <text x="1245" y="154" class="meta" text-anchor="end">company</text>
    <text x="1013" y="190" class="field">PK    id : int</text>
    <text x="1013" y="208" class="field">      name : varchar</text>
    <text x="1013" y="226" class="field">UK    code : varchar</text>
    <text x="1013" y="244" class="field">      is_active : boolean</text>
  </g>

  <script><![CDATA[
    (function () {
      const svg = document.currentScript.ownerSVGElement;
      if (!svg || svg.dataset.erInteractive === "1") return;
      svg.dataset.erInteractive = "1";
      const relations = Array.from(svg.querySelectorAll(".relation"));
      const cards = Array.from(svg.querySelectorAll(".card"));

      function clear() {
        relations.forEach((relation) => relation.classList.remove("active"));
        cards.forEach((card) => card.classList.remove("active-card"));
      }

      function highlight(relation) {
        const src = relation.dataset.src;
        const dst = relation.dataset.dst;
        relations.forEach((item) => {
          item.classList.toggle("active", item === relation);
        });
        cards.forEach((card) => {
          const connected = card.dataset.table === src || card.dataset.table === dst;
          card.classList.toggle("active-card", connected);
        });
      }

      relations.forEach((relation) => {
        relation.addEventListener("click", (event) => {
          event.stopPropagation();
          highlight(relation);
        });
      });
      svg.addEventListener("click", clear);
    })();
  ]]></script>

</svg>
