<svg xmlns="http://www.w3.org/2000/svg" width="1358" height="1326" viewBox="0 0 1358 1326">

  <defs>
    <marker id="arrow" viewBox="0 0 10 10" refX="9" refY="5" markerWidth="7" markerHeight="7" orient="auto-start-reverse">
      <path d="M 0 0 L 10 5 L 0 10 z" fill="#64748b"/>
    </marker>
    <marker id="arrow-active" viewBox="0 0 10 10" refX="9" refY="5" markerWidth="8" markerHeight="8" orient="auto-start-reverse">
      <path d="M 0 0 L 10 5 L 0 10 z" fill="#ef4444"/>
    </marker>
  </defs>

  <style>
    .page-title { font: 700 28px "Segoe UI", Arial, sans-serif; fill: #0f172a; }
    .subtitle { font: 400 13px "Segoe UI", Arial, sans-serif; fill: #475569; }
    .card-title { font: 700 15px "Segoe UI", Arial, sans-serif; }
    .field { font: 12px Consolas, "Liberation Mono", monospace; fill: #1f2937; }
    .meta { font: 12px "Segoe UI", Arial, sans-serif; fill: #64748b; }
    .section { font: 700 14px "Segoe UI", Arial, sans-serif; fill: #334155; }
    .card { transition: opacity .12s ease; }
    .card-outline { transition: stroke .12s ease, stroke-width .12s ease; }
    .card.active-card .card-outline { stroke: #ef4444; stroke-width: 4; }
    .relation { cursor: pointer; }
    .overview-app { cursor: pointer; }
    .overview-app:hover .overview-outline { stroke-width: 4; }
    .edge-hit { stroke: transparent; stroke-width: 18; fill: none; pointer-events: stroke; }
    .edge { stroke: #64748b; stroke-width: 1.8; fill: none; marker-end: url(#arrow); opacity: .62; }
    .external-edge { stroke: #475569; opacity: .58; }
    .relation.active .edge { stroke: #ef4444; stroke-width: 4; marker-end: url(#arrow-active); opacity: 1; }
    .relation.active .edge-label-bg { stroke: #ef4444; stroke-width: 1.5; opacity: 1; }
    .relation.active .edge-label { fill: #b91c1c; font-weight: 700; }
    .edge-label-bg { fill: #ffffff; stroke: #e2e8f0; stroke-width: 1; opacity: .9; }
    .edge-label { font: 10px "Segoe UI", Arial, sans-serif; fill: #475569; }
  </style>
  <rect width="100%" height="100%" fill="#f8fafc"/>
  <text x="60" y="54" class="page-title">Raw Material Gatein ER Slice</text>
  <text x="60" y="80" class="subtitle">2 local tables, 5 linked external tables, 1 local relationships, 5 external relationships</text>
  <text x="990" y="112" class="section">Linked external tables</text>
  <g class="relation" data-src="raw_material_gatein_poreceipt" data-dst="raw_material_gatein_poitemreceipt" data-label="po_receipt_id">
    <title>raw_material_gatein_poreceipt to raw_material_gatein_poitemreceipt via po_receipt_id</title>
    <path class="edge-hit" d="M 230 314 L 190 314 L 190 767 L 230 767"/>
    <path class="edge" d="M 230 314 L 190 314 L 190 767 L 230 767"/>
    <rect class="edge-label-bg" x="145.0" y="532.5" width="90" height="16" rx="4"/>
    <text class="edge-label" x="190.0" y="544.5" text-anchor="middle">po_receipt_id</text>
  </g>
  <g class="relation" data-src="driver_management_vehicleentry" data-dst="raw_material_gatein_poreceipt" data-label="vehicle_entry_id">
    <title>driver_management_vehicleentry to raw_material_gatein_poreceipt via vehicle_entry_id</title>
    <path class="edge-hit" d="M 990 242 L 970 242 L 970 234 L 590 234 L 590 215 L 570 215 L 570 223 L 550 223"/>
    <path class="edge external-edge" d="M 990 242 L 970 242 L 970 234 L 590 234 L 590 215 L 570 215 L 570 223 L 550 223"/>
    <rect class="edge-label-bg" x="706.5" y="226.0" width="108" height="16" rx="4"/>
    <text class="edge-label" x="760.5" y="238.0" text-anchor="middle">vehicle_entry_id</text>
  </g>
  <g class="relation" data-src="raw_material_gatein_poitemreceipt" data-dst="grpo_grpolineposting" data-label="po_item_receipt_id">
    <title>raw_material_gatein_poitemreceipt to grpo_grpolineposting via po_item_receipt_id</title>
    <path class="edge-hit" d="M 550 691 L 570 691 L 570 687 L 860 687 L 860 475 L 970 475 L 970 479 L 990 479"/>
    <path class="edge external-edge" d="M 550 691 L 570 691 L 570 687 L 860 687 L 860 475 L 970 475 L 970 479 L 990 479"/>
    <rect class="edge-label-bg" x="800.0" y="663.0" width="120" height="16" rx="4"/>
    <text class="edge-label" x="860.0" y="675.0" text-anchor="middle">po_item_receipt_id</text>
  </g>
  <g class="relation" data-src="raw_material_gatein_poitemreceipt" data-dst="quality_control_materialarrivalslip" data-label="po_item_receipt_id">
    <title>raw_material_gatein_poitemreceipt to quality_control_materialarrivalslip via po_item_receipt_id</title>
    <path class="edge-hit" d="M 550 843 L 950 843 L 950 1136 L 990 1136"/>
    <path class="edge external-edge" d="M 550 843 L 950 843 L 950 1136 L 990 1136"/>
    <rect class="edge-label-bg" x="856.5" y="835.0" width="120" height="16" rx="4"/>
    <text class="edge-label" x="916.5" y="847.0" text-anchor="middle">po_item_receipt_id</text>
  </g>
  <g class="relation" data-src="raw_material_gatein_poreceipt" data-dst="grpo_grpoposting" data-label="po_receipt_id">
    <title>raw_material_gatein_poreceipt to grpo_grpoposting via po_receipt_id</title>
    <path class="edge-hit" d="M 550 314 L 576 314 L 576 318 L 680 318 L 680 720 L 970 720 L 970 716 L 990 716"/>
    <path class="edge external-edge" d="M 550 314 L 576 314 L 576 318 L 680 318 L 680 720 L 970 720 L 970 716 L 990 716"/>
    <rect class="edge-label-bg" x="635.0" y="601.0" width="90" height="16" rx="4"/>
    <text class="edge-label" x="680.0" y="613.0" text-anchor="middle">po_receipt_id</text>
  </g>
  <g class="relation" data-src="raw_material_gatein_poreceipt" data-dst="grpo_grpoposting_po_receipts" data-label="poreceipt_id">
    <title>raw_material_gatein_poreceipt to grpo_grpoposting_po_receipts via poreceipt_id</title>
    <path class="edge-hit" d="M 550 405 L 582 405 L 582 413 L 770 413 L 770 934 L 970 934 L 970 926 L 990 926"/>
    <path class="edge external-edge" d="M 550 405 L 582 405 L 582 413 L 770 413 L 770 934 L 970 934 L 970 926 L 990 926"/>
    <rect class="edge-label-bg" x="728.0" y="665.5" width="84" height="16" rx="4"/>
    <text class="edge-label" x="770.0" y="677.5" text-anchor="middle">poreceipt_id</text>
  </g>
  <g id="raw_material_gatein_poreceipt" class="card" data-table="raw_material_gatein_poreceipt">
    <title>raw_material_gatein_poreceipt</title>
    <rect class="card-outline" x="230" y="132" width="320" height="364" rx="8" fill="#ffffff" stroke="#4f46e5" stroke-width="1.5"/>
    <rect x="230" y="132" width="320" height="34" rx="8" fill="#e0e7ff" stroke="#4f46e5" stroke-width="1"/>
    <rect x="230" y="158" width="320" height="8" fill="#e0e7ff"/>
    <text x="244" y="154" class="card-title" fill="#4f46e5">raw_material_gatein_poreceipt</text>
    <text x="244" y="190" class="field">PK    id : int</text>
    <text x="244" y="208" class="field">      created_at : datetime</text>
    <text x="244" y="226" class="field">      updated_at : datetime</text>
    <text x="244" y="244" class="field">      is_active : boolean</text>
    <text x="244" y="262" class="field">      po_number : varchar</text>
    <text x="244" y="280" class="field">      supplier_code : varchar</text>
    <text x="244" y="298" class="field">      supplier_name : varchar</text>
    <text x="244" y="316" class="field">      invoice_no : varchar</text>
    <text x="244" y="334" class="field">      invoice_date : date (nullable)</text>
    <text x="244" y="352" class="field">      challan_no : varchar</text>
    <text x="244" y="370" class="field">      created_by_id : int (nullable)</text>
    <text x="244" y="388" class="field">      updated_by_id : int (nullable)</text>
    <text x="244" y="406" class="field">FK    vehicle_entry_id : int</text>
    <text x="244" y="424" class="field">      sap_doc_entry : int (nullable)</text>
    <text x="244" y="442" class="field">      branch_id : int (nullable)</text>
    <text x="244" y="460" class="field">      vendor_ref : varchar</text>
    <text x="244" y="478" class="field">      po_date : date (nullable)</text>
  </g>
  <g id="raw_material_gatein_poitemreceipt" class="card" data-table="raw_material_gatein_poitemreceipt">
    <title>raw_material_gatein_poitemreceipt</title>
    <rect class="card-outline" x="230" y="540" width="320" height="454" rx="8" fill="#ffffff" stroke="#4f46e5" stroke-width="1.5"/>
    <rect x="230" y="540" width="320" height="34" rx="8" fill="#e0e7ff" stroke="#4f46e5" stroke-width="1"/>
    <rect x="230" y="566" width="320" height="8" fill="#e0e7ff"/>
    <text x="244" y="562" class="card-title" fill="#4f46e5">raw_material_gatein_poitemreceipt</text>
    <text x="244" y="598" class="field">PK    id : int</text>
    <text x="244" y="616" class="field">      created_at : datetime</text>
    <text x="244" y="634" class="field">      updated_at : datetime</text>
    <text x="244" y="652" class="field">      is_active : boolean</text>
    <text x="244" y="670" class="field">      po_item_code : varchar</text>
    <text x="244" y="688" class="field">      item_name : varchar</text>
    <text x="244" y="706" class="field">      ordered_qty : decimal</text>
    <text x="244" y="724" class="field">      received_qty : decimal</text>
    <text x="244" y="742" class="field">      accepted_qty : decimal</text>
    <text x="244" y="760" class="field">      rejected_qty : decimal</text>
    <text x="244" y="778" class="field">      short_qty : decimal</text>
    <text x="244" y="796" class="field">      uom : varchar</text>
    <text x="244" y="814" class="field">      created_by_id : int (nullable)</text>
    <text x="244" y="832" class="field">      updated_by_id : int (nullable)</text>
    <text x="244" y="850" class="field">FK    po_receipt_id : int</text>
    <text x="244" y="868" class="field">      line_num : int (nullable)</text>
    <text x="244" y="886" class="field">      gl_account : varchar</text>
    <text x="244" y="904" class="field">      tax_code : varchar</text>
    <text x="244" y="922" class="field">      unit_price : decimal (nullable)</text>
    <text x="244" y="940" class="field">      warehouse_code : varchar</text>
    <text x="244" y="958" class="field">      sap_line_num : int (nullable)</text>
    <text x="244" y="976" class="field">      variety : varchar (nullable)</text>
  </g>
  <g id="driver_management_vehicleentry" class="card" data-table="driver_management_vehicleentry">
    <title>driver_management_vehicleentry</title>
    <rect class="card-outline" x="990" y="132" width="260" height="220" rx="8" fill="#ffffff" stroke="#94a3b8" stroke-width="1.5"/>
    <rect x="990" y="132" width="260" height="34" rx="8" fill="#e2e8f0" stroke="#94a3b8" stroke-width="1"/>
    <rect x="990" y="158" width="260" height="8" fill="#e2e8f0"/>
    <text x="1004" y="154" class="card-title" fill="#94a3b8">driver_management_vehicleentry</text>
    <text x="1236" y="154" class="meta" text-anchor="end">driver_management</text>
    <text x="1004" y="190" class="field">PK    id : int</text>
    <text x="1004" y="208" class="field">      created_at : datetime</text>
    <text x="1004" y="226" class="field">      updated_at : datetime</text>
    <text x="1004" y="244" class="field">      is_active : boolean</text>
    <text x="1004" y="262" class="field">UK    entry_no : varchar</text>
    <text x="1004" y="280" class="field">      status : varchar</text>
    <text x="1004" y="298" class="field">      is_locked : boolean</text>
    <text x="1004" y="316" class="field">      entry_time : datetime</text>
    <text x="1004" y="334" class="field">... 7 more fields</text>
  </g>
  <g id="grpo_grpolineposting" class="card" data-table="grpo_grpolineposting">
    <title>grpo_grpolineposting</title>
    <rect class="card-outline" x="990" y="396" width="260" height="166" rx="8" fill="#ffffff" stroke="#94a3b8" stroke-width="1.5"/>
    <rect x="990" y="396" width="260" height="34" rx="8" fill="#e2e8f0" stroke="#94a3b8" stroke-width="1"/>
    <rect x="990" y="422" width="260" height="8" fill="#e2e8f0"/>
    <text x="1004" y="418" class="card-title" fill="#94a3b8">grpo_grpolineposting</text>
    <text x="1236" y="418" class="meta" text-anchor="end">grpo</text>
    <text x="1004" y="454" class="field">PK    id : bigint</text>
    <text x="1004" y="472" class="field">      quantity_posted : decimal</text>
    <text x="1004" y="490" class="field">      base_entry : int (nullable)</text>
    <text x="1004" y="508" class="field">      base_line : int (nullable)</text>
    <text x="1004" y="526" class="field">FK    po_item_receipt_id : int</text>
    <text x="1004" y="544" class="field">FK    grpo_posting_id : bigint</text>
  </g>
  <g id="grpo_grpoposting" class="card" data-table="grpo_grpoposting">
    <title>grpo_grpoposting</title>
    <rect class="card-outline" x="990" y="606" width="308" height="220" rx="8" fill="#ffffff" stroke="#94a3b8" stroke-width="1.5"/>
    <rect x="990" y="606" width="308" height="34" rx="8" fill="#e2e8f0" stroke="#94a3b8" stroke-width="1"/>
    <rect x="990" y="632" width="308" height="8" fill="#e2e8f0"/>
    <text x="1004" y="628" class="card-title" fill="#94a3b8">grpo_grpoposting</text>
    <text x="1284" y="628" class="meta" text-anchor="end">grpo</text>
    <text x="1004" y="664" class="field">PK    id : bigint</text>
    <text x="1004" y="682" class="field">      sap_doc_entry : int (nullable)</text>
    <text x="1004" y="700" class="field">      sap_doc_num : int (nullable)</text>
    <text x="1004" y="718" class="field">      sap_doc_total : decimal (nullable)</text>
    <text x="1004" y="736" class="field">      status : varchar</text>
    <text x="1004" y="754" class="field">      error_message : text (nullable)</text>
    <text x="1004" y="772" class="field">      posted_at : datetime (nullable)</text>
    <text x="1004" y="790" class="field">      created_at : datetime</text>
    <text x="1004" y="808" class="field">... 4 more fields</text>
  </g>
  <g id="grpo_grpoposting_po_receipts" class="card" data-table="grpo_grpoposting_po_receipts">
    <title>grpo_grpoposting_po_receipts</title>
    <rect class="card-outline" x="990" y="870" width="260" height="112" rx="8" fill="#ffffff" stroke="#94a3b8" stroke-width="1.5"/>
    <rect x="990" y="870" width="260" height="34" rx="8" fill="#e2e8f0" stroke="#94a3b8" stroke-width="1"/>
    <rect x="990" y="896" width="260" height="8" fill="#e2e8f0"/>
    <text x="1004" y="892" class="card-title" fill="#94a3b8">grpo_grpoposting_po_receipts</text>
    <text x="1236" y="892" class="meta" text-anchor="end">grpo</text>
    <text x="1004" y="928" class="field">PK    id : bigint</text>
    <text x="1004" y="946" class="field">FK    grpoposting_id : bigint</text>
    <text x="1004" y="964" class="field">FK    poreceipt_id : int</text>
  </g>
  <g id="quality_control_materialarrivalslip" class="card" data-table="quality_control_materialarrivalslip">
    <title>quality_control_materialarrivalslip</title>
    <rect class="card-outline" x="990" y="1026" width="273" height="220" rx="8" fill="#ffffff" stroke="#94a3b8" stroke-width="1.5"/>
    <rect x="990" y="1026" width="273" height="34" rx="8" fill="#e2e8f0" stroke="#94a3b8" stroke-width="1"/>
    <rect x="990" y="1052" width="273" height="8" fill="#e2e8f0"/>
    <text x="1004" y="1048" class="card-title" fill="#94a3b8">quality_control_materialarrivalslip</text>
    <text x="1249" y="1048" class="meta" text-anchor="end">quality_control</text>
    <text x="1004" y="1084" class="field">PK    id : int</text>
    <text x="1004" y="1102" class="field">      created_at : datetime</text>
    <text x="1004" y="1120" class="field">      updated_at : datetime</text>
    <text x="1004" y="1138" class="field">      is_active : boolean</text>
    <text x="1004" y="1156" class="field">      particulars : text</text>
    <text x="1004" y="1174" class="field">      arrival_datetime : datetime</text>
    <text x="1004" y="1192" class="field">      weighing_required : boolean</text>
    <text x="1004" y="1210" class="field">      party_name : varchar</text>
    <text x="1004" y="1228" class="field">... 19 more fields</text>
  </g>

  <script><![CDATA[
    (function () {
      const svg = document.currentScript.ownerSVGElement;
      if (!svg || svg.dataset.erInteractive === "1") return;
      svg.dataset.erInteractive = "1";
      const relations = Array.from(svg.querySelectorAll(".relation"));
      const cards = Array.from(svg.querySelectorAll(".card"));

      function clear() {
        relations.forEach((relation) => relation.classList.remove("active"));
        cards.forEach((card) => card.classList.remove("active-card"));
      }

      function highlight(relation) {
        const src = relation.dataset.src;
        const dst = relation.dataset.dst;
        relations.forEach((item) => {
          item.classList.toggle("active", item === relation);
        });
        cards.forEach((card) => {
          const connected = card.dataset.table === src || card.dataset.table === dst;
          card.classList.toggle("active-card", connected);
        });
      }

      relations.forEach((relation) => {
        relation.addEventListener("click", (event) => {
          event.stopPropagation();
          highlight(relation);
        });
      });
      svg.addEventListener("click", clear);
    })();
  ]]></script>

</svg>
