<svg xmlns="http://www.w3.org/2000/svg" width="1337" height="2808" viewBox="0 0 1337 2808">

  <defs>
    <marker id="arrow" viewBox="0 0 10 10" refX="9" refY="5" markerWidth="7" markerHeight="7" orient="auto-start-reverse">
      <path d="M 0 0 L 10 5 L 0 10 z" fill="#64748b"/>
    </marker>
    <marker id="arrow-active" viewBox="0 0 10 10" refX="9" refY="5" markerWidth="8" markerHeight="8" orient="auto-start-reverse">
      <path d="M 0 0 L 10 5 L 0 10 z" fill="#ef4444"/>
    </marker>
  </defs>

  <style>
    .page-title { font: 700 28px "Segoe UI", Arial, sans-serif; fill: #0f172a; }
    .subtitle { font: 400 13px "Segoe UI", Arial, sans-serif; fill: #475569; }
    .card-title { font: 700 15px "Segoe UI", Arial, sans-serif; }
    .field { font: 12px Consolas, "Liberation Mono", monospace; fill: #1f2937; }
    .meta { font: 12px "Segoe UI", Arial, sans-serif; fill: #64748b; }
    .section { font: 700 14px "Segoe UI", Arial, sans-serif; fill: #334155; }
    .card { transition: opacity .12s ease; }
    .card-outline { transition: stroke .12s ease, stroke-width .12s ease; }
    .card.active-card .card-outline { stroke: #ef4444; stroke-width: 4; }
    .relation { cursor: pointer; }
    .overview-app { cursor: pointer; }
    .overview-app:hover .overview-outline { stroke-width: 4; }
    .edge-hit { stroke: transparent; stroke-width: 18; fill: none; pointer-events: stroke; }
    .edge { stroke: #64748b; stroke-width: 1.8; fill: none; marker-end: url(#arrow); opacity: .62; }
    .external-edge { stroke: #475569; opacity: .58; }
    .relation.active .edge { stroke: #ef4444; stroke-width: 4; marker-end: url(#arrow-active); opacity: 1; }
    .relation.active .edge-label-bg { stroke: #ef4444; stroke-width: 1.5; opacity: 1; }
    .relation.active .edge-label { fill: #b91c1c; font-weight: 700; }
    .edge-label-bg { fill: #ffffff; stroke: #e2e8f0; stroke-width: 1; opacity: .9; }
    .edge-label { font: 10px "Segoe UI", Arial, sans-serif; fill: #475569; }
  </style>
  <rect width="100%" height="100%" fill="#f8fafc"/>
  <text x="60" y="54" class="page-title">Vehicle Management ER Slice</text>
  <text x="60" y="80" class="subtitle">3 local tables, 10 linked external tables, 2 local relationships, 11 external relationships</text>
  <text x="990" y="112" class="section">Linked external tables</text>
  <g class="relation" data-src="vehicle_management_transporter" data-dst="vehicle_management_vehicle" data-label="transporter_id">
    <title>vehicle_management_transporter to vehicle_management_vehicle via transporter_id</title>
    <path class="edge-hit" d="M 230 533 L 210 533 L 210 531 L 190 531 L 190 209 L 210 209 L 210 211 L 230 211"/>
    <path class="edge" d="M 230 533 L 210 533 L 210 531 L 190 531 L 190 209 L 210 209 L 210 211 L 230 211"/>
    <rect class="edge-label-bg" x="142.0" y="362.0" width="96" height="16" rx="4"/>
    <text class="edge-label" x="190.0" y="374.0" text-anchor="middle">transporter_id</text>
  </g>
  <g class="relation" data-src="vehicle_management_vehicletype" data-dst="vehicle_management_vehicle" data-label="vehicle_type_id">
    <title>vehicle_management_vehicletype to vehicle_management_vehicle via vehicle_type_id</title>
    <path class="edge-hit" d="M 230 788 L 210 788 L 210 790 L 100 790 L 100 293 L 204 293 L 204 291 L 230 291"/>
    <path class="edge" d="M 230 788 L 210 788 L 210 790 L 100 790 L 100 293 L 204 293 L 204 291 L 230 291"/>
    <rect class="edge-label-bg" x="49.0" y="533.5" width="102" height="16" rx="4"/>
    <text class="edge-label" x="100.0" y="545.5" text-anchor="middle">vehicle_type_id</text>
  </g>
  <g class="relation" data-src="vehicle_management_transporter" data-dst="dispatch_plans_dispatchplan" data-label="transporter_id">
    <title>vehicle_management_transporter to dispatch_plans_dispatchplan via transporter_id</title>
    <path class="edge-hit" d="M 550 533 L 570 533 L 570 513 L 662 513 L 662 259 L 964 259 L 964 279 L 990 279"/>
    <path class="edge external-edge" d="M 550 533 L 570 533 L 570 513 L 662 513 L 662 259 L 964 259 L 964 279 L 990 279"/>
    <rect class="edge-label-bg" x="614.0" y="270.0" width="96" height="16" rx="4"/>
    <text class="edge-label" x="662.0" y="282.0" text-anchor="middle">transporter_id</text>
  </g>
  <g class="relation" data-src="vehicle_management_vehicle" data-dst="dispatch_plans_dispatchplan" data-label="vehicle_id">
    <title>vehicle_management_vehicle to dispatch_plans_dispatchplan via vehicle_id</title>
    <path class="edge-hit" d="M 550 154 L 570 154 L 570 138 L 590 138 L 590 189 L 970 189 L 970 205 L 990 205"/>
    <path class="edge external-edge" d="M 550 154 L 570 154 L 570 138 L 590 138 L 590 189 L 970 189 L 970 205 L 990 205"/>
    <rect class="edge-label-bg" x="708.5" y="181.0" width="72" height="16" rx="4"/>
    <text class="edge-label" x="744.5" y="193.0" text-anchor="middle">vehicle_id</text>
  </g>
  <g class="relation" data-src="vehicle_management_vehicle" data-dst="driver_management_vehicleentry" data-label="vehicle_id">
    <title>vehicle_management_vehicle to driver_management_vehicleentry via vehicle_id</title>
    <path class="edge-hit" d="M 550 175 L 576 175 L 576 163 L 626 163 L 626 494 L 970 494 L 970 506 L 990 506"/>
    <path class="edge external-edge" d="M 550 175 L 576 175 L 576 163 L 626 163 L 626 494 L 970 494 L 970 506 L 990 506"/>
    <rect class="edge-label-bg" x="590.0" y="464.5" width="72" height="16" rx="4"/>
    <text class="edge-label" x="626.0" y="476.5" text-anchor="middle">vehicle_id</text>
  </g>
  <g class="relation" data-src="vehicle_management_vehicle" data-dst="gate_core_bstgatein" data-label="vehicle_id">
    <title>vehicle_management_vehicle to gate_core_bstgatein via vehicle_id</title>
    <path class="edge-hit" d="M 550 197 L 582 197 L 582 189 L 698 189 L 698 762 L 970 762 L 970 770 L 990 770"/>
    <path class="edge external-edge" d="M 550 197 L 582 197 L 582 189 L 698 189 L 698 762 L 970 762 L 970 770 L 990 770"/>
    <rect class="edge-label-bg" x="662.0" y="539.5" width="72" height="16" rx="4"/>
    <text class="edge-label" x="698.0" y="551.5" text-anchor="middle">vehicle_id</text>
  </g>
  <g class="relation" data-src="vehicle_management_vehicle" data-dst="gate_core_bstgateout" data-label="vehicle_id">
    <title>vehicle_management_vehicle to gate_core_bstgateout via vehicle_id</title>
    <path class="edge-hit" d="M 550 219 L 588 219 L 588 215 L 734 215 L 734 1030 L 970 1030 L 970 1034 L 990 1034"/>
    <path class="edge external-edge" d="M 550 219 L 588 219 L 588 215 L 734 215 L 734 1030 L 970 1030 L 970 1034 L 990 1034"/>
    <rect class="edge-label-bg" x="698.0" y="650.5" width="72" height="16" rx="4"/>
    <text class="edge-label" x="734.0" y="662.5" text-anchor="middle">vehicle_id</text>
  </g>
  <g class="relation" data-src="vehicle_management_vehicle" data-dst="gate_core_bstgatereturn" data-label="vehicle_id">
    <title>vehicle_management_vehicle to gate_core_bstgatereturn via vehicle_id</title>
    <path class="edge-hit" d="M 550 240 L 770 240 L 770 1298 L 990 1298"/>
    <path class="edge external-edge" d="M 550 240 L 770 240 L 770 1298 L 990 1298"/>
    <rect class="edge-label-bg" x="734.0" y="761.0" width="72" height="16" rx="4"/>
    <text class="edge-label" x="770.0" y="773.0" text-anchor="middle">vehicle_id</text>
  </g>
  <g class="relation" data-src="vehicle_management_vehicle" data-dst="gate_core_dispatchgateout" data-label="vehicle_id">
    <title>vehicle_management_vehicle to gate_core_dispatchgateout via vehicle_id</title>
    <path class="edge-hit" d="M 550 262 L 600 262 L 600 266 L 806 266 L 806 1566 L 970 1566 L 970 1562 L 990 1562"/>
    <path class="edge external-edge" d="M 550 262 L 600 262 L 600 266 L 806 266 L 806 1566 L 970 1566 L 970 1562 L 990 1562"/>
    <rect class="edge-label-bg" x="770.0" y="872.0" width="72" height="16" rx="4"/>
    <text class="edge-label" x="806.0" y="884.0" text-anchor="middle">vehicle_id</text>
  </g>
  <g class="relation" data-src="vehicle_management_vehicle" data-dst="gate_core_emptyvehiclegatein" data-label="vehicle_id">
    <title>vehicle_management_vehicle to gate_core_emptyvehiclegatein via vehicle_id</title>
    <path class="edge-hit" d="M 550 283 L 606 283 L 606 291 L 842 291 L 842 1834 L 970 1834 L 970 1826 L 990 1826"/>
    <path class="edge external-edge" d="M 550 283 L 606 283 L 606 291 L 842 291 L 842 1834 L 970 1834 L 970 1826 L 990 1826"/>
    <rect class="edge-label-bg" x="806.0" y="982.5" width="72" height="16" rx="4"/>
    <text class="edge-label" x="842.0" y="994.5" text-anchor="middle">vehicle_id</text>
  </g>
  <g class="relation" data-src="vehicle_management_vehicle" data-dst="gate_core_emptyvehiclegateout" data-label="vehicle_id">
    <title>vehicle_management_vehicle to gate_core_emptyvehiclegateout via vehicle_id</title>
    <path class="edge-hit" d="M 550 305 L 612 305 L 612 317 L 878 317 L 878 2102 L 970 2102 L 970 2090 L 990 2090"/>
    <path class="edge external-edge" d="M 550 305 L 612 305 L 612 317 L 878 317 L 878 2102 L 970 2102 L 970 2090 L 990 2090"/>
    <rect class="edge-label-bg" x="842.0" y="1093.5" width="72" height="16" rx="4"/>
    <text class="edge-label" x="878.0" y="1105.5" text-anchor="middle">vehicle_id</text>
  </g>
  <g class="relation" data-src="vehicle_management_vehicle" data-dst="gate_core_jobworkgatein" data-label="vehicle_id">
    <title>vehicle_management_vehicle to gate_core_jobworkgatein via vehicle_id</title>
    <path class="edge-hit" d="M 550 327 L 618 327 L 618 343 L 914 343 L 914 2370 L 970 2370 L 970 2354 L 990 2354"/>
    <path class="edge external-edge" d="M 550 327 L 618 327 L 618 343 L 914 343 L 914 2370 L 970 2370 L 970 2354 L 990 2354"/>
    <rect class="edge-label-bg" x="878.0" y="1204.5" width="72" height="16" rx="4"/>
    <text class="edge-label" x="914.0" y="1216.5" text-anchor="middle">vehicle_id</text>
  </g>
  <g class="relation" data-src="vehicle_management_vehicle" data-dst="gate_core_rejectedqcreturnentry" data-label="vehicle_id">
    <title>vehicle_management_vehicle to gate_core_rejectedqcreturnentry via vehicle_id</title>
    <path class="edge-hit" d="M 550 348 L 624 348 L 624 368 L 950 368 L 950 2638 L 970 2638 L 970 2618 L 990 2618"/>
    <path class="edge external-edge" d="M 550 348 L 624 348 L 624 368 L 950 368 L 950 2638 L 970 2638 L 970 2618 L 990 2618"/>
    <rect class="edge-label-bg" x="914.0" y="1315.0" width="72" height="16" rx="4"/>
    <text class="edge-label" x="950.0" y="1327.0" text-anchor="middle">vehicle_id</text>
  </g>
  <g id="vehicle_management_vehicle" class="card" data-table="vehicle_management_vehicle">
    <title>vehicle_management_vehicle</title>
    <rect class="card-outline" x="230" y="132" width="320" height="238" rx="8" fill="#ffffff" stroke="#475569" stroke-width="1.5"/>
    <rect x="230" y="132" width="320" height="34" rx="8" fill="#e2e8f0" stroke="#475569" stroke-width="1"/>
    <rect x="230" y="158" width="320" height="8" fill="#e2e8f0"/>
    <text x="244" y="154" class="card-title" fill="#475569">vehicle_management_vehicle</text>
    <text x="244" y="190" class="field">PK    id : int</text>
    <text x="244" y="208" class="field">      created_at : datetime</text>
    <text x="244" y="226" class="field">      updated_at : datetime</text>
    <text x="244" y="244" class="field">      is_active : boolean</text>
    <text x="244" y="262" class="field">UK    vehicle_number : varchar</text>
    <text x="244" y="280" class="field">FK    vehicle_type_id : int (nullable)</text>
    <text x="244" y="298" class="field">      capacity_ton : decimal (nullable)</text>
    <text x="244" y="316" class="field">      created_by_id : int (nullable)</text>
    <text x="244" y="334" class="field">FK    transporter_id : int (nullable)</text>
    <text x="244" y="352" class="field">      updated_by_id : int (nullable)</text>
  </g>
  <g id="vehicle_management_transporter" class="card" data-table="vehicle_management_transporter">
    <title>vehicle_management_transporter</title>
    <rect class="card-outline" x="230" y="414" width="320" height="238" rx="8" fill="#ffffff" stroke="#475569" stroke-width="1.5"/>
    <rect x="230" y="414" width="320" height="34" rx="8" fill="#e2e8f0" stroke="#475569" stroke-width="1"/>
    <rect x="230" y="440" width="320" height="8" fill="#e2e8f0"/>
    <text x="244" y="436" class="card-title" fill="#475569">vehicle_management_transporter</text>
    <text x="244" y="472" class="field">PK    id : int</text>
    <text x="244" y="490" class="field">      created_at : datetime</text>
    <text x="244" y="508" class="field">      updated_at : datetime</text>
    <text x="244" y="526" class="field">      is_active : boolean</text>
    <text x="244" y="544" class="field">UK    name : varchar</text>
    <text x="244" y="562" class="field">      contact_person : varchar</text>
    <text x="244" y="580" class="field">      mobile_no : varchar</text>
    <text x="244" y="598" class="field">      created_by_id : int (nullable)</text>
    <text x="244" y="616" class="field">      updated_by_id : int (nullable)</text>
    <text x="244" y="634" class="field">      gstin : varchar</text>
  </g>
  <g id="vehicle_management_vehicletype" class="card" data-table="vehicle_management_vehicletype">
    <title>vehicle_management_vehicletype</title>
    <rect class="card-outline" x="230" y="696" width="320" height="184" rx="8" fill="#ffffff" stroke="#475569" stroke-width="1.5"/>
    <rect x="230" y="696" width="320" height="34" rx="8" fill="#e2e8f0" stroke="#475569" stroke-width="1"/>
    <rect x="230" y="722" width="320" height="8" fill="#e2e8f0"/>
    <text x="244" y="718" class="card-title" fill="#475569">vehicle_management_vehicletype</text>
    <text x="244" y="754" class="field">PK    id : int</text>
    <text x="244" y="772" class="field">      created_at : datetime</text>
    <text x="244" y="790" class="field">      updated_at : datetime</text>
    <text x="244" y="808" class="field">      is_active : boolean</text>
    <text x="244" y="826" class="field">UK    name : varchar</text>
    <text x="244" y="844" class="field">      created_by_id : int (nullable)</text>
    <text x="244" y="862" class="field">      updated_by_id : int (nullable)</text>
  </g>
  <g id="dispatch_plans_dispatchplan" class="card" data-table="dispatch_plans_dispatchplan">
    <title>dispatch_plans_dispatchplan</title>
    <rect class="card-outline" x="990" y="132" width="287" height="220" rx="8" fill="#ffffff" stroke="#94a3b8" stroke-width="1.5"/>
    <rect x="990" y="132" width="287" height="34" rx="8" fill="#e2e8f0" stroke="#94a3b8" stroke-width="1"/>
    <rect x="990" y="158" width="287" height="8" fill="#e2e8f0"/>
    <text x="1004" y="154" class="card-title" fill="#94a3b8">dispatch_plans_dispatchplan</text>
    <text x="1263" y="154" class="meta" text-anchor="end">dispatch_plans</text>
    <text x="1004" y="190" class="field">PK    id : bigint</text>
    <text x="1004" y="208" class="field">      created_at : datetime</text>
    <text x="1004" y="226" class="field">      updated_at : datetime</text>
    <text x="1004" y="244" class="field">      is_active : boolean</text>
    <text x="1004" y="262" class="field">      sap_invoice_doc_entry : int</text>
    <text x="1004" y="280" class="field">      sap_invoice_doc_num : varchar</text>
    <text x="1004" y="298" class="field">      booking_status : varchar</text>
    <text x="1004" y="316" class="field">      dispatch_date : date (nullable)</text>
    <text x="1004" y="334" class="field">... 39 more fields</text>
  </g>
  <g id="driver_management_vehicleentry" class="card" data-table="driver_management_vehicleentry">
    <title>driver_management_vehicleentry</title>
    <rect class="card-outline" x="990" y="396" width="260" height="220" rx="8" fill="#ffffff" stroke="#94a3b8" stroke-width="1.5"/>
    <rect x="990" y="396" width="260" height="34" rx="8" fill="#e2e8f0" stroke="#94a3b8" stroke-width="1"/>
    <rect x="990" y="422" width="260" height="8" fill="#e2e8f0"/>
    <text x="1004" y="418" class="card-title" fill="#94a3b8">driver_management_vehicleentry</text>
    <text x="1236" y="418" class="meta" text-anchor="end">driver_management</text>
    <text x="1004" y="454" class="field">PK    id : int</text>
    <text x="1004" y="472" class="field">      created_at : datetime</text>
    <text x="1004" y="490" class="field">      updated_at : datetime</text>
    <text x="1004" y="508" class="field">      is_active : boolean</text>
    <text x="1004" y="526" class="field">UK    entry_no : varchar</text>
    <text x="1004" y="544" class="field">      status : varchar</text>
    <text x="1004" y="562" class="field">      is_locked : boolean</text>
    <text x="1004" y="580" class="field">      entry_time : datetime</text>
    <text x="1004" y="598" class="field">... 7 more fields</text>
  </g>
  <g id="gate_core_bstgatein" class="card" data-table="gate_core_bstgatein">
    <title>gate_core_bstgatein</title>
    <rect class="card-outline" x="990" y="660" width="260" height="220" rx="8" fill="#ffffff" stroke="#94a3b8" stroke-width="1.5"/>
    <rect x="990" y="660" width="260" height="34" rx="8" fill="#e2e8f0" stroke="#94a3b8" stroke-width="1"/>
    <rect x="990" y="686" width="260" height="8" fill="#e2e8f0"/>
    <text x="1004" y="682" class="card-title" fill="#94a3b8">gate_core_bstgatein</text>
    <text x="1236" y="682" class="meta" text-anchor="end">gate_core</text>
    <text x="1004" y="718" class="field">PK    id : bigint</text>
    <text x="1004" y="736" class="field">      created_at : datetime</text>
    <text x="1004" y="754" class="field">      updated_at : datetime</text>
    <text x="1004" y="772" class="field">      is_active : boolean</text>
    <text x="1004" y="790" class="field">UK    entry_no : varchar</text>
    <text x="1004" y="808" class="field">      gate_in_date : date</text>
    <text x="1004" y="826" class="field">      in_time : time</text>
    <text x="1004" y="844" class="field">      security_name : varchar</text>
    <text x="1004" y="862" class="field">... 12 more fields</text>
  </g>
  <g id="gate_core_bstgateout" class="card" data-table="gate_core_bstgateout">
    <title>gate_core_bstgateout</title>
    <rect class="card-outline" x="990" y="924" width="280" height="220" rx="8" fill="#ffffff" stroke="#94a3b8" stroke-width="1.5"/>
    <rect x="990" y="924" width="280" height="34" rx="8" fill="#e2e8f0" stroke="#94a3b8" stroke-width="1"/>
    <rect x="990" y="950" width="280" height="8" fill="#e2e8f0"/>
    <text x="1004" y="946" class="card-title" fill="#94a3b8">gate_core_bstgateout</text>
    <text x="1256" y="946" class="meta" text-anchor="end">gate_core</text>
    <text x="1004" y="982" class="field">PK    id : bigint</text>
    <text x="1004" y="1000" class="field">      created_at : datetime</text>
    <text x="1004" y="1018" class="field">      updated_at : datetime</text>
    <text x="1004" y="1036" class="field">      is_active : boolean</text>
    <text x="1004" y="1054" class="field">UK    entry_no : varchar</text>
    <text x="1004" y="1072" class="field">      sap_doc_entry : int</text>
    <text x="1004" y="1090" class="field">      sap_doc_num : varchar</text>
    <text x="1004" y="1108" class="field">      sap_doc_date : date (nullable)</text>
    <text x="1004" y="1126" class="field">... 19 more fields</text>
  </g>
  <g id="gate_core_bstgatereturn" class="card" data-table="gate_core_bstgatereturn">
    <title>gate_core_bstgatereturn</title>
    <rect class="card-outline" x="990" y="1188" width="260" height="220" rx="8" fill="#ffffff" stroke="#94a3b8" stroke-width="1.5"/>
    <rect x="990" y="1188" width="260" height="34" rx="8" fill="#e2e8f0" stroke="#94a3b8" stroke-width="1"/>
    <rect x="990" y="1214" width="260" height="8" fill="#e2e8f0"/>
    <text x="1004" y="1210" class="card-title" fill="#94a3b8">gate_core_bstgatereturn</text>
    <text x="1236" y="1210" class="meta" text-anchor="end">gate_core</text>
    <text x="1004" y="1246" class="field">PK    id : bigint</text>
    <text x="1004" y="1264" class="field">      created_at : datetime</text>
    <text x="1004" y="1282" class="field">      updated_at : datetime</text>
    <text x="1004" y="1300" class="field">      is_active : boolean</text>
    <text x="1004" y="1318" class="field">UK    entry_no : varchar</text>
    <text x="1004" y="1336" class="field">      gate_in_date : date</text>
    <text x="1004" y="1354" class="field">      in_time : time</text>
    <text x="1004" y="1372" class="field">      security_name : varchar</text>
    <text x="1004" y="1390" class="field">... 12 more fields</text>
  </g>
  <g id="gate_core_dispatchgateout" class="card" data-table="gate_core_dispatchgateout">
    <title>gate_core_dispatchgateout</title>
    <rect class="card-outline" x="990" y="1452" width="273" height="220" rx="8" fill="#ffffff" stroke="#94a3b8" stroke-width="1.5"/>
    <rect x="990" y="1452" width="273" height="34" rx="8" fill="#e2e8f0" stroke="#94a3b8" stroke-width="1"/>
    <rect x="990" y="1478" width="273" height="8" fill="#e2e8f0"/>
    <text x="1004" y="1474" class="card-title" fill="#94a3b8">gate_core_dispatchgateout</text>
    <text x="1249" y="1474" class="meta" text-anchor="end">gate_core</text>
    <text x="1004" y="1510" class="field">PK    id : bigint</text>
    <text x="1004" y="1528" class="field">      created_at : datetime</text>
    <text x="1004" y="1546" class="field">      updated_at : datetime</text>
    <text x="1004" y="1564" class="field">      is_active : boolean</text>
    <text x="1004" y="1582" class="field">UK    entry_no : varchar</text>
    <text x="1004" y="1600" class="field">      sap_invoice_doc_entry : int</text>
    <text x="1004" y="1618" class="field">      sap_invoice_doc_num : varchar</text>
    <text x="1004" y="1636" class="field">      customer_code : varchar</text>
    <text x="1004" y="1654" class="field">... 44 more fields</text>
  </g>
  <g id="gate_core_emptyvehiclegatein" class="card" data-table="gate_core_emptyvehiclegatein">
    <title>gate_core_emptyvehiclegatein</title>
    <rect class="card-outline" x="990" y="1716" width="260" height="220" rx="8" fill="#ffffff" stroke="#94a3b8" stroke-width="1.5"/>
    <rect x="990" y="1716" width="260" height="34" rx="8" fill="#e2e8f0" stroke="#94a3b8" stroke-width="1"/>
    <rect x="990" y="1742" width="260" height="8" fill="#e2e8f0"/>
    <text x="1004" y="1738" class="card-title" fill="#94a3b8">gate_core_emptyvehiclegatein</text>
    <text x="1236" y="1738" class="meta" text-anchor="end">gate_core</text>
    <text x="1004" y="1774" class="field">PK    id : bigint</text>
    <text x="1004" y="1792" class="field">      created_at : datetime</text>
    <text x="1004" y="1810" class="field">      updated_at : datetime</text>
    <text x="1004" y="1828" class="field">      is_active : boolean</text>
    <text x="1004" y="1846" class="field">UK    entry_no : varchar</text>
    <text x="1004" y="1864" class="field">      reason : varchar</text>
    <text x="1004" y="1882" class="field">      gate_in_date : date</text>
    <text x="1004" y="1900" class="field">      in_time : time</text>
    <text x="1004" y="1918" class="field">... 19 more fields</text>
  </g>
  <g id="gate_core_emptyvehiclegateout" class="card" data-table="gate_core_emptyvehiclegateout">
    <title>gate_core_emptyvehiclegateout</title>
    <rect class="card-outline" x="990" y="1980" width="260" height="220" rx="8" fill="#ffffff" stroke="#94a3b8" stroke-width="1.5"/>
    <rect x="990" y="1980" width="260" height="34" rx="8" fill="#e2e8f0" stroke="#94a3b8" stroke-width="1"/>
    <rect x="990" y="2006" width="260" height="8" fill="#e2e8f0"/>
    <text x="1004" y="2002" class="card-title" fill="#94a3b8">gate_core_emptyvehiclegateout</text>
    <text x="1236" y="2002" class="meta" text-anchor="end">gate_core</text>
    <text x="1004" y="2038" class="field">PK    id : bigint</text>
    <text x="1004" y="2056" class="field">      created_at : datetime</text>
    <text x="1004" y="2074" class="field">      updated_at : datetime</text>
    <text x="1004" y="2092" class="field">      is_active : boolean</text>
    <text x="1004" y="2110" class="field">UK    entry_no : varchar</text>
    <text x="1004" y="2128" class="field">      gate_out_date : date</text>
    <text x="1004" y="2146" class="field">      out_time : time</text>
    <text x="1004" y="2164" class="field">      security_name : varchar</text>
    <text x="1004" y="2182" class="field">... 11 more fields</text>
  </g>
  <g id="gate_core_jobworkgatein" class="card" data-table="gate_core_jobworkgatein">
    <title>gate_core_jobworkgatein</title>
    <rect class="card-outline" x="990" y="2244" width="280" height="220" rx="8" fill="#ffffff" stroke="#94a3b8" stroke-width="1.5"/>
    <rect x="990" y="2244" width="280" height="34" rx="8" fill="#e2e8f0" stroke="#94a3b8" stroke-width="1"/>
    <rect x="990" y="2270" width="280" height="8" fill="#e2e8f0"/>
    <text x="1004" y="2266" class="card-title" fill="#94a3b8">gate_core_jobworkgatein</text>
    <text x="1256" y="2266" class="meta" text-anchor="end">gate_core</text>
    <text x="1004" y="2302" class="field">PK    id : bigint</text>
    <text x="1004" y="2320" class="field">      created_at : datetime</text>
    <text x="1004" y="2338" class="field">      updated_at : datetime</text>
    <text x="1004" y="2356" class="field">      is_active : boolean</text>
    <text x="1004" y="2374" class="field">UK    entry_no : varchar</text>
    <text x="1004" y="2392" class="field">      sap_doc_entry : int (nullable)</text>
    <text x="1004" y="2410" class="field">      sap_doc_num : varchar</text>
    <text x="1004" y="2428" class="field">      sap_doc_date : date (nullable)</text>
    <text x="1004" y="2446" class="field">... 29 more fields</text>
  </g>
  <g id="gate_core_rejectedqcreturnentry" class="card" data-table="gate_core_rejectedqcreturnentry">
    <title>gate_core_rejectedqcreturnentry</title>
    <rect class="card-outline" x="990" y="2508" width="260" height="220" rx="8" fill="#ffffff" stroke="#94a3b8" stroke-width="1.5"/>
    <rect x="990" y="2508" width="260" height="34" rx="8" fill="#e2e8f0" stroke="#94a3b8" stroke-width="1"/>
    <rect x="990" y="2534" width="260" height="8" fill="#e2e8f0"/>
    <text x="1004" y="2530" class="card-title" fill="#94a3b8">gate_core_rejectedqcreturnentry</text>
    <text x="1236" y="2530" class="meta" text-anchor="end">gate_core</text>
    <text x="1004" y="2566" class="field">PK    id : bigint</text>
    <text x="1004" y="2584" class="field">      created_at : datetime</text>
    <text x="1004" y="2602" class="field">      updated_at : datetime</text>
    <text x="1004" y="2620" class="field">      is_active : boolean</text>
    <text x="1004" y="2638" class="field">UK    entry_no : varchar</text>
    <text x="1004" y="2656" class="field">      gate_out_date : date</text>
    <text x="1004" y="2674" class="field">      out_time : time (nullable)</text>
    <text x="1004" y="2692" class="field">      challan_no : varchar</text>
    <text x="1004" y="2710" class="field">... 17 more fields</text>
  </g>

  <script><![CDATA[
    (function () {
      const svg = document.currentScript.ownerSVGElement;
      if (!svg || svg.dataset.erInteractive === "1") return;
      svg.dataset.erInteractive = "1";
      const relations = Array.from(svg.querySelectorAll(".relation"));
      const cards = Array.from(svg.querySelectorAll(".card"));

      function clear() {
        relations.forEach((relation) => relation.classList.remove("active"));
        cards.forEach((card) => card.classList.remove("active-card"));
      }

      function highlight(relation) {
        const src = relation.dataset.src;
        const dst = relation.dataset.dst;
        relations.forEach((item) => {
          item.classList.toggle("active", item === relation);
        });
        cards.forEach((card) => {
          const connected = card.dataset.table === src || card.dataset.table === dst;
          card.classList.toggle("active-card", connected);
        });
      }

      relations.forEach((relation) => {
        relation.addEventListener("click", (event) => {
          event.stopPropagation();
          highlight(relation);
        });
      });
      svg.addEventListener("click", clear);
    })();
  ]]></script>

</svg>
