<svg xmlns="http://www.w3.org/2000/svg" width="1360" height="1374" viewBox="0 0 1360 1374">

  <defs>
    <marker id="arrow" viewBox="0 0 10 10" refX="9" refY="5" markerWidth="7" markerHeight="7" orient="auto-start-reverse">
      <path d="M 0 0 L 10 5 L 0 10 z" fill="#64748b"/>
    </marker>
    <marker id="arrow-active" viewBox="0 0 10 10" refX="9" refY="5" markerWidth="8" markerHeight="8" orient="auto-start-reverse">
      <path d="M 0 0 L 10 5 L 0 10 z" fill="#ef4444"/>
    </marker>
  </defs>

  <style>
    .page-title { font: 700 28px "Segoe UI", Arial, sans-serif; fill: #0f172a; }
    .subtitle { font: 400 13px "Segoe UI", Arial, sans-serif; fill: #475569; }
    .card-title { font: 700 15px "Segoe UI", Arial, sans-serif; }
    .field { font: 12px Consolas, "Liberation Mono", monospace; fill: #1f2937; }
    .meta { font: 12px "Segoe UI", Arial, sans-serif; fill: #64748b; }
    .section { font: 700 14px "Segoe UI", Arial, sans-serif; fill: #334155; }
    .card { transition: opacity .12s ease; }
    .card-outline { transition: stroke .12s ease, stroke-width .12s ease; }
    .card.active-card .card-outline { stroke: #ef4444; stroke-width: 4; }
    .relation { cursor: pointer; }
    .overview-app { cursor: pointer; }
    .overview-app:hover .overview-outline { stroke-width: 4; }
    .edge-hit { stroke: transparent; stroke-width: 18; fill: none; pointer-events: stroke; }
    .edge { stroke: #64748b; stroke-width: 1.8; fill: none; marker-end: url(#arrow); opacity: .62; }
    .external-edge { stroke: #475569; opacity: .58; }
    .relation.active .edge { stroke: #ef4444; stroke-width: 4; marker-end: url(#arrow-active); opacity: 1; }
    .relation.active .edge-label-bg { stroke: #ef4444; stroke-width: 1.5; opacity: 1; }
    .relation.active .edge-label { fill: #b91c1c; font-weight: 700; }
    .edge-label-bg { fill: #ffffff; stroke: #e2e8f0; stroke-width: 1; opacity: .9; }
    .edge-label { font: 10px "Segoe UI", Arial, sans-serif; fill: #475569; }
  </style>
  <rect width="100%" height="100%" fill="#f8fafc"/>
  <text x="60" y="54" class="page-title">Warehouse ER Slice</text>
  <text x="60" y="80" class="subtitle">3 local tables, 2 linked external tables, 1 local relationships, 4 external relationships</text>
  <text x="1006" y="112" class="section">Linked external tables</text>
  <g class="relation" data-src="warehouse_bomrequest" data-dst="warehouse_bomrequestline" data-label="bom_request_id">
    <title>warehouse_bomrequest to warehouse_bomrequestline via bom_request_id</title>
    <path class="edge-hit" d="M 230 296 L 190 296 L 190 1121 L 230 1121"/>
    <path class="edge" d="M 230 296 L 190 296 L 190 1121 L 230 1121"/>
    <rect class="edge-label-bg" x="142.0" y="700.5" width="96" height="16" rx="4"/>
    <text class="edge-label" x="190.0" y="712.5" text-anchor="middle">bom_request_id</text>
  </g>
  <g class="relation" data-src="company_company" data-dst="warehouse_bomrequest" data-label="company_id">
    <title>company_company to warehouse_bomrequest via company_id</title>
    <path class="edge-hit" d="M 1006 175 L 986 175 L 986 169 L 606 169 L 606 235 L 570 235 L 570 241 L 550 241"/>
    <path class="edge external-edge" d="M 1006 175 L 986 175 L 986 169 L 606 169 L 606 235 L 570 235 L 570 241 L 550 241"/>
    <rect class="edge-label-bg" x="709.0" y="161.0" width="72" height="16" rx="4"/>
    <text class="edge-label" x="745.0" y="173.0" text-anchor="middle">company_id</text>
  </g>
  <g class="relation" data-src="company_company" data-dst="warehouse_finishedgoodsreceipt" data-label="company_id">
    <title>company_company to warehouse_finishedgoodsreceipt via company_id</title>
    <path class="edge-hit" d="M 1006 219 L 980 219 L 980 217 L 846 217 L 846 635 L 586 635 L 586 637 L 566 637"/>
    <path class="edge external-edge" d="M 1006 219 L 980 219 L 980 217 L 846 217 L 846 635 L 586 635 L 586 637 L 566 637"/>
    <rect class="edge-label-bg" x="810.0" y="478.0" width="72" height="16" rx="4"/>
    <text class="edge-label" x="846.0" y="490.0" text-anchor="middle">company_id</text>
  </g>
  <g class="relation" data-src="production_execution_productionrun" data-dst="warehouse_bomrequest" data-label="production_run_id">
    <title>production_execution_productionrun to warehouse_bomrequest via production_run_id</title>
    <path class="edge-hit" d="M 1006 379 L 986 379 L 986 381 L 726 381 L 726 353 L 576 353 L 576 351 L 550 351"/>
    <path class="edge external-edge" d="M 1006 379 L 986 379 L 986 381 L 726 381 L 726 353 L 576 353 L 576 351 L 550 351"/>
    <rect class="edge-label-bg" x="707.0" y="373.0" width="114" height="16" rx="4"/>
    <text class="edge-label" x="764.0" y="385.0" text-anchor="middle">production_run_id</text>
  </g>
  <g class="relation" data-src="production_execution_productionrun" data-dst="warehouse_finishedgoodsreceipt" data-label="production_run_id">
    <title>production_execution_productionrun to warehouse_finishedgoodsreceipt via production_run_id</title>
    <path class="edge-hit" d="M 1006 453 L 980 453 L 980 459 L 966 459 L 966 777 L 592 777 L 592 771 L 566 771"/>
    <path class="edge external-edge" d="M 1006 453 L 980 453 L 980 459 L 966 459 L 966 777 L 592 777 L 592 771 L 566 771"/>
    <rect class="edge-label-bg" x="888.0" y="769.0" width="114" height="16" rx="4"/>
    <text class="edge-label" x="945.0" y="781.0" text-anchor="middle">production_run_id</text>
  </g>
  <g id="warehouse_bomrequest" class="card" data-table="warehouse_bomrequest">
    <title>warehouse_bomrequest</title>
    <rect class="card-outline" x="230" y="132" width="320" height="328" rx="8" fill="#ffffff" stroke="#dc2626" stroke-width="1.5"/>
    <rect x="230" y="132" width="320" height="34" rx="8" fill="#fee2e2" stroke="#dc2626" stroke-width="1"/>
    <rect x="230" y="158" width="320" height="8" fill="#fee2e2"/>
    <text x="244" y="154" class="card-title" fill="#dc2626">warehouse_bomrequest</text>
    <text x="244" y="190" class="field">PK    id : bigint</text>
    <text x="244" y="208" class="field">      sap_doc_entry : int (nullable)</text>
    <text x="244" y="226" class="field">      required_qty : decimal</text>
    <text x="244" y="244" class="field">      status : varchar</text>
    <text x="244" y="262" class="field">      remarks : text</text>
    <text x="244" y="280" class="field">      rejection_reason : text</text>
    <text x="244" y="298" class="field">      material_issue_status : varchar</text>
    <text x="244" y="316" class="field">      sap_issue_doc_entries : json</text>
    <text x="244" y="334" class="field">      reviewed_at : datetime (nullable)</text>
    <text x="244" y="352" class="field">      created_at : datetime</text>
    <text x="244" y="370" class="field">      updated_at : datetime</text>
    <text x="244" y="388" class="field">FK    company_id : bigint</text>
    <text x="244" y="406" class="field">FK    production_run_id : bigint</text>
    <text x="244" y="424" class="field">      requested_by_id : bigint (nullable)</text>
    <text x="244" y="442" class="field">      reviewed_by_id : bigint (nullable)</text>
  </g>
  <g id="warehouse_finishedgoodsreceipt" class="card" data-table="warehouse_finishedgoodsreceipt">
    <title>warehouse_finishedgoodsreceipt</title>
    <rect class="card-outline" x="230" y="504" width="336" height="400" rx="8" fill="#ffffff" stroke="#dc2626" stroke-width="1.5"/>
    <rect x="230" y="504" width="336" height="34" rx="8" fill="#fee2e2" stroke="#dc2626" stroke-width="1"/>
    <rect x="230" y="530" width="336" height="8" fill="#fee2e2"/>
    <text x="244" y="526" class="card-title" fill="#dc2626">warehouse_finishedgoodsreceipt</text>
    <text x="244" y="562" class="field">PK    id : bigint</text>
    <text x="244" y="580" class="field">      sap_doc_entry : int (nullable)</text>
    <text x="244" y="598" class="field">      item_code : varchar</text>
    <text x="244" y="616" class="field">      item_name : varchar</text>
    <text x="244" y="634" class="field">      produced_qty : decimal</text>
    <text x="244" y="652" class="field">      good_qty : decimal</text>
    <text x="244" y="670" class="field">      rejected_qty : decimal</text>
    <text x="244" y="688" class="field">      warehouse : varchar</text>
    <text x="244" y="706" class="field">      uom : varchar</text>
    <text x="244" y="724" class="field">      posting_date : date</text>
    <text x="244" y="742" class="field">      status : varchar</text>
    <text x="244" y="760" class="field">      sap_receipt_doc_entry : int (nullable)</text>
    <text x="244" y="778" class="field">      sap_error : text</text>
    <text x="244" y="796" class="field">      received_at : datetime (nullable)</text>
    <text x="244" y="814" class="field">      created_at : datetime</text>
    <text x="244" y="832" class="field">      updated_at : datetime</text>
    <text x="244" y="850" class="field">FK    company_id : bigint</text>
    <text x="244" y="868" class="field">FK    production_run_id : bigint</text>
    <text x="244" y="886" class="field">      received_by_id : bigint (nullable)</text>
  </g>
  <g id="warehouse_bomrequestline" class="card" data-table="warehouse_bomrequestline">
    <title>warehouse_bomrequestline</title>
    <rect class="card-outline" x="230" y="948" width="320" height="346" rx="8" fill="#ffffff" stroke="#dc2626" stroke-width="1.5"/>
    <rect x="230" y="948" width="320" height="34" rx="8" fill="#fee2e2" stroke="#dc2626" stroke-width="1"/>
    <rect x="230" y="974" width="320" height="8" fill="#fee2e2"/>
    <text x="244" y="970" class="card-title" fill="#dc2626">warehouse_bomrequestline</text>
    <text x="244" y="1006" class="field">PK    id : bigint</text>
    <text x="244" y="1024" class="field">      item_code : varchar</text>
    <text x="244" y="1042" class="field">      item_name : varchar</text>
    <text x="244" y="1060" class="field">      per_unit_qty : decimal</text>
    <text x="244" y="1078" class="field">      required_qty : decimal</text>
    <text x="244" y="1096" class="field">      available_stock : decimal</text>
    <text x="244" y="1114" class="field">      approved_qty : decimal</text>
    <text x="244" y="1132" class="field">      issued_qty : decimal</text>
    <text x="244" y="1150" class="field">      warehouse : varchar</text>
    <text x="244" y="1168" class="field">      uom : varchar</text>
    <text x="244" y="1186" class="field">      base_line : int</text>
    <text x="244" y="1204" class="field">      status : varchar</text>
    <text x="244" y="1222" class="field">      remarks : text</text>
    <text x="244" y="1240" class="field">      created_at : datetime</text>
    <text x="244" y="1258" class="field">      updated_at : datetime</text>
    <text x="244" y="1276" class="field">FK    bom_request_id : bigint</text>
  </g>
  <g id="company_company" class="card" data-table="company_company">
    <title>company_company</title>
    <rect class="card-outline" x="1006" y="132" width="260" height="130" rx="8" fill="#ffffff" stroke="#94a3b8" stroke-width="1.5"/>
    <rect x="1006" y="132" width="260" height="34" rx="8" fill="#e2e8f0" stroke="#94a3b8" stroke-width="1"/>
    <rect x="1006" y="158" width="260" height="8" fill="#e2e8f0"/>
    <text x="1020" y="154" class="card-title" fill="#94a3b8">company_company</text>
    <text x="1252" y="154" class="meta" text-anchor="end">company</text>
    <text x="1020" y="190" class="field">PK    id : int</text>
    <text x="1020" y="208" class="field">      name : varchar</text>
    <text x="1020" y="226" class="field">UK    code : varchar</text>
    <text x="1020" y="244" class="field">      is_active : boolean</text>
  </g>
  <g id="production_execution_productionrun" class="card" data-table="production_execution_productionrun">
    <title>production_execution_productionrun</title>
    <rect class="card-outline" x="1006" y="306" width="294" height="220" rx="8" fill="#ffffff" stroke="#94a3b8" stroke-width="1.5"/>
    <rect x="1006" y="306" width="294" height="34" rx="8" fill="#e2e8f0" stroke="#94a3b8" stroke-width="1"/>
    <rect x="1006" y="332" width="294" height="8" fill="#e2e8f0"/>
    <text x="1020" y="328" class="card-title" fill="#94a3b8">production_execution_productionrun</text>
    <text x="1286" y="328" class="meta" text-anchor="end">production_execution</text>
    <text x="1020" y="364" class="field">PK    id : bigint</text>
    <text x="1020" y="382" class="field">      run_number : int</text>
    <text x="1020" y="400" class="field">      date : date</text>
    <text x="1020" y="418" class="field">      rated_speed : decimal (nullable)</text>
    <text x="1020" y="436" class="field">      total_production : decimal</text>
    <text x="1020" y="454" class="field">      total_breakdown_time : int</text>
    <text x="1020" y="472" class="field">      status : varchar</text>
    <text x="1020" y="490" class="field">      created_at : datetime</text>
    <text x="1020" y="508" class="field">... 20 more fields</text>
  </g>

  <script><![CDATA[
    (function () {
      const svg = document.currentScript.ownerSVGElement;
      if (!svg || svg.dataset.erInteractive === "1") return;
      svg.dataset.erInteractive = "1";
      const relations = Array.from(svg.querySelectorAll(".relation"));
      const cards = Array.from(svg.querySelectorAll(".card"));

      function clear() {
        relations.forEach((relation) => relation.classList.remove("active"));
        cards.forEach((card) => card.classList.remove("active-card"));
      }

      function highlight(relation) {
        const src = relation.dataset.src;
        const dst = relation.dataset.dst;
        relations.forEach((item) => {
          item.classList.toggle("active", item === relation);
        });
        cards.forEach((card) => {
          const connected = card.dataset.table === src || card.dataset.table === dst;
          card.classList.toggle("active-card", connected);
        });
      }

      relations.forEach((relation) => {
        relation.addEventListener("click", (event) => {
          event.stopPropagation();
          highlight(relation);
        });
      });
      svg.addEventListener("click", clear);
    })();
  ]]></script>

</svg>
