<svg xmlns="http://www.w3.org/2000/svg" width="1728" height="870" viewBox="0 0 1728 870">

  <defs>
    <marker id="arrow" viewBox="0 0 10 10" refX="9" refY="5" markerWidth="7" markerHeight="7" orient="auto-start-reverse">
      <path d="M 0 0 L 10 5 L 0 10 z" fill="#64748b"/>
    </marker>
    <marker id="arrow-active" viewBox="0 0 10 10" refX="9" refY="5" markerWidth="8" markerHeight="8" orient="auto-start-reverse">
      <path d="M 0 0 L 10 5 L 0 10 z" fill="#ef4444"/>
    </marker>
  </defs>

  <style>
    .page-title { font: 700 28px "Segoe UI", Arial, sans-serif; fill: #0f172a; }
    .subtitle { font: 400 13px "Segoe UI", Arial, sans-serif; fill: #475569; }
    .card-title { font: 700 15px "Segoe UI", Arial, sans-serif; }
    .field { font: 12px Consolas, "Liberation Mono", monospace; fill: #1f2937; }
    .meta { font: 12px "Segoe UI", Arial, sans-serif; fill: #64748b; }
    .section { font: 700 14px "Segoe UI", Arial, sans-serif; fill: #334155; }
    .card { transition: opacity .12s ease; }
    .card-outline { transition: stroke .12s ease, stroke-width .12s ease; }
    .card.active-card .card-outline { stroke: #ef4444; stroke-width: 4; }
    .relation { cursor: pointer; }
    .overview-app { cursor: pointer; }
    .overview-app:hover .overview-outline { stroke-width: 4; }
    .edge-hit { stroke: transparent; stroke-width: 18; fill: none; pointer-events: stroke; }
    .edge { stroke: #64748b; stroke-width: 1.8; fill: none; marker-end: url(#arrow); opacity: .62; }
    .external-edge { stroke: #475569; opacity: .58; }
    .relation.active .edge { stroke: #ef4444; stroke-width: 4; marker-end: url(#arrow-active); opacity: 1; }
    .relation.active .edge-label-bg { stroke: #ef4444; stroke-width: 1.5; opacity: 1; }
    .relation.active .edge-label { fill: #b91c1c; font-weight: 700; }
    .edge-label-bg { fill: #ffffff; stroke: #e2e8f0; stroke-width: 1; opacity: .9; }
    .edge-label { font: 10px "Segoe UI", Arial, sans-serif; fill: #475569; }
  </style>
  <rect width="100%" height="100%" fill="#f8fafc"/>
  <text x="60" y="54" class="page-title">gate_core_rejectedqcreturnentry Neighborhood</text>
  <text x="60" y="80" class="subtitle">4 parent/lookup tables, 1 child tables, 6 direct relationships</text>
  <text x="60" y="126" class="section">Parents and lookups</text>
  <text x="1398" y="126" class="section">Children and dependents</text>
  <g class="relation" data-src="accounts_user" data-dst="gate_core_rejectedqcreturnentry" data-label="created_by_id">
    <title>accounts_user to gate_core_rejectedqcreturnentry via created_by_id</title>
    <path class="edge-hit" d="M 354 223 L 372 223 L 372 136 L 829 136 L 829 296 L 847 296"/>
    <path class="edge" d="M 354 223 L 372 223 L 372 136 L 829 136 L 829 296 L 847 296"/>
    <rect class="edge-label-bg" x="592.0" y="128.0" width="90" height="16" rx="4"/>
    <text class="edge-label" x="637.0" y="140.0" text-anchor="middle">created_by_id</text>
  </g>
  <g class="relation" data-src="accounts_user" data-dst="gate_core_rejectedqcreturnentry" data-label="updated_by_id">
    <title>accounts_user to gate_core_rejectedqcreturnentry via updated_by_id</title>
    <path class="edge-hit" d="M 354 297 L 378 297 L 378 384 L 823 384 L 823 380 L 847 380"/>
    <path class="edge" d="M 354 297 L 378 297 L 378 384 L 823 384 L 823 380 L 847 380"/>
    <rect class="edge-label-bg" x="514.0" y="376.0" width="90" height="16" rx="4"/>
    <text class="edge-label" x="559.0" y="388.0" text-anchor="middle">updated_by_id</text>
  </g>
  <g class="relation" data-src="company_company" data-dst="gate_core_rejectedqcreturnentry" data-label="company_id">
    <title>company_company to gate_core_rejectedqcreturnentry via company_id</title>
    <path class="edge-hit" d="M 320 465 L 811 465 L 811 550 L 847 550"/>
    <path class="edge" d="M 320 465 L 811 465 L 811 550 L 847 550"/>
    <rect class="edge-label-bg" x="590.0" y="457.0" width="72" height="16" rx="4"/>
    <text class="edge-label" x="626.0" y="469.0" text-anchor="middle">company_id</text>
  </g>
  <g class="relation" data-src="driver_management_driver" data-dst="gate_core_rejectedqcreturnentry" data-label="driver_id">
    <title>driver_management_driver to gate_core_rejectedqcreturnentry via driver_id</title>
    <path class="edge-hit" d="M 667 260 L 817 260 L 817 465 L 847 465"/>
    <path class="edge" d="M 667 260 L 817 260 L 817 465 L 847 465"/>
    <rect class="edge-label-bg" x="784.0" y="294.5" width="66" height="16" rx="4"/>
    <text class="edge-label" x="817.0" y="306.5" text-anchor="middle">driver_id</text>
  </g>
  <g class="relation" data-src="gate_core_rejectedqcreturnentry" data-dst="gate_core_rejectedqcreturnitem" data-label="entry_id">
    <title>gate_core_rejectedqcreturnentry to gate_core_rejectedqcreturnitem via entry_id</title>
    <path class="edge-hit" d="M 1218 465 L 1236 465 L 1236 276 L 1380 276 L 1380 260 L 1398 260"/>
    <path class="edge" d="M 1218 465 L 1236 465 L 1236 276 L 1380 276 L 1380 260 L 1398 260"/>
    <rect class="edge-label-bg" x="1206.0" y="282.5" width="60" height="16" rx="4"/>
    <text class="edge-label" x="1236.0" y="294.5" text-anchor="middle">entry_id</text>
  </g>
  <g class="relation" data-src="vehicle_management_vehicle" data-dst="gate_core_rejectedqcreturnentry" data-label="vehicle_id">
    <title>vehicle_management_vehicle to gate_core_rejectedqcreturnentry via vehicle_id</title>
    <path class="edge-hit" d="M 361 670 L 379 670 L 379 634 L 847 634"/>
    <path class="edge" d="M 361 670 L 379 670 L 379 634 L 847 634"/>
    <rect class="edge-label-bg" x="550.0" y="626.0" width="72" height="16" rx="4"/>
    <text class="edge-label" x="586.0" y="638.0" text-anchor="middle">vehicle_id</text>
  </g>
  <g id="accounts_user" class="card" data-table="accounts_user">
    <title>accounts_user</title>
    <rect class="card-outline" x="60" y="150" width="294" height="220" rx="8" fill="#ffffff" stroke="#94a3b8" stroke-width="1.5"/>
    <rect x="60" y="150" width="294" height="34" rx="8" fill="#e2e8f0" stroke="#94a3b8" stroke-width="1"/>
    <rect x="60" y="176" width="294" height="8" fill="#e2e8f0"/>
    <text x="74" y="172" class="card-title" fill="#94a3b8">accounts_user</text>
    <text x="340" y="172" class="meta" text-anchor="end">accounts</text>
    <text x="74" y="208" class="field">PK    id : bigint</text>
    <text x="74" y="226" class="field">      password : varchar</text>
    <text x="74" y="244" class="field">      last_login : datetime (nullable)</text>
    <text x="74" y="262" class="field">      is_superuser : boolean</text>
    <text x="74" y="280" class="field">UK    email : varchar</text>
    <text x="74" y="298" class="field">      full_name : varchar</text>
    <text x="74" y="316" class="field">UK    employee_code : varchar</text>
    <text x="74" y="334" class="field">      is_active : boolean</text>
    <text x="74" y="352" class="field">... 2 more fields</text>
  </g>
  <g id="company_company" class="card" data-table="company_company">
    <title>company_company</title>
    <rect class="card-outline" x="60" y="400" width="260" height="130" rx="8" fill="#ffffff" stroke="#94a3b8" stroke-width="1.5"/>
    <rect x="60" y="400" width="260" height="34" rx="8" fill="#e2e8f0" stroke="#94a3b8" stroke-width="1"/>
    <rect x="60" y="426" width="260" height="8" fill="#e2e8f0"/>
    <text x="74" y="422" class="card-title" fill="#94a3b8">company_company</text>
    <text x="306" y="422" class="meta" text-anchor="end">company</text>
    <text x="74" y="458" class="field">PK    id : int</text>
    <text x="74" y="476" class="field">      name : varchar</text>
    <text x="74" y="494" class="field">UK    code : varchar</text>
    <text x="74" y="512" class="field">      is_active : boolean</text>
  </g>
  <g id="vehicle_management_vehicle" class="card" data-table="vehicle_management_vehicle">
    <title>vehicle_management_vehicle</title>
    <rect class="card-outline" x="60" y="560" width="301" height="220" rx="8" fill="#ffffff" stroke="#94a3b8" stroke-width="1.5"/>
    <rect x="60" y="560" width="301" height="34" rx="8" fill="#e2e8f0" stroke="#94a3b8" stroke-width="1"/>
    <rect x="60" y="586" width="301" height="8" fill="#e2e8f0"/>
    <text x="74" y="582" class="card-title" fill="#94a3b8">vehicle_management_vehicle</text>
    <text x="347" y="582" class="meta" text-anchor="end">vehicle_management</text>
    <text x="74" y="618" class="field">PK    id : int</text>
    <text x="74" y="636" class="field">      created_at : datetime</text>
    <text x="74" y="654" class="field">      updated_at : datetime</text>
    <text x="74" y="672" class="field">      is_active : boolean</text>
    <text x="74" y="690" class="field">UK    vehicle_number : varchar</text>
    <text x="74" y="708" class="field">FK    vehicle_type_id : int (nullable)</text>
    <text x="74" y="726" class="field">      capacity_ton : decimal (nullable)</text>
    <text x="74" y="744" class="field">      created_by_id : int (nullable)</text>
    <text x="74" y="762" class="field">... 2 more fields</text>
  </g>
  <g id="driver_management_driver" class="card" data-table="driver_management_driver">
    <title>driver_management_driver</title>
    <rect class="card-outline" x="407" y="150" width="260" height="220" rx="8" fill="#ffffff" stroke="#94a3b8" stroke-width="1.5"/>
    <rect x="407" y="150" width="260" height="34" rx="8" fill="#e2e8f0" stroke="#94a3b8" stroke-width="1"/>
    <rect x="407" y="176" width="260" height="8" fill="#e2e8f0"/>
    <text x="421" y="172" class="card-title" fill="#94a3b8">driver_management_driver</text>
    <text x="653" y="172" class="meta" text-anchor="end">driver_management</text>
    <text x="421" y="208" class="field">PK    id : int</text>
    <text x="421" y="226" class="field">      created_at : datetime</text>
    <text x="421" y="244" class="field">      updated_at : datetime</text>
    <text x="421" y="262" class="field">      is_active : boolean</text>
    <text x="421" y="280" class="field">      name : varchar</text>
    <text x="421" y="298" class="field">      mobile_no : varchar</text>
    <text x="421" y="316" class="field">UK    license_no : varchar</text>
    <text x="421" y="334" class="field">      id_proof_type : varchar</text>
    <text x="421" y="352" class="field">... 4 more fields</text>
  </g>
  <g id="gate_core_rejectedqcreturnentry" class="card" data-table="gate_core_rejectedqcreturnentry">
    <title>gate_core_rejectedqcreturnentry</title>
    <rect class="card-outline" x="847" y="211" width="371" height="508" rx="8" fill="#ffffff" stroke="#0f172a" stroke-width="3"/>
    <rect x="847" y="211" width="371" height="34" rx="8" fill="#bfdbfe" stroke="#0f172a" stroke-width="1"/>
    <rect x="847" y="237" width="371" height="8" fill="#bfdbfe"/>
    <text x="861" y="233" class="card-title" fill="#0f172a">gate_core_rejectedqcreturnentry</text>
    <text x="861" y="269" class="field">PK    id : bigint</text>
    <text x="861" y="287" class="field">      created_at : datetime</text>
    <text x="861" y="305" class="field">      updated_at : datetime</text>
    <text x="861" y="323" class="field">      is_active : boolean</text>
    <text x="861" y="341" class="field">UK    entry_no : varchar</text>
    <text x="861" y="359" class="field">      gate_out_date : date</text>
    <text x="861" y="377" class="field">      out_time : time (nullable)</text>
    <text x="861" y="395" class="field">      challan_no : varchar</text>
    <text x="861" y="413" class="field">      eway_bill_no : varchar</text>
    <text x="861" y="431" class="field">      manual_sap_reference : varchar</text>
    <text x="861" y="449" class="field">      security_name : varchar</text>
    <text x="861" y="467" class="field">      remarks : text</text>
    <text x="861" y="485" class="field">      status : varchar</text>
    <text x="861" y="503" class="field">FK    company_id : bigint</text>
    <text x="861" y="521" class="field">FK    created_by_id : bigint (nullable)</text>
    <text x="861" y="539" class="field">FK    driver_id : bigint</text>
    <text x="861" y="557" class="field">FK    updated_by_id : bigint (nullable)</text>
    <text x="861" y="575" class="field">FK    vehicle_id : bigint</text>
    <text x="861" y="593" class="field">      gross_weight : decimal (nullable)</text>
    <text x="861" y="611" class="field">      tare_weight : decimal (nullable)</text>
    <text x="861" y="629" class="field">      net_weight : decimal (nullable)</text>
    <text x="861" y="647" class="field">      weighbridge_slip_no : varchar</text>
    <text x="861" y="665" class="field">      first_weighment_time : datetime (nullable)</text>
    <text x="861" y="683" class="field">      second_weighment_time : datetime (nullable)</text>
    <text x="861" y="701" class="field">      gatepass_documents : json</text>
  </g>
  <g id="gate_core_rejectedqcreturnitem" class="card" data-table="gate_core_rejectedqcreturnitem">
    <title>gate_core_rejectedqcreturnitem</title>
    <rect class="card-outline" x="1398" y="150" width="260" height="220" rx="8" fill="#ffffff" stroke="#94a3b8" stroke-width="1.5"/>
    <rect x="1398" y="150" width="260" height="34" rx="8" fill="#e2e8f0" stroke="#94a3b8" stroke-width="1"/>
    <rect x="1398" y="176" width="260" height="8" fill="#e2e8f0"/>
    <text x="1412" y="172" class="card-title" fill="#94a3b8">gate_core_rejectedqcreturnitem</text>
    <text x="1644" y="172" class="meta" text-anchor="end">gate_core</text>
    <text x="1412" y="208" class="field">PK    id : bigint</text>
    <text x="1412" y="226" class="field">      created_at : datetime</text>
    <text x="1412" y="244" class="field">      updated_at : datetime</text>
    <text x="1412" y="262" class="field">      is_active : boolean</text>
    <text x="1412" y="280" class="field">      gate_entry_no : varchar</text>
    <text x="1412" y="298" class="field">      report_no : varchar</text>
    <text x="1412" y="316" class="field">      internal_lot_no : varchar</text>
    <text x="1412" y="334" class="field">      item_name : varchar</text>
    <text x="1412" y="352" class="field">... 7 more fields</text>
  </g>

  <script><![CDATA[
    (function () {
      const svg = document.currentScript.ownerSVGElement;
      if (!svg || svg.dataset.erInteractive === "1") return;
      svg.dataset.erInteractive = "1";
      const relations = Array.from(svg.querySelectorAll(".relation"));
      const cards = Array.from(svg.querySelectorAll(".card"));

      function clear() {
        relations.forEach((relation) => relation.classList.remove("active"));
        cards.forEach((card) => card.classList.remove("active-card"));
      }

      function highlight(relation) {
        const src = relation.dataset.src;
        const dst = relation.dataset.dst;
        relations.forEach((item) => {
          item.classList.toggle("active", item === relation);
        });
        cards.forEach((card) => {
          const connected = card.dataset.table === src || card.dataset.table === dst;
          card.classList.toggle("active-card", connected);
        });
      }

      relations.forEach((relation) => {
        relation.addEventListener("click", (event) => {
          event.stopPropagation();
          highlight(relation);
        });
      });
      svg.addEventListener("click", clear);
    })();
  ]]></script>

</svg>
