<svg xmlns="http://www.w3.org/2000/svg" width="1410" height="720" viewBox="0 0 1410 720">

  <defs>
    <marker id="arrow" viewBox="0 0 10 10" refX="9" refY="5" markerWidth="7" markerHeight="7" orient="auto-start-reverse">
      <path d="M 0 0 L 10 5 L 0 10 z" fill="#64748b"/>
    </marker>
    <marker id="arrow-active" viewBox="0 0 10 10" refX="9" refY="5" markerWidth="8" markerHeight="8" orient="auto-start-reverse">
      <path d="M 0 0 L 10 5 L 0 10 z" fill="#ef4444"/>
    </marker>
  </defs>

  <style>
    .page-title { font: 700 28px "Segoe UI", Arial, sans-serif; fill: #0f172a; }
    .subtitle { font: 400 13px "Segoe UI", Arial, sans-serif; fill: #475569; }
    .card-title { font: 700 15px "Segoe UI", Arial, sans-serif; }
    .field { font: 12px Consolas, "Liberation Mono", monospace; fill: #1f2937; }
    .meta { font: 12px "Segoe UI", Arial, sans-serif; fill: #64748b; }
    .section { font: 700 14px "Segoe UI", Arial, sans-serif; fill: #334155; }
    .card { transition: opacity .12s ease; }
    .card-outline { transition: stroke .12s ease, stroke-width .12s ease; }
    .card.active-card .card-outline { stroke: #ef4444; stroke-width: 4; }
    .relation { cursor: pointer; }
    .overview-app { cursor: pointer; }
    .overview-app:hover .overview-outline { stroke-width: 4; }
    .edge-hit { stroke: transparent; stroke-width: 18; fill: none; pointer-events: stroke; }
    .edge { stroke: #64748b; stroke-width: 1.8; fill: none; marker-end: url(#arrow); opacity: .62; }
    .external-edge { stroke: #475569; opacity: .58; }
    .relation.active .edge { stroke: #ef4444; stroke-width: 4; marker-end: url(#arrow-active); opacity: 1; }
    .relation.active .edge-label-bg { stroke: #ef4444; stroke-width: 1.5; opacity: 1; }
    .relation.active .edge-label { fill: #b91c1c; font-weight: 700; }
    .edge-label-bg { fill: #ffffff; stroke: #e2e8f0; stroke-width: 1; opacity: .9; }
    .edge-label { font: 10px "Segoe UI", Arial, sans-serif; fill: #475569; }
  </style>
  <rect width="100%" height="100%" fill="#f8fafc"/>
  <text x="60" y="54" class="page-title">gate_core_bstgateinitem Neighborhood</text>
  <text x="60" y="80" class="subtitle">3 parent/lookup tables, 0 child tables, 4 direct relationships</text>
  <text x="60" y="126" class="section">Parents and lookups</text>
  <g class="relation" data-src="accounts_user" data-dst="gate_core_bstgateinitem" data-label="created_by_id">
    <title>accounts_user to gate_core_bstgateinitem via created_by_id</title>
    <path class="edge-hit" d="M 354 223 L 372 223 L 372 136 L 822 136 L 822 276 L 840 276"/>
    <path class="edge" d="M 354 223 L 372 223 L 372 136 L 822 136 L 822 276 L 840 276"/>
    <rect class="edge-label-bg" x="578.5" y="128.0" width="90" height="16" rx="4"/>
    <text class="edge-label" x="623.5" y="140.0" text-anchor="middle">created_by_id</text>
  </g>
  <g class="relation" data-src="accounts_user" data-dst="gate_core_bstgateinitem" data-label="updated_by_id">
    <title>accounts_user to gate_core_bstgateinitem via updated_by_id</title>
    <path class="edge-hit" d="M 354 297 L 378 297 L 378 384 L 816 384 L 816 349 L 840 349"/>
    <path class="edge" d="M 354 297 L 378 297 L 378 384 L 816 384 L 816 349 L 840 349"/>
    <rect class="edge-label-bg" x="526.0" y="376.0" width="90" height="16" rx="4"/>
    <text class="edge-label" x="571.0" y="388.0" text-anchor="middle">updated_by_id</text>
  </g>
  <g class="relation" data-src="gate_core_bstgatein" data-dst="gate_core_bstgateinitem" data-label="bst_gate_in_id">
    <title>gate_core_bstgatein to gate_core_bstgateinitem via bst_gate_in_id</title>
    <path class="edge-hit" d="M 320 510 L 338 510 L 338 494 L 840 494"/>
    <path class="edge" d="M 320 510 L 338 510 L 338 494 L 840 494"/>
    <rect class="edge-label-bg" x="524.0" y="486.0" width="96" height="16" rx="4"/>
    <text class="edge-label" x="572.0" y="498.0" text-anchor="middle">bst_gate_in_id</text>
  </g>
  <g class="relation" data-src="gate_core_bstgateoutitem" data-dst="gate_core_bstgateinitem" data-label="bst_gate_out_item_id">
    <title>gate_core_bstgateoutitem to gate_core_bstgateinitem via bst_gate_out_item_id</title>
    <path class="edge-hit" d="M 660 260 L 678 260 L 678 421 L 840 421"/>
    <path class="edge" d="M 660 260 L 678 260 L 678 421 L 840 421"/>
    <rect class="edge-label-bg" x="612.0" y="404.5" width="132" height="16" rx="4"/>
    <text class="edge-label" x="678.0" y="416.5" text-anchor="middle">bst_gate_out_item_id</text>
  </g>
  <g id="accounts_user" class="card" data-table="accounts_user">
    <title>accounts_user</title>
    <rect class="card-outline" x="60" y="150" width="294" height="220" rx="8" fill="#ffffff" stroke="#94a3b8" stroke-width="1.5"/>
    <rect x="60" y="150" width="294" height="34" rx="8" fill="#e2e8f0" stroke="#94a3b8" stroke-width="1"/>
    <rect x="60" y="176" width="294" height="8" fill="#e2e8f0"/>
    <text x="74" y="172" class="card-title" fill="#94a3b8">accounts_user</text>
    <text x="340" y="172" class="meta" text-anchor="end">accounts</text>
    <text x="74" y="208" class="field">PK    id : bigint</text>
    <text x="74" y="226" class="field">      password : varchar</text>
    <text x="74" y="244" class="field">      last_login : datetime (nullable)</text>
    <text x="74" y="262" class="field">      is_superuser : boolean</text>
    <text x="74" y="280" class="field">UK    email : varchar</text>
    <text x="74" y="298" class="field">      full_name : varchar</text>
    <text x="74" y="316" class="field">UK    employee_code : varchar</text>
    <text x="74" y="334" class="field">      is_active : boolean</text>
    <text x="74" y="352" class="field">... 2 more fields</text>
  </g>
  <g id="gate_core_bstgatein" class="card" data-table="gate_core_bstgatein">
    <title>gate_core_bstgatein</title>
    <rect class="card-outline" x="60" y="400" width="260" height="220" rx="8" fill="#ffffff" stroke="#94a3b8" stroke-width="1.5"/>
    <rect x="60" y="400" width="260" height="34" rx="8" fill="#e2e8f0" stroke="#94a3b8" stroke-width="1"/>
    <rect x="60" y="426" width="260" height="8" fill="#e2e8f0"/>
    <text x="74" y="422" class="card-title" fill="#94a3b8">gate_core_bstgatein</text>
    <text x="306" y="422" class="meta" text-anchor="end">gate_core</text>
    <text x="74" y="458" class="field">PK    id : bigint</text>
    <text x="74" y="476" class="field">      created_at : datetime</text>
    <text x="74" y="494" class="field">      updated_at : datetime</text>
    <text x="74" y="512" class="field">      is_active : boolean</text>
    <text x="74" y="530" class="field">UK    entry_no : varchar</text>
    <text x="74" y="548" class="field">      gate_in_date : date</text>
    <text x="74" y="566" class="field">      in_time : time</text>
    <text x="74" y="584" class="field">      security_name : varchar</text>
    <text x="74" y="602" class="field">... 12 more fields</text>
  </g>
  <g id="gate_core_bstgateoutitem" class="card" data-table="gate_core_bstgateoutitem">
    <title>gate_core_bstgateoutitem</title>
    <rect class="card-outline" x="400" y="150" width="260" height="220" rx="8" fill="#ffffff" stroke="#94a3b8" stroke-width="1.5"/>
    <rect x="400" y="150" width="260" height="34" rx="8" fill="#e2e8f0" stroke="#94a3b8" stroke-width="1"/>
    <rect x="400" y="176" width="260" height="8" fill="#e2e8f0"/>
    <text x="414" y="172" class="card-title" fill="#94a3b8">gate_core_bstgateoutitem</text>
    <text x="646" y="172" class="meta" text-anchor="end">gate_core</text>
    <text x="414" y="208" class="field">PK    id : bigint</text>
    <text x="414" y="226" class="field">      created_at : datetime</text>
    <text x="414" y="244" class="field">      updated_at : datetime</text>
    <text x="414" y="262" class="field">      is_active : boolean</text>
    <text x="414" y="280" class="field">      line_num : int</text>
    <text x="414" y="298" class="field">      item_code : varchar</text>
    <text x="414" y="316" class="field">      item_name : varchar</text>
    <text x="414" y="334" class="field">      quantity : decimal</text>
    <text x="414" y="352" class="field">... 7 more fields</text>
  </g>
  <g id="gate_core_bstgateinitem" class="card" data-table="gate_core_bstgateinitem">
    <title>gate_core_bstgateinitem</title>
    <rect class="card-outline" x="840" y="203" width="320" height="364" rx="8" fill="#ffffff" stroke="#0f172a" stroke-width="3"/>
    <rect x="840" y="203" width="320" height="34" rx="8" fill="#bfdbfe" stroke="#0f172a" stroke-width="1"/>
    <rect x="840" y="229" width="320" height="8" fill="#bfdbfe"/>
    <text x="854" y="225" class="card-title" fill="#0f172a">gate_core_bstgateinitem</text>
    <text x="854" y="261" class="field">PK    id : bigint</text>
    <text x="854" y="279" class="field">      created_at : datetime</text>
    <text x="854" y="297" class="field">      updated_at : datetime</text>
    <text x="854" y="315" class="field">      is_active : boolean</text>
    <text x="854" y="333" class="field">      line_num : int</text>
    <text x="854" y="351" class="field">      item_code : varchar</text>
    <text x="854" y="369" class="field">      item_name : varchar</text>
    <text x="854" y="387" class="field">      quantity : decimal</text>
    <text x="854" y="405" class="field">      actual_quantity : decimal</text>
    <text x="854" y="423" class="field">      receiving_quantity : decimal</text>
    <text x="854" y="441" class="field">      uom : varchar</text>
    <text x="854" y="459" class="field">      from_warehouse : varchar</text>
    <text x="854" y="477" class="field">      to_warehouse : varchar</text>
    <text x="854" y="495" class="field">FK    bst_gate_in_id : bigint</text>
    <text x="854" y="513" class="field">FK    bst_gate_out_item_id : bigint</text>
    <text x="854" y="531" class="field">FK    created_by_id : bigint (nullable)</text>
    <text x="854" y="549" class="field">FK    updated_by_id : bigint (nullable)</text>
  </g>

  <script><![CDATA[
    (function () {
      const svg = document.currentScript.ownerSVGElement;
      if (!svg || svg.dataset.erInteractive === "1") return;
      svg.dataset.erInteractive = "1";
      const relations = Array.from(svg.querySelectorAll(".relation"));
      const cards = Array.from(svg.querySelectorAll(".card"));

      function clear() {
        relations.forEach((relation) => relation.classList.remove("active"));
        cards.forEach((card) => card.classList.remove("active-card"));
      }

      function highlight(relation) {
        const src = relation.dataset.src;
        const dst = relation.dataset.dst;
        relations.forEach((item) => {
          item.classList.toggle("active", item === relation);
        });
        cards.forEach((card) => {
          const connected = card.dataset.table === src || card.dataset.table === dst;
          card.classList.toggle("active-card", connected);
        });
      }

      relations.forEach((relation) => {
        relation.addEventListener("click", (event) => {
          event.stopPropagation();
          highlight(relation);
        });
      });
      svg.addEventListener("click", clear);
    })();
  ]]></script>

</svg>
