<svg xmlns="http://www.w3.org/2000/svg" width="2033" height="870" viewBox="0 0 2033 870">

  <defs>
    <marker id="arrow" viewBox="0 0 10 10" refX="9" refY="5" markerWidth="7" markerHeight="7" orient="auto-start-reverse">
      <path d="M 0 0 L 10 5 L 0 10 z" fill="#64748b"/>
    </marker>
    <marker id="arrow-active" viewBox="0 0 10 10" refX="9" refY="5" markerWidth="8" markerHeight="8" orient="auto-start-reverse">
      <path d="M 0 0 L 10 5 L 0 10 z" fill="#ef4444"/>
    </marker>
  </defs>

  <style>
    .page-title { font: 700 28px "Segoe UI", Arial, sans-serif; fill: #0f172a; }
    .subtitle { font: 400 13px "Segoe UI", Arial, sans-serif; fill: #475569; }
    .card-title { font: 700 15px "Segoe UI", Arial, sans-serif; }
    .field { font: 12px Consolas, "Liberation Mono", monospace; fill: #1f2937; }
    .meta { font: 12px "Segoe UI", Arial, sans-serif; fill: #64748b; }
    .section { font: 700 14px "Segoe UI", Arial, sans-serif; fill: #334155; }
    .card { transition: opacity .12s ease; }
    .card-outline { transition: stroke .12s ease, stroke-width .12s ease; }
    .card.active-card .card-outline { stroke: #ef4444; stroke-width: 4; }
    .relation { cursor: pointer; }
    .overview-app { cursor: pointer; }
    .overview-app:hover .overview-outline { stroke-width: 4; }
    .edge-hit { stroke: transparent; stroke-width: 18; fill: none; pointer-events: stroke; }
    .edge { stroke: #64748b; stroke-width: 1.8; fill: none; marker-end: url(#arrow); opacity: .62; }
    .external-edge { stroke: #475569; opacity: .58; }
    .relation.active .edge { stroke: #ef4444; stroke-width: 4; marker-end: url(#arrow-active); opacity: 1; }
    .relation.active .edge-label-bg { stroke: #ef4444; stroke-width: 1.5; opacity: 1; }
    .relation.active .edge-label { fill: #b91c1c; font-weight: 700; }
    .edge-label-bg { fill: #ffffff; stroke: #e2e8f0; stroke-width: 1; opacity: .9; }
    .edge-label { font: 10px "Segoe UI", Arial, sans-serif; fill: #475569; }
  </style>
  <rect width="100%" height="100%" fill="#f8fafc"/>
  <text x="60" y="54" class="page-title">gate_core_bstgatein Neighborhood</text>
  <text x="60" y="80" class="subtitle">6 parent/lookup tables, 1 child tables, 8 direct relationships</text>
  <text x="60" y="126" class="section">Parents and lookups</text>
  <text x="1703" y="126" class="section">Children and dependents</text>
  <g class="relation" data-src="accounts_user" data-dst="gate_core_bstgatein" data-label="created_by_id">
    <title>accounts_user to gate_core_bstgatein via created_by_id</title>
    <path class="edge-hit" d="M 354 223 L 372 223 L 372 384 L 1169 384 L 1169 308 L 1187 308"/>
    <path class="edge" d="M 354 223 L 372 223 L 372 384 L 1169 384 L 1169 308 L 1187 308"/>
    <rect class="edge-label-bg" x="683.0" y="376.0" width="90" height="16" rx="4"/>
    <text class="edge-label" x="728.0" y="388.0" text-anchor="middle">created_by_id</text>
  </g>
  <g class="relation" data-src="accounts_user" data-dst="gate_core_bstgatein" data-label="updated_by_id">
    <title>accounts_user to gate_core_bstgatein via updated_by_id</title>
    <path class="edge-hit" d="M 354 297 L 378 297 L 378 386 L 1163 386 L 1163 360 L 1187 360"/>
    <path class="edge" d="M 354 297 L 378 297 L 378 386 L 1163 386 L 1163 360 L 1187 360"/>
    <rect class="edge-label-bg" x="694.0" y="378.0" width="90" height="16" rx="4"/>
    <text class="edge-label" x="739.0" y="390.0" text-anchor="middle">updated_by_id</text>
  </g>
  <g class="relation" data-src="company_company" data-dst="gate_core_bstgatein" data-label="company_id">
    <title>company_company to gate_core_bstgatein via company_id</title>
    <path class="edge-hit" d="M 320 465 L 338 465 L 338 634 L 1145 634 L 1145 517 L 1187 517"/>
    <path class="edge" d="M 320 465 L 338 465 L 338 634 L 1145 634 L 1145 517 L 1187 517"/>
    <rect class="edge-label-bg" x="691.5" y="626.0" width="72" height="16" rx="4"/>
    <text class="edge-label" x="727.5" y="638.0" text-anchor="middle">company_id</text>
  </g>
  <g class="relation" data-src="driver_management_driver" data-dst="gate_core_bstgatein" data-label="driver_id">
    <title>driver_management_driver to gate_core_bstgatein via driver_id</title>
    <path class="edge-hit" d="M 1007 260 L 1025 260 L 1025 413 L 1187 413"/>
    <path class="edge" d="M 1007 260 L 1025 260 L 1025 413 L 1187 413"/>
    <rect class="edge-label-bg" x="992.0" y="400.5" width="66" height="16" rx="4"/>
    <text class="edge-label" x="1025.0" y="412.5" text-anchor="middle">driver_id</text>
  </g>
  <g class="relation" data-src="driver_management_vehicleentry" data-dst="gate_core_bstgatein" data-label="vehicle_entry_id">
    <title>driver_management_vehicleentry to gate_core_bstgatein via vehicle_entry_id</title>
    <path class="edge-hit" d="M 320 670 L 1133 670 L 1133 622 L 1187 622"/>
    <path class="edge" d="M 320 670 L 1133 670 L 1133 622 L 1187 622"/>
    <rect class="edge-label-bg" x="723.5" y="662.0" width="108" height="16" rx="4"/>
    <text class="edge-label" x="777.5" y="674.0" text-anchor="middle">vehicle_entry_id</text>
  </g>
  <g class="relation" data-src="gate_core_bstgatein" data-dst="gate_core_bstgateinitem" data-label="bst_gate_in_id">
    <title>gate_core_bstgatein to gate_core_bstgateinitem via bst_gate_in_id</title>
    <path class="edge-hit" d="M 1523 465 L 1541 465 L 1541 276 L 1685 276 L 1685 260 L 1703 260"/>
    <path class="edge" d="M 1523 465 L 1541 465 L 1541 276 L 1685 276 L 1685 260 L 1703 260"/>
    <rect class="edge-label-bg" x="1493.0" y="282.5" width="96" height="16" rx="4"/>
    <text class="edge-label" x="1541.0" y="294.5" text-anchor="middle">bst_gate_in_id</text>
  </g>
  <g class="relation" data-src="gate_core_bstgateout" data-dst="gate_core_bstgatein" data-label="bst_gate_out_id">
    <title>gate_core_bstgateout to gate_core_bstgatein via bst_gate_out_id</title>
    <path class="edge-hit" d="M 680 510 L 698 510 L 698 570 L 1187 570"/>
    <path class="edge" d="M 680 510 L 698 510 L 698 570 L 1187 570"/>
    <rect class="edge-label-bg" x="852.5" y="562.0" width="102" height="16" rx="4"/>
    <text class="edge-label" x="903.5" y="574.0" text-anchor="middle">bst_gate_out_id</text>
  </g>
  <g class="relation" data-src="vehicle_management_vehicle" data-dst="gate_core_bstgatein" data-label="vehicle_id">
    <title>vehicle_management_vehicle to gate_core_bstgatein via vehicle_id</title>
    <path class="edge-hit" d="M 701 260 L 719 260 L 719 456 L 1151 456 L 1151 465 L 1187 465"/>
    <path class="edge" d="M 701 260 L 719 260 L 719 456 L 1151 456 L 1151 465 L 1187 465"/>
    <rect class="edge-label-bg" x="814.5" y="448.0" width="72" height="16" rx="4"/>
    <text class="edge-label" x="850.5" y="460.0" text-anchor="middle">vehicle_id</text>
  </g>
  <g id="accounts_user" class="card" data-table="accounts_user">
    <title>accounts_user</title>
    <rect class="card-outline" x="60" y="150" width="294" height="220" rx="8" fill="#ffffff" stroke="#94a3b8" stroke-width="1.5"/>
    <rect x="60" y="150" width="294" height="34" rx="8" fill="#e2e8f0" stroke="#94a3b8" stroke-width="1"/>
    <rect x="60" y="176" width="294" height="8" fill="#e2e8f0"/>
    <text x="74" y="172" class="card-title" fill="#94a3b8">accounts_user</text>
    <text x="340" y="172" class="meta" text-anchor="end">accounts</text>
    <text x="74" y="208" class="field">PK    id : bigint</text>
    <text x="74" y="226" class="field">      password : varchar</text>
    <text x="74" y="244" class="field">      last_login : datetime (nullable)</text>
    <text x="74" y="262" class="field">      is_superuser : boolean</text>
    <text x="74" y="280" class="field">UK    email : varchar</text>
    <text x="74" y="298" class="field">      full_name : varchar</text>
    <text x="74" y="316" class="field">UK    employee_code : varchar</text>
    <text x="74" y="334" class="field">      is_active : boolean</text>
    <text x="74" y="352" class="field">... 2 more fields</text>
  </g>
  <g id="company_company" class="card" data-table="company_company">
    <title>company_company</title>
    <rect class="card-outline" x="60" y="400" width="260" height="130" rx="8" fill="#ffffff" stroke="#94a3b8" stroke-width="1.5"/>
    <rect x="60" y="400" width="260" height="34" rx="8" fill="#e2e8f0" stroke="#94a3b8" stroke-width="1"/>
    <rect x="60" y="426" width="260" height="8" fill="#e2e8f0"/>
    <text x="74" y="422" class="card-title" fill="#94a3b8">company_company</text>
    <text x="306" y="422" class="meta" text-anchor="end">company</text>
    <text x="74" y="458" class="field">PK    id : int</text>
    <text x="74" y="476" class="field">      name : varchar</text>
    <text x="74" y="494" class="field">UK    code : varchar</text>
    <text x="74" y="512" class="field">      is_active : boolean</text>
  </g>
  <g id="driver_management_vehicleentry" class="card" data-table="driver_management_vehicleentry">
    <title>driver_management_vehicleentry</title>
    <rect class="card-outline" x="60" y="560" width="260" height="220" rx="8" fill="#ffffff" stroke="#94a3b8" stroke-width="1.5"/>
    <rect x="60" y="560" width="260" height="34" rx="8" fill="#e2e8f0" stroke="#94a3b8" stroke-width="1"/>
    <rect x="60" y="586" width="260" height="8" fill="#e2e8f0"/>
    <text x="74" y="582" class="card-title" fill="#94a3b8">driver_management_vehicleentry</text>
    <text x="306" y="582" class="meta" text-anchor="end">driver_management</text>
    <text x="74" y="618" class="field">PK    id : int</text>
    <text x="74" y="636" class="field">      created_at : datetime</text>
    <text x="74" y="654" class="field">      updated_at : datetime</text>
    <text x="74" y="672" class="field">      is_active : boolean</text>
    <text x="74" y="690" class="field">UK    entry_no : varchar</text>
    <text x="74" y="708" class="field">      status : varchar</text>
    <text x="74" y="726" class="field">      is_locked : boolean</text>
    <text x="74" y="744" class="field">      entry_time : datetime</text>
    <text x="74" y="762" class="field">... 7 more fields</text>
  </g>
  <g id="vehicle_management_vehicle" class="card" data-table="vehicle_management_vehicle">
    <title>vehicle_management_vehicle</title>
    <rect class="card-outline" x="400" y="150" width="301" height="220" rx="8" fill="#ffffff" stroke="#94a3b8" stroke-width="1.5"/>
    <rect x="400" y="150" width="301" height="34" rx="8" fill="#e2e8f0" stroke="#94a3b8" stroke-width="1"/>
    <rect x="400" y="176" width="301" height="8" fill="#e2e8f0"/>
    <text x="414" y="172" class="card-title" fill="#94a3b8">vehicle_management_vehicle</text>
    <text x="687" y="172" class="meta" text-anchor="end">vehicle_management</text>
    <text x="414" y="208" class="field">PK    id : int</text>
    <text x="414" y="226" class="field">      created_at : datetime</text>
    <text x="414" y="244" class="field">      updated_at : datetime</text>
    <text x="414" y="262" class="field">      is_active : boolean</text>
    <text x="414" y="280" class="field">UK    vehicle_number : varchar</text>
    <text x="414" y="298" class="field">FK    vehicle_type_id : int (nullable)</text>
    <text x="414" y="316" class="field">      capacity_ton : decimal (nullable)</text>
    <text x="414" y="334" class="field">      created_by_id : int (nullable)</text>
    <text x="414" y="352" class="field">... 2 more fields</text>
  </g>
  <g id="gate_core_bstgateout" class="card" data-table="gate_core_bstgateout">
    <title>gate_core_bstgateout</title>
    <rect class="card-outline" x="400" y="400" width="280" height="220" rx="8" fill="#ffffff" stroke="#94a3b8" stroke-width="1.5"/>
    <rect x="400" y="400" width="280" height="34" rx="8" fill="#e2e8f0" stroke="#94a3b8" stroke-width="1"/>
    <rect x="400" y="426" width="280" height="8" fill="#e2e8f0"/>
    <text x="414" y="422" class="card-title" fill="#94a3b8">gate_core_bstgateout</text>
    <text x="666" y="422" class="meta" text-anchor="end">gate_core</text>
    <text x="414" y="458" class="field">PK    id : bigint</text>
    <text x="414" y="476" class="field">      created_at : datetime</text>
    <text x="414" y="494" class="field">      updated_at : datetime</text>
    <text x="414" y="512" class="field">      is_active : boolean</text>
    <text x="414" y="530" class="field">UK    entry_no : varchar</text>
    <text x="414" y="548" class="field">      sap_doc_entry : int</text>
    <text x="414" y="566" class="field">      sap_doc_num : varchar</text>
    <text x="414" y="584" class="field">      sap_doc_date : date (nullable)</text>
    <text x="414" y="602" class="field">... 19 more fields</text>
  </g>
  <g id="driver_management_driver" class="card" data-table="driver_management_driver">
    <title>driver_management_driver</title>
    <rect class="card-outline" x="747" y="150" width="260" height="220" rx="8" fill="#ffffff" stroke="#94a3b8" stroke-width="1.5"/>
    <rect x="747" y="150" width="260" height="34" rx="8" fill="#e2e8f0" stroke="#94a3b8" stroke-width="1"/>
    <rect x="747" y="176" width="260" height="8" fill="#e2e8f0"/>
    <text x="761" y="172" class="card-title" fill="#94a3b8">driver_management_driver</text>
    <text x="993" y="172" class="meta" text-anchor="end">driver_management</text>
    <text x="761" y="208" class="field">PK    id : int</text>
    <text x="761" y="226" class="field">      created_at : datetime</text>
    <text x="761" y="244" class="field">      updated_at : datetime</text>
    <text x="761" y="262" class="field">      is_active : boolean</text>
    <text x="761" y="280" class="field">      name : varchar</text>
    <text x="761" y="298" class="field">      mobile_no : varchar</text>
    <text x="761" y="316" class="field">UK    license_no : varchar</text>
    <text x="761" y="334" class="field">      id_proof_type : varchar</text>
    <text x="761" y="352" class="field">... 4 more fields</text>
  </g>
  <g id="gate_core_bstgatein" class="card" data-table="gate_core_bstgatein">
    <title>gate_core_bstgatein</title>
    <rect class="card-outline" x="1187" y="256" width="336" height="418" rx="8" fill="#ffffff" stroke="#0f172a" stroke-width="3"/>
    <rect x="1187" y="256" width="336" height="34" rx="8" fill="#bfdbfe" stroke="#0f172a" stroke-width="1"/>
    <rect x="1187" y="282" width="336" height="8" fill="#bfdbfe"/>
    <text x="1201" y="278" class="card-title" fill="#0f172a">gate_core_bstgatein</text>
    <text x="1201" y="314" class="field">PK    id : bigint</text>
    <text x="1201" y="332" class="field">      created_at : datetime</text>
    <text x="1201" y="350" class="field">      updated_at : datetime</text>
    <text x="1201" y="368" class="field">      is_active : boolean</text>
    <text x="1201" y="386" class="field">UK    entry_no : varchar</text>
    <text x="1201" y="404" class="field">      gate_in_date : date</text>
    <text x="1201" y="422" class="field">      in_time : time</text>
    <text x="1201" y="440" class="field">      security_name : varchar</text>
    <text x="1201" y="458" class="field">      remarks : text</text>
    <text x="1201" y="476" class="field">      status : varchar</text>
    <text x="1201" y="494" class="field">FK    bst_gate_out_id : bigint</text>
    <text x="1201" y="512" class="field">FK    company_id : bigint</text>
    <text x="1201" y="530" class="field">FK    created_by_id : bigint (nullable)</text>
    <text x="1201" y="548" class="field">FK    driver_id : bigint</text>
    <text x="1201" y="566" class="field">FK    updated_by_id : bigint (nullable)</text>
    <text x="1201" y="584" class="field">FK    vehicle_id : bigint</text>
    <text x="1201" y="602" class="field">FK    vehicle_entry_id : bigint</text>
    <text x="1201" y="620" class="field">      sap_receipt_doc_num : varchar</text>
    <text x="1201" y="638" class="field">      sap_receipt_doc_date : date (nullable)</text>
    <text x="1201" y="656" class="field">      sap_receipt_reference : varchar</text>
  </g>
  <g id="gate_core_bstgateinitem" class="card" data-table="gate_core_bstgateinitem">
    <title>gate_core_bstgateinitem</title>
    <rect class="card-outline" x="1703" y="150" width="260" height="220" rx="8" fill="#ffffff" stroke="#94a3b8" stroke-width="1.5"/>
    <rect x="1703" y="150" width="260" height="34" rx="8" fill="#e2e8f0" stroke="#94a3b8" stroke-width="1"/>
    <rect x="1703" y="176" width="260" height="8" fill="#e2e8f0"/>
    <text x="1717" y="172" class="card-title" fill="#94a3b8">gate_core_bstgateinitem</text>
    <text x="1949" y="172" class="meta" text-anchor="end">gate_core</text>
    <text x="1717" y="208" class="field">PK    id : bigint</text>
    <text x="1717" y="226" class="field">      created_at : datetime</text>
    <text x="1717" y="244" class="field">      updated_at : datetime</text>
    <text x="1717" y="262" class="field">      is_active : boolean</text>
    <text x="1717" y="280" class="field">      line_num : int</text>
    <text x="1717" y="298" class="field">      item_code : varchar</text>
    <text x="1717" y="316" class="field">      item_name : varchar</text>
    <text x="1717" y="334" class="field">      quantity : decimal</text>
    <text x="1717" y="352" class="field">... 9 more fields</text>
  </g>

  <script><![CDATA[
    (function () {
      const svg = document.currentScript.ownerSVGElement;
      if (!svg || svg.dataset.erInteractive === "1") return;
      svg.dataset.erInteractive = "1";
      const relations = Array.from(svg.querySelectorAll(".relation"));
      const cards = Array.from(svg.querySelectorAll(".card"));

      function clear() {
        relations.forEach((relation) => relation.classList.remove("active"));
        cards.forEach((card) => card.classList.remove("active-card"));
      }

      function highlight(relation) {
        const src = relation.dataset.src;
        const dst = relation.dataset.dst;
        relations.forEach((item) => {
          item.classList.toggle("active", item === relation);
        });
        cards.forEach((card) => {
          const connected = card.dataset.table === src || card.dataset.table === dst;
          card.classList.toggle("active-card", connected);
        });
      }

      relations.forEach((relation) => {
        relation.addEventListener("click", (event) => {
          event.stopPropagation();
          highlight(relation);
        });
      });
      svg.addEventListener("click", clear);
    })();
  ]]></script>

</svg>
